<?xml version="1.0" standalone="no"?>
<!DOCTYPE svg PUBLIC "-//W3C//DTD SVG 1.1//EN" "http://www.w3.org/Graphics/SVG/1.1/DTD/svg11.dtd" >
<svg>
<metadata>
Created by FontForge 20090622 at Sun Mar 19 15:36:11 2017
 By deploy user
Copyright &#194;&#169; 2011-2012 Durotype, www.durotype.com. All rights reserved.
</metadata>
<defs>
<font id="Flexo-Medium" horiz-adv-x="1810" >
  <font-face 
    font-family="Flexo Medium"
    font-weight="550"
    font-stretch="normal"
    units-per-em="3333"
    panose-1="0 0 0 0 0 0 0 0 0 0"
    ascent="2633"
    descent="-700"
    x-height="1781"
    cap-height="2330"
    bbox="-536 -838 4042 3191"
    underline-thickness="167"
    underline-position="-230"
    unicode-range="U+0020-U+FB04"
  />
<missing-glyph horiz-adv-x="2147" 
d="M242 0v2400h1663v-2400h-1663zM974 1200l-565 874v-1748zM1639 171l-565 875l-566 -875h1131zM1639 2228h-1131l566 -874zM1739 2074l-565 -874l565 -874v1748z" />
    <glyph glyph-name="f_f" unicode="ff" horiz-adv-x="2257" 
d="M82 1781h309v182q0 258 134 394t399 136q98 0 190 -14l-23 -220h-106q-287 0 -287 -286v-192h785v182q0 258 134 394t399 136q98 0 190 -14l-23 -220h-107q-287 0 -287 -286v-192h390v-234h-390v-1547h-306v1547h-785v-1547h-307v1547h-309v234z" />
    <glyph glyph-name="fi" unicode="fi" horiz-adv-x="2013" 
d="M1767 0h-308v1547h-761v-1547h-307v1547h-309v234h309v182q0 258 134 394t399 136q98 0 190 -14l-23 -220h-106q-287 0 -287 -286v-192h1069v-1781zM1612 2089q-107 0 -146 43.5t-39 157.5t39.5 158.5t145.5 44.5t146 -44.5t40 -158.5t-39 -157.5t-147 -43.5z" />
    <glyph glyph-name="fl" unicode="fl" horiz-adv-x="2007" 
d="M82 1781h309v182q0 258 134 394t399 136q403 0 820 -24v-1991q0 -133 33 -233.5t104 -193.5l-263 -130q-91 103 -135.5 231.5t-44.5 308.5v1798h-453q-287 0 -287 -286v-192h389v-234h-389v-1547h-307v1547h-309v234z" />
    <glyph glyph-name="f_f_i" unicode="ffi" horiz-adv-x="3104" 
d="M391 1781v182q0 258 134 394t399 136q98 0 190 -14l-23 -220h-106q-287 0 -287 -286v-192h785v182q0 258 134 394t399 136q98 0 190 -14l-23 -220h-107q-287 0 -287 -286v-192h1069v-1781h-307v1547h-762v-1547h-306v1547h-785v-1547h-307v1547h-309v234h309zM2704 2089
q-107 0 -146 43.5t-39 157.5t39.5 158.5t145.5 44.5t145.5 -44.5t39.5 -158.5t-39 -157.5t-146 -43.5z" />
    <glyph glyph-name="f_f_l" unicode="ffl" horiz-adv-x="3099" 
d="M2179 1781v-234h-390v-1547h-306v1547h-785v-1547h-307v1547h-309v234h309v182q0 258 134 394t399 136q98 0 190 -14l-23 -220h-106q-287 0 -287 -286v-192h785v182q0 258 134 394t399 136q403 0 820 -24v-1991q0 -133 32.5 -234t104.5 -193l-264 -130
q-91 103 -135.5 231.5t-44.5 308.5v1798h-453q-287 0 -287 -286v-192h390z" />
    <glyph glyph-name="f_b" unicode="fb" horiz-adv-x="3116" 
d="M391 1781v182q0 258 134 394t399 136q403 0 820 -24v-722q234 58 445 58q206 0 346.5 -46.5t235 -154t137.5 -282t43 -431.5q0 -262 -46 -437t-148 -281.5t-251.5 -151.5t-371.5 -45q-184 0 -363 36.5t-320 112.5q-12 155 -12 315v1819h-454q-287 0 -287 -286v-192h389
v-234h-389v-1547h-307v1547h-309v234h309zM1753 290q72 -34 176.5 -52.5t204.5 -18.5q92 0 165 16t126 45t91.5 75t62.5 99t38.5 125.5t19.5 145t5 166.5q0 79 -2.5 138t-9.5 121.5t-19 107.5t-32.5 90.5t-49 76.5t-68.5 58.5t-91.5 43.5t-117 25t-146.5 9
q-84 0 -183.5 -17.5t-178.5 -43.5v-949q0 -142 9 -261z" />
    <glyph glyph-name="f_f_b" unicode="ffb" horiz-adv-x="4207" 
d="M1789 1547v-1547h-306v1547h-785v-1547h-307v1547h-309v234h309v182q0 258 134 394t399 136q98 0 190 -14l-23 -220h-106q-287 0 -287 -286v-192h785v182q0 258 134 394t399 136q403 0 820 -24v-722q234 58 444 58q206 0 346.5 -46.5t235 -154t137.5 -282t43 -431.5
q0 -210 -30.5 -363t-91 -259.5t-160 -171t-228.5 -93t-306 -28.5q-184 0 -363.5 36.5t-320.5 112.5q-12 177 -12 315v1819h-454q-287 0 -287 -286v-192h390v-234h-390zM2836 551q0 -142 9 -261q72 -34 176 -52.5t205 -18.5q92 0 165 16t125.5 45t91 75t62.5 99t38.5 125.5
t19.5 145t5 166.5q0 79 -2.5 138t-9.5 121.5t-19 107.5t-32.5 90.5t-49 76.5t-68.5 58.5t-91.5 43.5t-117 25t-146.5 9q-84 0 -183.5 -17.5t-177.5 -43.5v-949z" />
    <glyph glyph-name="f_f_h" unicode="ffh" horiz-adv-x="4219" 
d="M698 1781h785v182q0 258 134 394t399 136q403 0 820 -24v-735q235 70 482 71q102 0 186.5 -10t150 -28t117.5 -47t88.5 -61.5t63.5 -77.5t43 -89.5t25.5 -102.5t13 -111.5t3.5 -121.5v-1156h-306v1109q0 84 -6.5 142t-24.5 111.5t-50.5 86.5t-85 58.5t-127.5 36
t-179 10.5q-206 0 -394 -75v-1479h-306v2259h-454q-287 0 -287 -286v-192h390v-234h-390v-1547h-306v1547h-785v-1547h-307v1547h-309v234h309v182q0 258 134 394t399 136q98 0 190 -14l-23 -220h-106q-287 0 -287 -286v-192z" />
    <glyph glyph-name="f_f_j" unicode="ffj" horiz-adv-x="3180" 
d="M698 1547v-1547h-307v1547h-309v234h309v182q0 258 134 394t399 136q98 0 190 -14l-23 -220h-106q-287 0 -287 -286v-192h785v182q0 258 134 394t399 136q98 0 190 -14l-23 -220h-107q-287 0 -287 -286v-192h1140v-1789q0 -360 -150.5 -516t-481.5 -156q-37 0 -74 3
l25 230q49 4 85.5 10t78 18t70.5 29t57 45t45 65.5t27.5 90.5t10.5 119v1617h-833v-1547h-306v1547h-785zM2590 2290q0 114 39.5 158.5t145.5 44.5t146 -44.5t40 -158.5t-39 -157.5t-147 -43.5q-107 0 -146 43.5t-39 157.5z" />
    <glyph glyph-name="f_f_k" unicode="ffk" horiz-adv-x="4013" 
d="M2836 976l727 805h357l-788 -851l834 -930h-383l-747 857v-857h-305v2259h-455q-287 0 -287 -286v-192h390v-234h-390v-1547h-306v1547h-785v-1547h-307v1547h-309v234h309v182q0 258 134 394t399 136q98 0 190 -14l-23 -220h-106q-287 0 -287 -286v-192h785v182
q0 258 134 394t399 136q403 0 820 -24v-1493z" />
    <glyph glyph-name="f_h" unicode="fh" horiz-adv-x="3127" 
d="M82 1547v234h309v182q0 258 134 394t399 136q403 0 820 -24v-735q236 70 482 71q102 0 186.5 -10t150 -28t117.5 -47t88.5 -61.5t63.5 -77.5t43 -89.5t25.5 -102.5t13 -111.5t3.5 -121.5v-1156h-306v1109q0 84 -6.5 142t-24.5 111.5t-50.5 86.5t-85 58.5t-127.5 36
t-178 10.5q-207 0 -395 -75v-1479h-306v2259h-453q-287 0 -287 -286v-192h389v-234h-389v-1547h-307v1547h-309z" />
    <glyph glyph-name="f_j" unicode="fj" horiz-adv-x="2088" 
d="M698 1781h1139v-1789q0 -360 -150.5 -516t-481.5 -156q-37 0 -73 3l25 230q70 6 118 15.5t100.5 34.5t83.5 63.5t51.5 105t20.5 158.5v1617h-833v-1547h-307v1547h-309v234h309v182q0 258 134 394t399 136q98 0 190 -14l-23 -220h-106q-287 0 -287 -286v-192zM1499 2290
q0 114 39.5 158.5t145.5 44.5t145.5 -44.5t39.5 -158.5t-39 -157.5t-146 -43.5t-146 43.5t-39 157.5z" />
    <glyph glyph-name="f_k" unicode="fk" horiz-adv-x="2922" 
d="M82 1781h309v182q0 258 134 394t399 136q403 0 820 -24v-1493l727 805h358l-788 -851l834 -930h-384l-747 857v-857h-304v2259h-455q-287 0 -287 -286v-192h389v-234h-389v-1547h-307v1547h-309v234z" />
    <glyph glyph-name=".notdef" horiz-adv-x="2147" 
d="M242 0v2400h1663v-2400h-1663zM974 1200l-565 874v-1748zM1639 171l-565 875l-566 -875h1131zM1639 2228h-1131l566 -874zM1739 2074l-565 -874l565 -874v1748z" />
    <glyph glyph-name=".null" horiz-adv-x="0" 
 />
    <glyph glyph-name="nonmarkingreturn" horiz-adv-x="1111" 
 />
    <glyph glyph-name="space" unicode=" " horiz-adv-x="900" 
 />
    <glyph glyph-name="exclam" unicode="!" horiz-adv-x="859" 
d="M429 -24q-107 0 -146 43.5t-39 157.5t39.5 158.5t145.5 44.5t146 -44.5t40 -158.5t-39 -157.5t-147 -43.5zM297 679l-52 1651h369l-53 -1651h-264z" />
    <glyph glyph-name="quotedbl" unicode="&#x22;" horiz-adv-x="1215" 
d="M238 1572l-29 897h291l-28 -897h-234zM744 1572l-29 897h291l-28 -897h-234z" />
    <glyph glyph-name="numbersign" unicode="#" horiz-adv-x="1904" 
d="M219 1646h373q4 36 47.5 342l48.5 342h237l-96 -684h408q4 36 48 342l49 342h237l-97 -684h297v-232h-329l-69 -495h305v-232h-339l-97 -687h-238l98 687h-409l-97 -687h-237l97 687h-324v232h358l69 495h-340v232zM1137 919l68 495h-409l-69 -495h410z" />
    <glyph glyph-name="dollar" unicode="$" horiz-adv-x="1673" 
d="M163 288q315 -45 562 -45q94 0 164.5 9t135.5 33.5t106.5 65t65.5 106.5t24 156q0 40 -5.5 74.5t-18 63.5t-26 53.5t-37.5 46l-44 38t-54.5 33.5t-59 28t-67.5 26t-71 23.5l-77 23.5q-96 29 -163.5 52.5t-139.5 56t-119 66.5t-92 81t-70 102t-40 127t-15 160
q0 297 151.5 439.5t456.5 169.5v313h230v-307q277 -6 541 -56l-29 -248q-273 41 -465 41q-64 0 -115 -2t-112.5 -9.5t-108 -20.5t-92.5 -36.5t-75.5 -55.5t-48 -79t-18.5 -106q0 -169 83 -252q66 -65 231 -118q51 -16 175 -51q123 -34 214 -71.5t171.5 -92.5t130 -123.5
t78 -163t28.5 -214.5q0 -300 -152.5 -452.5t-455.5 -185.5v-317h-230v306q-304 3 -578 58z" />
    <glyph glyph-name="percent" unicode="%" horiz-adv-x="2787" 
d="M652 966q-103 0 -180.5 18.5t-133 58t-91.5 93.5t-56.5 135t-29 171t-8.5 212t8.5 212t29 171t56.5 135t91.5 93.5t133 58t180.5 18.5t180.5 -18.5t133 -58t91.5 -93.5t56.5 -135t29 -171t8.5 -212t-8.5 -212t-29 -171t-56.5 -135t-91.5 -93.5t-133 -58t-180.5 -18.5z
M652 1144q166 0 226 118q43 87 47 294q1 38 1 98t-0.5 98t-3.5 88t-8.5 81.5t-15 69.5t-23.5 61t-34.5 46.5t-47.5 36.5t-62.5 21t-78.5 8t-78.5 -8t-62.5 -21t-47.5 -36.5t-34 -46.5t-23.5 -61t-15 -69.5t-8 -81.5t-3.5 -88t-0.5 -98q0 -227 22 -318q33 -138 139 -175
q47 -17 112 -17zM2126 -12q-103 0 -180.5 18.5t-132.5 58t-91 93.5t-56.5 135t-29 171.5t-8.5 212.5q0 121 8.5 211.5t29 171t56.5 135t91 94t132.5 58t180.5 18.5q124 0 211.5 -28.5t143.5 -80t88.5 -139t44.5 -191t12 -249.5q0 -147 -12 -250.5t-44.5 -191t-88.5 -139.5
t-143.5 -80t-211.5 -28zM2126 167q166 0 226 118q43 87 47 294q1 38 1 98t-0.5 98t-3.5 88t-8.5 81.5t-15 69.5t-23.5 61t-34.5 46.5t-47.5 36.5t-62.5 21t-78.5 8t-78.5 -8t-62 -21t-47 -36.5t-34.5 -46.5t-23.5 -61t-14.5 -69.5t-8 -81.5t-3.5 -88t-0.5 -98
q0 -53 0.5 -88.5t2.5 -81t6 -75t11 -65.5t17.5 -59t25.5 -48.5t35 -40.5t45 -28t57.5 -18.5t71.5 -5.5zM587 -48l1368 2426h235l-1369 -2426h-234z" />
    <glyph glyph-name="ampersand" unicode="&#x26;" horiz-adv-x="2232" 
d="M2129 0h-376l-170 199q-121 -116 -285 -169.5t-388 -53.5q-386 0 -574 163.5t-188 495.5q0 96 25 180t68 149t108.5 122.5t138 101.5t165.5 86l-62 76.5t-56.5 76t-54.5 87.5t-40.5 88.5t-30.5 104t-9 110.5q0 116 31 208t84.5 153t131 101t166.5 57.5t194 17.5
q94 0 177.5 -16.5t159 -54.5t129.5 -95.5t86 -144t32 -194.5q0 -96 -28.5 -180.5t-75 -148.5t-117 -121.5t-143.5 -99.5t-165 -82l514 -583q101 179 124 468l289 -13q-22 -216 -74 -378.5t-145 -304.5zM1300 1814q0 163 -79.5 232.5t-224.5 69.5q-136 0 -220.5 -74.5
t-84.5 -234.5q0 -62 17 -118.5t54.5 -113t64.5 -89t79 -90.5q56 27 96 49t89.5 53.5t83.5 63.5t64.5 70.5t45.5 84.5t15 97zM1405 405l-593 683q-70 -41 -116.5 -72t-95.5 -75t-76.5 -89.5t-45.5 -108t-18 -137.5q0 -85 29 -153t77 -111.5t112.5 -72.5t131.5 -41t139 -12
q271 0 456 189z" />
    <glyph glyph-name="quotesingle" unicode="'" horiz-adv-x="708" 
d="M237 1572l-28 897h290l-28 -897h-234z" />
    <glyph glyph-name="parenleft" unicode="(" horiz-adv-x="1013" 
d="M712 2430l176 -146q-398 -396 -398 -1357t398 -1357l-176 -145q-123 111 -217.5 249.5t-153.5 282t-96.5 310t-52.5 325t-15 335.5t15 335.5t52.5 325t96.5 310.5t153.5 282.5t217.5 249.5z" />
    <glyph glyph-name="parenright" unicode=")" horiz-adv-x="1011" 
d="M300 -575l-175 145q97 96 170 229.5t115.5 269t69 294.5t35 290.5t8.5 273.5t-8.5 273.5t-35 290.5t-69 294.5t-115.5 269t-170 229.5l175 146q123 -111 217.5 -249.5t153.5 -282.5t96.5 -310.5t52.5 -325t15 -335.5t-15 -335.5t-52.5 -325t-96.5 -310t-153.5 -282
t-217.5 -249.5z" />
    <glyph glyph-name="asterisk" unicode="*" horiz-adv-x="1537" 
d="M996 1150l-228 389l-225 -390l-194 109l230 397h-459v217h457l-229 397l195 111l225 -393l228 393l192 -111l-230 -397h459v-217h-460l230 -399z" />
    <glyph glyph-name="plus" unicode="+" horiz-adv-x="1934" 
d="M822 1120v677h287v-677h676v-279h-676v-681h-287v681h-673v279h673z" />
    <glyph glyph-name="comma" unicode="," horiz-adv-x="797" 
d="M91 -437l213 836h354l-307 -836h-260z" />
    <glyph glyph-name="hyphen" unicode="-" horiz-adv-x="1314" 
d="M227 755v261h860v-261h-860z" />
    <glyph glyph-name="period" unicode="." horiz-adv-x="785" 
d="M392 -24q-107 0 -146 43.5t-39 157.5t39.5 158.5t145.5 44.5t146 -44.5t40 -158.5t-39 -157.5t-147 -43.5z" />
    <glyph glyph-name="slash" unicode="/" horiz-adv-x="1431" 
d="M92 -268l945 2680h279l-946 -2680h-278z" />
    <glyph glyph-name="zero" unicode="0" horiz-adv-x="2076" 
d="M1038 -24q-145 0 -259.5 24t-200.5 68.5t-148.5 118.5t-103.5 163t-65 213t-33.5 258.5t-9.5 308.5t9.5 308.5t33.5 258.5t65 213t103.5 163t148.5 118.5t200.5 68.5t259.5 24q128 0 231.5 -17.5t184.5 -54.5t143 -88.5t107 -126.5t75 -161t47.5 -199.5t25 -234
t7.5 -272.5t-7.5 -272.5t-25 -234t-47.5 -199.5t-75 -161t-107 -126.5t-143 -88.5t-184.5 -54.5t-231.5 -17.5zM1038 233q275 0 389 164q88 128 107 407q7 112 7 326q0 337 -25 486q-40 236 -171 331q-112 81 -307 81q-274 0 -388 -164q-88 -128 -106 -406q-7 -112 -7 -328
q0 -336 24 -484q39 -235 169 -331q111 -82 308 -82z" />
    <glyph glyph-name="one" unicode="1" horiz-adv-x="1194" 
d="M608 0v1936q-257 -72 -541 -111l-14 254q336 52 615 181h254v-2260h-314z" />
    <glyph glyph-name="two" unicode="2" horiz-adv-x="1838" 
d="M212 1971l-30 244q379 69 699 69q142 0 256.5 -16t214.5 -55.5t167 -101t105.5 -156t38.5 -217.5q0 -153 -43 -280t-129 -227.5t-204.5 -179t-279.5 -143.5q-113 -46 -192.5 -95t-131.5 -101t-86 -122t-52 -141t-32 -175h1149v-274h-1514q69 389 124 556q74 225 208 357
q127 125 362 224q125 53 211 103t155 114t102.5 143.5t33.5 177.5q0 82 -21 140t-63.5 98t-116.5 62.5t-171 32.5t-237 10q-231 0 -523 -47z" />
    <glyph glyph-name="three" unicode="3" horiz-adv-x="1831" 
d="M800 2284q97 0 178.5 -6t166 -22t151 -42t126.5 -69t99.5 -99.5t62.5 -136t23 -176.5q0 -394 -343 -543q81 -27 147 -70t119.5 -105t83.5 -149.5t30 -193.5q0 -158 -39 -277.5t-109.5 -198.5t-178.5 -128.5t-237 -70.5t-294 -21q-310 0 -654 66l35 249q365 -48 542 -48
q129 0 221 10.5t168 37.5t121.5 73.5t70 118.5t24.5 172q0 168 -86.5 263.5t-244.5 113.5q-166 19 -412 19h-76v236q254 6 488 41q151 22 226 114.5t75 238.5q0 66 -13.5 118t-36 87.5t-61 61t-78 39.5t-99 22t-112 10.5t-127.5 2.5q-221 0 -570 -48l-32 244q350 66 645 66z
" />
    <glyph glyph-name="four" unicode="4" horiz-adv-x="1972" 
d="M1229 0v536h-899q-131 0 -183.5 48t-52.5 135q0 110 138 288l855 1103q73 94 139.5 134t144.5 40q75 0 122 -51.5t47 -151.5v-1299h299v-246h-299v-536h-311zM1230 1865l-825 -1083h825v1083z" />
    <glyph glyph-name="five" unicode="5" horiz-adv-x="1850" 
d="M566 1987l-42 -613q119 7 199 7q130 0 229.5 -6t203 -24.5t178.5 -49.5t143 -82.5t110 -122.5t66.5 -171.5t24.5 -226.5q0 -194 -54 -333t-161.5 -224.5t-259.5 -125t-358 -39.5q-349 0 -681 68l33 249q314 -49 551 -49q114 0 195.5 7.5t152 28t115.5 55t77 89t46 130.5
t14 179q0 74 -20 133.5t-53.5 100.5t-87 71t-109.5 47.5t-132 27.5t-144 13.5t-156 3.5q-226 0 -432 -11l78 1141h1326v-273h-1052z" />
    <glyph glyph-name="six" unicode="6" horiz-adv-x="2014" 
d="M1056 1405q157 0 274.5 -18.5t220 -65.5t167.5 -125t101.5 -201t36.5 -290q0 -124 -20.5 -224.5t-58 -176t-95 -132t-126.5 -94t-158 -60.5t-184 -32.5t-209 -9.5q-138 0 -249.5 22t-194.5 62t-144.5 103t-102 137.5t-65 173t-34.5 202.5t-10 232q0 203 11.5 360t40 296
t74 240t116.5 184.5t163.5 137t219 90.5t280 52.5t348.5 15.5q59 0 217 -3l26 -254q-49 -2 -150 -4q-295 -7 -436 -30q-321 -53 -457 -240q-107 -147 -113 -388q304 40 511 40zM993 1161q-168 0 -467 -43q-7 -92 -7 -256q0 -75 4 -135.5t16.5 -128t34 -118.5t57.5 -99
t85.5 -79t120.5 -49.5t159 -18.5q208 0 326 47.5t168.5 149t50.5 279.5q0 111 -24 191t-66.5 130t-112.5 79t-151 40t-194 11z" />
    <glyph glyph-name="seven" unicode="7" horiz-adv-x="1704" 
d="M1604 1989l-906 -1989h-361l960 1989h-1207v271h1335q101 0 154.5 -41t53.5 -113q0 -51 -29 -117z" />
    <glyph glyph-name="eight" unicode="8" horiz-adv-x="2024" 
d="M1013 2284q132 0 244.5 -17t215 -57t174.5 -102t114.5 -158t42.5 -218q0 -103 -14.5 -177t-52 -143.5t-106 -126.5t-174.5 -109q91 -44 157 -93t118.5 -116.5t78.5 -156.5t26 -200q0 -109 -22.5 -199t-62 -155t-99 -114t-127.5 -80.5t-154 -51t-172 -27t-187 -7.5
q-150 0 -270.5 19t-226 64t-176.5 117t-111.5 182t-40.5 254q0 110 25.5 197t77 153t117.5 115t160 96q-185 90 -264.5 220.5t-79.5 338.5q0 122 41 217.5t112 157.5t172.5 102.5t215.5 57.5t248 17zM1013 228q92 0 163.5 9.5t139.5 35.5t112.5 68.5t71.5 113.5t27 166
q0 213 -128.5 304t-457.5 119q-104 -15 -182.5 -44.5t-138.5 -78.5t-91 -124.5t-31 -175.5q0 -94 26.5 -164.5t71.5 -113.5t112.5 -69.5t140 -36t164.5 -9.5zM1087 1296q81 16 142 35.5t115 50t88.5 71t54.5 98t20 130.5q0 88 -26.5 153t-69.5 104t-109 62t-133.5 31
t-155.5 8q-61 0 -110.5 -3.5t-101 -14t-91.5 -27t-76 -44t-59 -64.5t-36.5 -89t-13.5 -116q0 -121 52.5 -199.5t177.5 -126t332 -59.5z" />
    <glyph glyph-name="nine" unicode="9" horiz-adv-x="2013" 
d="M952 855q-157 0 -274.5 18.5t-220 65.5t-167.5 125t-101.5 201t-36.5 290q0 124 20.5 224.5t58 176t95 132t126.5 94t158 60.5t184 32.5t209 9.5q138 0 249.5 -22t194.5 -62t144.5 -103t102 -137.5t65 -173t34.5 -202.5t10 -232q0 -162 -7.5 -293.5t-24.5 -251.5
t-44.5 -214t-69.5 -177.5t-96 -144.5t-127.5 -112t-161 -84t-199 -56t-240 -33t-284.5 -10q-58 0 -216 3l-26 254q48 2 150 4q295 7 435 30q321 53 457 240q108 147 114 388q-304 -40 -511 -40zM1015 1099q167 0 466 43q8 92 8 256q0 75 -4 135.5t-16.5 128t-34 118.5
t-57.5 99t-85.5 79t-120.5 49.5t-159 18.5q-209 0 -326.5 -47.5t-168 -149t-50.5 -279.5q0 -111 24 -191t66.5 -130t112.5 -79t151 -40t194 -11z" />
    <glyph glyph-name="colon" unicode=":" horiz-adv-x="865" 
d="M433 -24q-107 0 -146 43.5t-39 157.5t39.5 158.5t145.5 44.5t145.5 -44.5t39.5 -158.5t-39 -157.5t-146 -43.5zM433 1210q-108 0 -146.5 43t-38.5 158q0 114 39.5 158.5t145.5 44.5t145.5 -44.5t39.5 -158.5q0 -115 -38.5 -158t-146.5 -43z" />
    <glyph glyph-name="semicolon" unicode=";" horiz-adv-x="884" 
d="M522 1210q-108 0 -146.5 43t-38.5 158q0 114 39.5 158.5t145.5 44.5t146 -44.5t40 -158.5q0 -115 -39 -158t-147 -43zM127 -437l213 836h354l-307 -836h-260z" />
    <glyph glyph-name="less" unicode="&#x3c;" horiz-adv-x="2012" 
d="M141 846v265l1635 731v-299l-1273 -564l1273 -565v-299z" />
    <glyph glyph-name="equal" unicode="=" horiz-adv-x="2121" 
d="M242 491v279h1636v-279h-1636zM242 1188v279h1636v-279h-1636z" />
    <glyph glyph-name="greater" unicode="&#x3e;" horiz-adv-x="2012" 
d="M236 414l1273 565l-1273 564v299l1635 -731v-265l-1635 -731v299z" />
    <glyph glyph-name="question" unicode="?" horiz-adv-x="1703" 
d="M812 679h-267l-5 208q-3 60 -3 83q0 85 24 144.5t65 91t94 50.5t111.5 29.5l117.5 22t112 35t94 60.5t65 105.5t24 164.5q0 83 -10.5 142.5t-37 106.5t-67.5 76.5t-106.5 48.5t-148.5 26.5t-200 7.5q-262 0 -521 -49l-55 255q310 67 637 67q117 0 206.5 -6.5t180.5 -24.5
t157.5 -49t125.5 -81.5t95.5 -121t57.5 -169t21 -222.5q0 -130 -25.5 -229t-69 -158.5t-100 -100.5t-119 -62.5t-125.5 -36.5l-120 -28.5t-101.5 -34t-71.5 -58.5t-29 -95zM494 177q0 114 39.5 158.5t145.5 44.5t146 -44.5t40 -158.5t-39 -157.5t-147 -43.5
q-107 0 -146 43.5t-39 157.5z" />
    <glyph glyph-name="at" unicode="@" horiz-adv-x="3039" 
d="M2821 1318q47 -190 47 -427q0 -313 -87.5 -541t-261 -370.5t-419.5 -210t-575 -67.5q-331 0 -577 67.5t-418.5 210t-259.5 370t-87 541.5q0 258 59.5 456.5t171.5 336.5t282 227t382.5 129t481.5 40q108 0 198.5 -16.5t171.5 -56t137.5 -101t89.5 -156t33 -216.5v-719
q0 -161 -12 -315q-124 -69 -302.5 -109t-373.5 -40q-345 0 -500.5 133t-155.5 407q0 227 113 362.5t347 180.5q148 28 584 50q0 198 -74.5 272t-272.5 74q-205 0 -363.5 -28t-290.5 -94.5t-217.5 -173.5t-132.5 -268t-47 -375q0 -211 45.5 -370.5t130 -267t213.5 -175.5
t286 -97t358 -29q202 0 359 29t286.5 97t214 175.5t130 267t45.5 370.5q0 195 -33 341zM1890 921v350q-333 -8 -469 -44q-148 -39 -210 -109.5t-62 -220.5q0 -90 25 -151t77 -95t121 -48t169 -14q74 0 173.5 20t166.5 51q9 119 9 261z" />
    <glyph glyph-name="A" unicode="A" horiz-adv-x="2210" 
d="M414 0h-335l760 2131q79 223 272 223t271 -223l749 -2131h-346l-220 646h-933zM717 898h762l-382 1124z" />
    <glyph glyph-name="B" unicode="B" horiz-adv-x="2140" 
d="M1000 2354q103 0 190 -5.5t183 -22.5t172 -44t146.5 -73t118 -107.5t75.5 -149.5t28 -197q0 -207 -86 -353t-258 -210q86 -29 152.5 -73.5t119.5 -114.5t81.5 -174t28.5 -239q0 -108 -25.5 -196.5t-69 -151.5t-110.5 -110.5t-141.5 -77t-170 -47.5t-189 -25t-204.5 -7
q-420 0 -768 59v2263q339 56 727 56zM1016 1073h-419v-810q213 -27 430 -27q83 0 146.5 4t128.5 15t111.5 29.5t89 49.5t68 74t40.5 103.5t15 136.5q0 107 -31 184.5t-82 123t-132.5 72.5t-166 36t-198.5 9zM597 1311h419q112 0 193.5 8.5t158 34t124 69.5t75.5 116.5
t28 172.5q0 84 -19 147.5t-58.5 105t-88 68t-121 40t-142 18.5t-166.5 5q-195 0 -403 -26v-759z" />
    <glyph glyph-name="C" unicode="C" 
d="M1678 286l29 -252q-262 -58 -556 -58q-163 0 -291.5 23t-228 67.5t-171.5 117.5t-121 165t-78.5 219t-42 270.5t-12.5 326.5q0 142 7.5 259t24.5 224.5t44.5 193t68 160t94.5 129.5t124 98.5t157 70t192.5 40.5t232.5 14q299 0 556 -57l-30 -253q-238 37 -431 37
q-377 0 -537 -157q-120 -119 -153 -365q-17 -133 -17 -394q0 -325 33 -478q48 -225 196 -327q160 -111 478 -111q198 0 432 37z" />
    <glyph glyph-name="D" unicode="D" horiz-adv-x="2234" 
d="M931 2087q-141 0 -331 -25v-1794q190 -25 331 -25q425 0 597 180q118 123 147 371q13 115 13 371q0 289 -19 415q-36 239 -171 355q-174 152 -567 152zM274 34v2264q339 56 725 56q144 0 262.5 -15t214 -43.5t171 -74.5t132 -102t97.5 -133t67.5 -160.5t42.5 -191.5
t22.5 -219t6.5 -250t-6.5 -250t-22.5 -219t-42.5 -191.5t-67.5 -160.5t-97.5 -133t-132 -102t-171 -74.5t-214 -43.5t-262.5 -15q-384 0 -725 58z" />
    <glyph glyph-name="E" unicode="E" horiz-adv-x="1825" 
d="M1634 2321v-251h-602q-99 0 -165.5 -6.5t-118.5 -25t-81.5 -45.5t-48.5 -75.5t-25 -107t-6 -146.5v-348h1001v-259h-1001v-392q0 -89 6 -147t25 -106.5t48.5 -75t81.5 -45t118.5 -25t165.5 -6.5h602v-252q-312 -14 -592 -14q-276 0 -411 30q-234 53 -317 229
q-52 109 -52 272v1279q0 83 14 152.5t37 120.5t62 91.5t78.5 67.5t98 46t108 29.5t122 16t127 7t133.5 1.5q253 0 592 -15z" />
    <glyph glyph-name="F" unicode="F" horiz-adv-x="1757" 
d="M593 0h-326v1804q0 324 212 443q137 77 413 87q61 2 155 2q291 0 593 -15v-251h-603q-99 0 -165.5 -6.5t-118.5 -25t-81.5 -45.5t-48 -75.5t-24.5 -107t-6 -146.5v-348h1000v-259h-1000v-1057z" />
    <glyph glyph-name="G" unicode="G" horiz-adv-x="2136" 
d="M1189 992v255h735v-866q0 -232 -172 -324q-130 -69 -417 -79q-72 -2 -179 -2q-163 0 -291 23t-227.5 67.5t-171.5 117.5t-121.5 165t-79 219t-42 270.5t-12.5 326.5q0 217 17.5 379.5t59.5 300t111.5 229.5t175 157t248.5 94t333 29q396 0 703 -58l-28 -254
q-286 39 -579 39q-377 0 -537 -156q-120 -117 -153 -362q-18 -134 -18 -398q0 -321 30 -471q46 -227 192 -330q161 -115 486 -115q70 0 123.5 6.5t90.5 16.5t62.5 28.5t40 36.5t22 47t9.5 53t2 61v494h-413z" />
    <glyph glyph-name="H" unicode="H" horiz-adv-x="2296" 
d="M1693 1326v1004h328v-2330h-328v1058h-1092v-1058h-326v2330h326v-1004h1092z" />
    <glyph glyph-name="I" unicode="I" horiz-adv-x="871" 
d="M272 0v2330h327v-2330h-327z" />
    <glyph glyph-name="J" unicode="J" horiz-adv-x="1327" 
d="M740 681v1649h328v-1586q0 -211 -32 -351.5t-110 -236.5t-206.5 -138t-323.5 -42q-88 0 -185.5 16.5t-167.5 44.5l28 247q140 -43 300 -43q62 0 113 11.5t100 41.5t82.5 78.5t53.5 127t20 181.5z" />
    <glyph glyph-name="K" unicode="K" horiz-adv-x="2025" 
d="M599 2330v-1080l941 1080h386l-997 -1120l1020 -1210h-406l-944 1144v-1144h-326v2330h326z" />
    <glyph glyph-name="L" unicode="L" horiz-adv-x="1631" 
d="M1599 260v-254q-309 -12 -552 -12q-277 0 -412 31q-234 53 -317 229q-51 109 -51 271v1805h327v-1665q0 -88 6 -146t24.5 -106.5t48 -75.5t81.5 -45.5t118.5 -25t165.5 -6.5h561z" />
    <glyph glyph-name="M" unicode="M" horiz-adv-x="2824" 
d="M797 2152l611 -1429l618 1425q44 102 108 154t138 52q105 0 156 -55.5t57 -175.5l110 -2123h-317l-94 1876l-590 -1414q-62 -147 -185 -147q-127 0 -188 147l-593 1411l-96 -1873h-304l114 2125q6 119 57 174t155 55q156 0 243 -202z" />
    <glyph glyph-name="N" unicode="N" horiz-adv-x="2341" 
d="M765 2144l1006 -1728v1914h295v-2119q0 -119 -52.5 -177t-147.5 -58q-90 0 -157 49.5t-133 162.5l-1005 1730v-1918h-295v2119q0 120 53 177.5t148 57.5q87 0 155.5 -49.5t132.5 -160.5z" />
    <glyph glyph-name="O" unicode="O" horiz-adv-x="2253" 
d="M1127 -24q-178 0 -314 29t-238 92.5t-170.5 156t-111 229t-60.5 301t-18 381.5t18 381.5t60.5 301t111 229t170.5 156t238 92.5t314 29t314 -29t238 -92.5t170 -156t110.5 -229t60.5 -301t18 -381.5t-18 -381.5t-60.5 -301t-110.5 -229t-170 -156t-238 -92.5t-314 -29z
M1127 245q318 0 449 172q100 130 122 405q9 118 9 343q0 330 -26 479q-41 240 -180 343q-131 98 -374 98q-317 0 -449 -170q-99 -129 -121 -401q-10 -118 -10 -349q0 -327 25 -474q40 -241 176 -345q132 -101 379 -101z" />
    <glyph glyph-name="P" unicode="P" horiz-adv-x="2033" 
d="M598 927v-927h-325v2296q339 58 726 58q116 0 210.5 -7t191.5 -27t171 -53.5t140.5 -88t109.5 -128.5t68 -177t25 -232q0 -126 -22.5 -228.5t-62 -177.5t-101.5 -131.5t-133.5 -92.5t-165 -58t-190.5 -31t-214 -9q-169 0 -428 14zM598 2069v-879q170 -19 401 -19
q119 0 207.5 12.5t163.5 44.5t122 85t73 135t26 193q0 166 -55.5 263.5t-182 144.5t-342.5 47q-211 0 -413 -27z" />
    <glyph glyph-name="Q" unicode="Q" horiz-adv-x="2253" 
d="M1127 -24q-178 0 -314 29t-238 92.5t-170.5 156t-111 229t-60.5 301t-18 381.5t18 381.5t60.5 301t111 229t170.5 156t238 92.5t314 29t314 -29t238 -92.5t170 -156t110.5 -229t60.5 -301t18 -381.5q0 -215 -18 -379t-59.5 -299.5t-109 -229t-167 -156t-233.5 -93.5
q72 -112 171.5 -182.5t279.5 -159.5l-217 -155q-171 83 -211 106q-210 118 -307 281q-22 37 -40 78zM1707 1165q0 330 -26 479q-41 240 -180 343q-131 98 -374 98q-317 0 -449 -170q-99 -129 -121 -401q-10 -118 -10 -349q0 -327 25 -474q40 -241 176 -345
q132 -101 379 -101q318 0 449 172q100 130 122 405q9 118 9 343z" />
    <glyph glyph-name="R" unicode="R" horiz-adv-x="2108" 
d="M599 0h-326v2296q341 58 726 58q116 0 209.5 -7t191 -26.5t171.5 -52t141 -86.5t110 -126.5t68 -175t25 -230.5q0 -162 -37 -284t-108.5 -202t-166 -128.5t-219.5 -73.5l558 -962h-380l-519 932h-17q-150 0 -427 15v-947zM599 2070v-860q161 -18 400 -18
q118 0 206.5 12.5t163.5 43.5t122.5 83t73.5 132t26 188q0 243 -131 345t-449 102q-203 0 -412 -28z" />
    <glyph glyph-name="S" unicode="S" horiz-adv-x="1783" 
d="M1072 2082q-67 0 -119.5 -2t-116 -10t-111 -21.5t-95 -37.5t-77.5 -57t-49 -81.5t-19 -109.5q0 -173 84 -258q66 -66 232 -120q54 -18 187 -55q127 -35 221 -73.5t176.5 -95t134 -127t81 -168.5t29.5 -221q0 -182 -54.5 -311t-164 -207.5t-261.5 -114.5t-359 -36
q-329 0 -621 60l32 262q318 -46 579 -46q96 0 169.5 9t140 34.5t109.5 67.5t68 110t25 160q0 181 -127 277q-81 62 -271 122l-77 23q-99 30 -168 54t-143.5 57.5t-123.5 68.5t-95 83t-72 105t-41.5 131.5t-15.5 164.5q0 142 34.5 249.5t99.5 181t165.5 119t224 65.5
t283.5 20q309 0 615 -59l-30 -255q-288 42 -479 42z" />
    <glyph glyph-name="T" unicode="T" horiz-adv-x="1697" 
d="M1628 2330v-263h-616v-2067h-327v2067h-617v263h1560z" />
    <glyph glyph-name="U" unicode="U" horiz-adv-x="2226" 
d="M1960 2330v-1568q0 -183 -40 -320t-110.5 -225.5t-179.5 -142.5t-234 -76t-287 -22t-287 22t-234 76t-179.5 142.5t-110.5 225.5t-40 320v1568h322v-1594q0 -255 122.5 -370.5t406.5 -115.5q285 0 407 115.5t122 370.5v1594h322z" />
    <glyph glyph-name="V" unicode="V" horiz-adv-x="2104" 
d="M2028 2330l-721 -2130q-40 -117 -101.5 -170.5t-153.5 -53.5t-154 53t-102 171l-720 2130h347l633 -1966l640 1966h332z" />
    <glyph glyph-name="W" unicode="W" horiz-adv-x="3012" 
d="M128 2330h329l407 -1955l425 1471q33 115 88.5 167t141.5 52t141.5 -52t88.5 -168l411 -1468l406 1953h319l-474 -2122q-51 -232 -238 -232q-91 0 -150.5 55.5t-93.5 175.5l-417 1465l-423 -1465q-34 -120 -93.5 -175.5t-150.5 -55.5q-186 0 -238 231z" />
    <glyph glyph-name="X" unicode="X" horiz-adv-x="2090" 
d="M1047 1461l538 869h352l-715 -1132l759 -1198h-376l-574 919l-563 -919h-359l751 1187l-723 1143h373z" />
    <glyph glyph-name="Y" unicode="Y" horiz-adv-x="1931" 
d="M1126 903v-903h-328v903l-745 1427h352l561 -1105l573 1105h338z" />
    <glyph glyph-name="Z" unicode="Z" horiz-adv-x="1836" 
d="M1641 2061l-1093 -1792h1134v-269h-1363q-93 0 -142 32.5t-49 92.5t51 144l1096 1794h-1072v267h1299q94 0 141.5 -32.5t47.5 -92.5q0 -62 -50 -144z" />
    <glyph glyph-name="bracketleft" unicode="[" horiz-adv-x="1016" 
d="M561 2172v-2476h343v-240h-629v2952h631v-236h-345z" />
    <glyph glyph-name="backslash" unicode="\" horiz-adv-x="1431" 
d="M1061 -268l-946 2680h279l945 -2680h-278z" />
    <glyph glyph-name="bracketright" unicode="]" horiz-adv-x="1016" 
d="M110 2172v236h631v-2952h-629v240h342v2476h-344z" />
    <glyph glyph-name="asciicircum" unicode="^" horiz-adv-x="1678" 
d="M699 2330h281l560 -1268h-290l-410 927l-412 -927h-290z" />
    <glyph glyph-name="underscore" unicode="_" horiz-adv-x="1670" 
d="M-10 -470v167h1690v-167h-1690z" />
    <glyph glyph-name="grave" unicode="`" horiz-adv-x="798" 
d="M454 1893l-410 501h350l302 -501h-242z" />
    <glyph glyph-name="a" unicode="a" horiz-adv-x="1861" 
d="M274 1510l-26 232q390 63 673 63q123 0 221 -14t189.5 -51t152.5 -97.5t97 -158.5t36 -229v-815q0 -160 -12 -315q-285 -149 -768 -149q-359 0 -521.5 129.5t-162.5 413.5q0 239 111 378.5t351 176.5q208 31 701 49v43q0 104 -21.5 175.5t-71.5 121t-134 72.5t-208 23
q-248 0 -607 -48zM457 525q0 -93 24.5 -154t79 -95.5t129 -48t187.5 -13.5q261 0 431 71q8 105 8 261v365q-140 -4 -206 -6.5t-185 -12.5t-196 -27q-76 -17 -125 -39t-83.5 -61t-49 -96.5t-14.5 -143.5z" />
    <glyph glyph-name="b" unicode="b" horiz-adv-x="1929" 
d="M252 440v2029h306v-722q232 58 444 58q206 0 346.5 -46.5t235 -154t137.5 -282t43 -431.5q0 -210 -30.5 -363t-91 -259.5t-160 -171t-228.5 -93t-306 -28.5q-184 0 -363.5 36.5t-320.5 112.5q-12 177 -12 315zM558 1500v-949q0 -159 9 -261q72 -34 176 -52.5t205 -18.5
q92 0 165 16t125.5 45t91 75t62.5 99t38.5 125.5t19.5 145t5 166.5q0 79 -2.5 138t-9.5 121.5t-19 107.5t-32.5 90.5t-49 76.5t-68.5 58.5t-91.5 43.5t-117 25t-146.5 9q-84 0 -183.5 -17.5t-177.5 -43.5z" />
    <glyph glyph-name="c" unicode="c" horiz-adv-x="1536" 
d="M1373 272l29 -239q-262 -57 -507 -57q-125 0 -226.5 26t-173.5 71t-126 114t-87 145t-53 174.5t-27.5 193.5t-7.5 209q0 131 9.5 233.5t32.5 198.5t61.5 166t98.5 128.5t141.5 94.5t190.5 55.5t247 19.5q221 0 424 -56l-25 -230q-181 33 -302 33q-78 0 -141.5 -4.5
t-116 -16.5t-93 -27t-72.5 -40.5t-54.5 -53t-39 -68.5t-26 -82.5t-15 -100t-7.5 -115.5t-2 -135q0 -263 28 -378q40 -159 161 -228q125 -70 376 -70q112 0 303 39z" />
    <glyph glyph-name="d" unicode="d" horiz-adv-x="1929" 
d="M1367 1747v722h305v-2029q0 -160 -12 -315q-140 -76 -319.5 -112.5t-363.5 -36.5q-177 0 -306.5 28.5t-228.5 93t-159.5 171t-91 259.5t-30.5 363q0 257 43 431.5t137.5 282t235 154t346.5 46.5q210 0 444 -58zM1367 1500q-77 26 -177 43.5t-184 17.5q-81 0 -146.5 -9
t-117 -25t-91.5 -43.5t-68.5 -58.5t-49 -76.5t-32.5 -90.5t-19 -107.5t-9.5 -121.5t-2.5 -138q0 -94 5 -166.5t19.5 -145t38.5 -125.5t62.5 -99t91 -75t125.5 -45t165 -16q101 0 205 18.5t176 52.5q9 118 9 261v949z" />
    <glyph glyph-name="e" unicode="e" horiz-adv-x="1927" 
d="M936 -24q-173 0 -303.5 45.5t-214 124t-135 196.5t-72 250.5t-20.5 298.5q0 248 40 416.5t132.5 282t242 164.5t370.5 51q183 0 318.5 -39t222 -107.5t138.5 -175.5t72.5 -229t20.5 -282q0 -91 -5 -152q-149 -26 -416.5 -52t-458.5 -34l-372 -16q20 -268 140.5 -380
t395.5 -112q268 0 634 48l27 -236q-125 -19 -213.5 -30.5t-236.5 -21.5t-307 -10zM489 937l418 19q294 14 529 45q4 40 4 106q0 227 -107 343t-357 116q-122 0 -209 -28.5t-141 -78t-84.5 -131.5t-41.5 -172.5t-11 -218.5z" />
    <glyph glyph-name="f" unicode="f" horiz-adv-x="1165" 
d="M698 1973v-192h389v-234h-389v-1547h-307v1547h-309v234h309v182q0 258 134 394t399 136q98 0 190 -14l-23 -220h-106q-287 0 -287 -286z" />
    <glyph glyph-name="g" unicode="g" horiz-adv-x="1944" 
d="M299 -613l26 232q360 -52 624 -52q125 0 208.5 23t134 72.5t72 121t21.5 176.5v114q-234 -58 -445 -58q-204 0 -343.5 44.5t-235 149t-139 276t-43.5 424.5q0 170 20.5 302t65 232t109 168.5t157.5 111.5t206 62t258 19q184 0 363.5 -36.5t319.5 -112.5q12 -155 12 -315
v-1471q0 -131 -36 -229t-97 -158.5t-152 -97.5t-189 -51t-221 -14q-294 0 -696 67zM995 1562q-105 0 -185.5 -20t-136 -61.5t-92 -95.5t-57 -131t-28.5 -157.5t-8 -186.5q0 -86 3.5 -150t13 -130t27 -112.5t45 -91t67.5 -73t94 -51t125 -32.5t160 -10q85 0 184.5 17.5
t177.5 43.5v909q0 142 -9 261q-72 34 -176 52.5t-205 18.5z" />
    <glyph glyph-name="h" unicode="h" horiz-adv-x="1945" 
d="M1735 0h-306v1109q0 84 -6.5 142t-24.5 111.5t-50.5 86.5t-85 58.5t-127.5 36t-178 10.5q-208 0 -395 -75v-1479h-306v2469h306v-735q235 70 482 71q102 0 186.5 -10t150 -28t117.5 -47t88.5 -61.5t63.5 -77.5t43 -89.5t25.5 -102.5t13 -111.5t3.5 -121.5v-1156z" />
    <glyph glyph-name="i" unicode="i" horiz-adv-x="801" 
d="M400 2089q-107 0 -146 43.5t-39 157.5t39.5 158.5t145.5 44.5t146 -44.5t40 -158.5t-39 -157.5t-147 -43.5zM247 0v1781h308v-1781h-308z" />
    <glyph glyph-name="j" unicode="j" horiz-adv-x="810" 
d="M252 -70v1851h307v-1789q0 -360 -150.5 -516t-482.5 -156q-35 0 -73 3l25 230q70 6 118 15.5t100.5 34.5t83.5 63.5t51.5 105t20.5 158.5zM405 2089q-107 0 -146 43.5t-39 157.5t39.5 158.5t145.5 44.5t146 -44.5t40 -158.5t-39 -157.5t-147 -43.5z" />
    <glyph glyph-name="k" unicode="k" horiz-adv-x="1738" 
d="M561 2469v-1493l727 805h357l-788 -851l834 -930h-383l-747 857v-857h-305v2469h305z" />
    <glyph glyph-name="l" unicode="l" horiz-adv-x="786" 
d="M217 461v2008h306v-1991q0 -133 33 -233.5t104 -193.5l-263 -130q-91 103 -135.5 231.5t-44.5 308.5z" />
    <glyph glyph-name="m" unicode="m" horiz-adv-x="2953" 
d="M558 1221v-1221h-306v1338q0 138 12 315q148 67 347 109.5t390 42.5q302 0 452 -129q284 129 617 129q114 0 206 -18t156.5 -49t112 -79.5t76 -101t45.5 -122.5t23 -136t6 -149v-1150h-306v1108q0 121 -17 200t-61 137.5t-123.5 84.5t-201.5 26q-88 0 -197 -25.5
t-199 -74.5q36 -118 36 -306v-1150h-306v1108q0 121 -17 200t-61 137.5t-123.5 84.5t-201.5 26q-78 0 -181 -21.5t-169 -52.5q-9 -100 -9 -261z" />
    <glyph glyph-name="n" unicode="n" horiz-adv-x="1994" 
d="M557 1221v-1221h-306v1338q0 160 12 315q330 152 804 152q130 0 232 -18t172.5 -47.5t121.5 -78t80 -99.5t46 -123t22 -137t5 -152v-1150h-306v1107q0 72 -4.5 124t-16.5 102t-33.5 83t-55.5 62t-84 45t-116.5 25t-154.5 9q-102 0 -221 -21t-188 -54q-9 -100 -9 -261z
" />
    <glyph glyph-name="o" unicode="o" horiz-adv-x="1966" 
d="M983 -24q-220 0 -367.5 48.5t-242.5 159.5t-136 282t-41 425t41 424.5t136 281.5t243 159.5t367 48.5t367.5 -50t243 -162t135.5 -282t41 -420t-41 -420t-135.5 -282.5t-243 -162.5t-367.5 -50zM983 226q188 0 290 61t146 202.5t44 401.5q0 156 -15 265t-47 188
t-89.5 124t-136.5 66t-192 21q-142 0 -229.5 -28.5t-145.5 -105t-80.5 -202t-22.5 -328.5t22.5 -328.5t80.5 -202.5t145.5 -105.5t229.5 -28.5z" />
    <glyph glyph-name="p" unicode="p" horiz-adv-x="1930" 
d="M558 34v-690h-305v1997q0 160 12 315q140 76 319.5 112.5t363.5 36.5q177 0 306.5 -28.5t228.5 -93t159.5 -171t91 -259.5t30.5 -363q0 -258 -42.5 -432t-137 -281.5t-235 -154t-346.5 -46.5q-211 0 -445 58zM558 281q78 -26 177.5 -43.5t184.5 -17.5q80 0 146 9
t117.5 25t91 43.5t68.5 58.5t49 76.5t32.5 90.5t19.5 107.5t9.5 121.5t2.5 138q0 94 -5 166.5t-19.5 145t-38.5 125.5t-62.5 99t-91.5 75t-126 45t-165 16q-101 0 -205 -18.5t-176 -52.5q-9 -118 -9 -261v-949z" />
    <glyph glyph-name="q" unicode="q" horiz-adv-x="1930" 
d="M1674 1341v-1997h-305v690q-234 -58 -444 -58q-206 0 -346.5 46.5t-235 154t-137.5 282t-43 431.5q0 210 30.5 363t91 259.5t159.5 171t228.5 93t306.5 28.5q184 0 363.5 -36.5t319.5 -112.5q12 -155 12 -315zM1369 1230q0 142 -9 261q-72 34 -176 52.5t-205 18.5
q-92 0 -165 -16t-125.5 -45t-91 -75t-62.5 -99t-38.5 -125.5t-19.5 -145t-5 -166.5q0 -79 2.5 -138t9.5 -121.5t19 -107.5t32.5 -90.5t49 -76.5t68.5 -58.5t91.5 -43.5t117 -25t146.5 -9q84 0 184 17.5t177 43.5v949z" />
    <glyph glyph-name="r" unicode="r" horiz-adv-x="1176" 
d="M556 0h-306v1341q0 160 12 315q141 76 320.5 112.5t363.5 36.5q93 0 166 -7l-25 -251q-59 7 -141 7q-101 0 -205.5 -18.5t-176.5 -52.5q-8 -105 -8 -261v-1222z" />
    <glyph glyph-name="s" unicode="s" horiz-adv-x="1599" 
d="M930 1557q-50 0 -81 -0.5t-83 -5t-86 -12.5t-74.5 -24t-64 -39t-40 -58t-16.5 -80q0 -39 10 -72t23.5 -57t41.5 -46t49 -35t63 -29t66.5 -24t75 -23t75.5 -23q224 -72 313 -119q150 -79 204 -204q39 -90 39 -218q0 -117 -34.5 -207t-94.5 -147t-148.5 -93t-188 -50.5
t-221.5 -14.5q-311 0 -589 64l30 235q259 -46 465 -46h64t66.5 2.5t71 6.5t66.5 12t65 20t53 31t45 42.5t27 57t11 73.5q0 41 -9 75.5t-23 59.5t-40 46.5t-50 36t-63.5 29.5t-71 24.5l-81.5 24.5l-58 17q-198 60 -270 92q-177 79 -242 212q-46 94 -46 225q0 112 31 197
t85 140t134 89.5t170 48.5t202 14q313 0 604 -64l-29 -230q-250 46 -446 46z" />
    <glyph glyph-name="t" unicode="t" horiz-adv-x="1207" 
d="M395 2234l307 50v-503h384v-234h-384v-1063q0 -157 61 -211.5t212 -54.5q51 0 114 5l24 -225q-128 -22 -227 -22q-257 0 -374 114.5t-117 360.5v1096h-314v234h314v453z" />
    <glyph glyph-name="u" unicode="u" horiz-adv-x="1986" 
d="M242 631v1150h306v-1107q0 -72 4.5 -124t16 -102t33 -83t56 -62t83.5 -45t116 -25t154 -9q101 0 218.5 21t187.5 54q9 117 9 261v1221h305v-1338q0 -161 -12 -315q-330 -152 -800 -152q-129 0 -231 18t-172.5 47.5t-121 78t-80 99.5t-46 123t-21.5 137t-5 152z" />
    <glyph glyph-name="v" unicode="v" horiz-adv-x="1872" 
d="M1779 1781l-600 -1598q-40 -106 -99 -156.5t-145 -50.5q-88 0 -148 50.5t-99 156.5l-594 1598h325l522 -1472l527 1472h311z" />
    <glyph glyph-name="w" unicode="w" horiz-adv-x="2798" 
d="M128 1781h314l356 -1469l397 1130q36 102 85.5 150t126.5 48q79 0 130.5 -48t85.5 -150l382 -1127l363 1466h302l-429 -1596q-56 -209 -227 -209q-85 0 -140.5 51t-92.5 158l-379 1081l-389 -1080q-38 -108 -93 -159t-139 -51q-175 0 -231 211z" />
    <glyph glyph-name="x" unicode="x" horiz-adv-x="1863" 
d="M940 1155l417 626h331l-587 -850l642 -931h-360l-465 693l-460 -693h-338l637 924l-588 857h353z" />
    <glyph glyph-name="y" unicode="y" horiz-adv-x="1754" 
d="M939 511l417 1270h311l-829 -2437h-311l273 779l-720 1658h326z" />
    <glyph glyph-name="z" unicode="z" horiz-adv-x="1786" 
d="M1572 1568l-987 -1317h978v-251h-1288q-60 0 -94.5 27t-34.5 73q0 55 46 115l990 1325h-961v241h1267q60 0 94.5 -27t34.5 -73q0 -53 -45 -113z" />
    <glyph glyph-name="braceleft" unicode="{" horiz-adv-x="1023" 
d="M654 328v-175q0 -78 6 -137.5t24 -118t48.5 -98.5t81.5 -69t121 -40l-25 -214q-106 13 -185.5 37t-148 70t-111.5 114.5t-67 170.5t-24 237q0 151 -6.5 256.5t-23 193t-45.5 141.5t-73 86.5t-107 43.5v215q63 10 107 43t73 86.5t45.5 141.5t23 193.5t6.5 256.5
q0 135 24 236.5t67 170t111.5 114.5t148 70t185.5 37l25 -213q-70 -11 -121 -40.5t-81.5 -69.5t-48.5 -99t-24 -118t-6 -137v-175q0 -56 -1 -96.5t-6 -99.5t-14 -102.5t-26 -95t-41 -88.5t-60.5 -70t-82.5 -53q61 -29 105 -83t67.5 -113t37.5 -137t17.5 -138t3.5 -134z" />
    <glyph glyph-name="bar" unicode="|" horiz-adv-x="815" 
d="M274 -656v3125h267v-3125h-267z" />
    <glyph glyph-name="braceright" unicode="}" horiz-adv-x="1024" 
d="M905 1041v-215q-63 -11 -106.5 -43.5t-73 -86.5t-46 -141.5t-23 -193t-6.5 -256.5q0 -135 -24 -237t-67 -170.5t-111.5 -114.5t-148 -70t-185.5 -37l-25 214q70 11 121.5 40t82 69t48 98.5t23.5 117.5t6 138v175q0 74 3.5 134t17.5 138t38 137t68 113t105 83
q-46 20 -83 53t-61 70t-41 88.5t-26 95t-14 102.5t-6 99t-1 97v175q0 78 -6 137t-23.5 118t-48 99t-82 69.5t-121.5 40.5l25 213q106 -13 185.5 -37t148 -70t111.5 -114.5t67 -170t24 -236.5q0 -375 52 -535.5t203 -185.5z" />
    <glyph glyph-name="asciitilde" unicode="~" horiz-adv-x="2048" 
d="M1584 1336h275q-25 -273 -148 -418.5t-300 -145.5q-106 0 -199 30.5t-158 73.5t-123 86t-120.5 73.5t-124.5 30.5q-89 0 -142 -68.5t-79 -212.5h-275q24 273 147 418.5t300 145.5q106 0 199 -30.5t158 -73.5t123.5 -86.5t121 -74t124.5 -30.5q88 0 141 68.5t80 213.5z
" />
    <glyph glyph-name="uni00A0" unicode="&#xa0;" horiz-adv-x="900" 
 />
    <glyph glyph-name="exclamdown" unicode="&#xa1;" horiz-adv-x="833" 
d="M416 1379q-106 0 -145.5 44.5t-39.5 158.5t39 157.5t146 43.5q108 0 146.5 -43.5t38.5 -157.5t-39.5 -158.5t-145.5 -44.5zM232 -571l53 1651h263l53 -1651h-369z" />
    <glyph glyph-name="cent" unicode="&#xa2;" horiz-adv-x="1438" 
d="M1302 530l28 -231q-204 -45 -390 -54v-306h-216v310q-100 11 -181.5 43.5t-139.5 79t-101.5 112.5t-70.5 137.5t-43.5 161.5t-22.5 176t-6 189q0 159 14 277.5t51.5 223.5t100.5 175t162.5 117t236.5 65v315h216v-303q193 -2 387 -55l-24 -223q-189 33 -293 33
q-76 0 -137.5 -4.5t-112.5 -16t-90 -26t-70 -39.5t-53 -51.5t-37.5 -67t-25 -80.5t-15 -97t-7.5 -112t-2 -131q0 -257 28 -368q39 -155 160 -221t361 -66q108 0 293 37z" />
    <glyph glyph-name="sterling" unicode="&#xa3;" horiz-adv-x="1940" 
d="M488 1021h-338v241h302q-30 206 -30 407q0 144 41.5 252.5t112 176.5t174.5 110.5t216.5 59t250.5 16.5q104 0 188 -16.5t153 -51t121 -74t116 -99.5l-162 -190q-96 81 -191.5 121.5t-212.5 40.5q-142 0 -236 -24.5t-149 -79.5t-77 -131.5t-22 -190.5q0 -109 29 -327h516
v-241h-487q11 -130 11 -224q0 -238 -127 -526h530q271 0 532 38l29 -250q-126 -26 -329 -42.5t-415 -16.5h-558q-81 0 -121 34.5t-40 90.5q0 29 20 75.5t48.5 103.5t56.5 124t48 157.5t20 183.5q0 99 -20 252z" />
    <glyph glyph-name="currency" unicode="&#xa4;" horiz-adv-x="2058" 
d="M1630 701l240 -231l-188 -188l-237 240q-193 -130 -417 -130q-231 0 -420 131l-237 -241l-184 188l240 234q-130 185 -130 410q0 230 131 419l-241 237l184 185l241 -240q189 130 416 130q231 0 418 -127l236 236l188 -184l-240 -233q136 -190 136 -423q0 -227 -136 -413
zM1028 655q121 0 227.5 60t172 167t65.5 234q0 191 -135 328t-330 137q-123 0 -229 -61t-169 -168.5t-63 -235.5q0 -123 59.5 -228.5t166.5 -169t235 -63.5z" />
    <glyph glyph-name="yen" unicode="&#xa5;" horiz-adv-x="1805" 
d="M434 2260l470 -1053l480 1053h315l-519 -1122h283v-209h-380l-24 -53v-167h404v-206h-404v-503h-318v503h-398v206h398v167l-25 53h-373v209h278l-514 1122h327z" />
    <glyph glyph-name="brokenbar" unicode="&#xa6;" horiz-adv-x="751" 
d="M242 -471v1076h267v-1076h-267zM242 1209v1075h267v-1075h-267z" />
    <glyph glyph-name="section" unicode="&#xa7;" horiz-adv-x="1821" 
d="M1067 1467l121.5 -50.5t118 -56.5t115.5 -67.5t98 -79.5t82 -96t51 -113.5t20 -135.5q0 -262 -322 -449q196 -167 196 -372q0 -100 -30.5 -182.5t-86 -139.5t-126 -98.5t-156 -65t-170.5 -34.5t-176 -11q-313 0 -605 64l32 239q287 -50 515 -50q50 0 80 0.5t87.5 5.5
t94.5 14.5t84 29t75 46.5t47.5 70t19.5 98q0 28 -5.5 53.5t-19.5 49t-27 42.5t-39.5 39.5l-44.5 34.5t-55 33.5l-57.5 30t-66.5 29.5l-66.5 27.5l-71.5 28.5q-228 92 -334 156q-233 143 -281 353q-14 60 -14 127q0 277 311 450q-165 146 -165 336q0 238 174.5 384.5
t479.5 146.5q321 0 604 -64l-30 -232q-269 50 -517 50q-190 0 -297 -68.5t-107 -194.5q0 -40 14.5 -76.5t35.5 -65t60.5 -58.5t72 -50t89 -46.5t92 -41zM1141 556q113 59 178 127t65 157q0 107 -77.5 188.5t-268.5 166.5q-49 22 -175.5 69t-200.5 85q-229 -114 -229 -286
q0 -108 65.5 -189.5t237.5 -159.5q65 -29 196.5 -75.5t208.5 -82.5z" />
    <glyph glyph-name="dieresis" unicode="&#xa8;" horiz-adv-x="1332" 
d="M372 1946q-74 0 -125.5 50.5t-51.5 123.5t51.5 124t125.5 51q73 0 122 -50.5t49 -124.5t-49 -124t-122 -50zM965 1946q-74 0 -124.5 50.5t-50.5 123.5q0 74 51 124.5t124 50.5t122.5 -50.5t49.5 -124.5t-49.5 -124t-122.5 -50z" />
    <glyph glyph-name="copyright" unicode="&#xa9;" horiz-adv-x="2718" 
d="M1723 921h222q-13 -142 -94 -251.5t-205.5 -166.5t-270.5 -57q-151 0 -270 56t-193.5 154.5t-113 228.5t-38.5 284q0 109 24.5 213t76 195t123 159.5t172.5 108t219 39.5q77 0 151.5 -16t145 -51t127 -85t95.5 -123t51 -160h-222q-20 118 -114.5 182.5t-233.5 64.5
q-168 0 -273.5 -141t-105.5 -386q0 -248 101 -386.5t278 -138.5q131 0 228.5 75t119.5 202zM1359 2354q163 0 317 -42t284.5 -118t240 -185t186 -239t119 -284t42.5 -317t-42.5 -317.5t-119 -285.5t-186 -241t-240 -187t-284.5 -119.5t-317 -42.5q-244 0 -464 94t-379 254
t-252.5 380.5t-93.5 464.5q0 163 42.5 317t118.5 284t185.5 239t240 185t285 118t317.5 42zM1359 2159q-204 0 -386 -77t-313 -208.5t-207.5 -315t-76.5 -389.5q0 -208 76.5 -393.5t207.5 -318t313 -209.5t386 -77q203 0 385 77t313 209.5t207.5 318t76.5 393.5
q0 206 -76.5 389.5t-207.5 315t-313 208.5t-385 77z" />
    <glyph glyph-name="ordfeminine" unicode="&#xaa;" horiz-adv-x="1401" 
d="M257 2088l-18 163q260 44 459 44q84 0 151 -9.5t129 -34.5t103.5 -66t66 -107.5t24.5 -154.5v-545q0 -102 -8 -212q-196 -103 -523 -103q-244 0 -354.5 88t-110.5 280q0 324 317 374q133 21 461 33v26q0 136 -63.5 197t-220.5 61q-169 0 -413 -34zM396 1435
q0 -119 63 -162.5t209 -43.5q167 0 283 47q3 156 3 172v241q-287 -11 -382 -31q-97 -21 -136.5 -67.5t-39.5 -155.5z" />
    <glyph glyph-name="guillemotleft" unicode="&#xab;" horiz-adv-x="1700" 
d="M452 862l430 -669h-302l-474 669l474 670h302zM1116 862l430 -669h-303l-473 669l473 670h302z" />
    <glyph glyph-name="logicalnot" unicode="&#xac;" horiz-adv-x="2100" 
d="M1840 1310v-989h-300v710h-1336v279h1636z" />
    <glyph glyph-name="uni00AD" unicode="&#xad;" horiz-adv-x="1314" 
d="M227 755v261h860v-261h-860z" />
    <glyph glyph-name="registered" unicode="&#xae;" horiz-adv-x="1759" 
d="M757 1569v-336h-154v826h294q169 0 246 -61.5t77 -181.5q0 -86 -42.5 -144t-122.5 -80l177 -359h-173l-162 336h-140zM157 1633q0 148 57 281.5t153.5 230t230.5 153t282 56.5t281.5 -56.5t230 -152.5t153.5 -230t57 -282t-57 -282t-153.5 -231t-230 -154t-281.5 -57
t-282 57t-230.5 154t-153.5 231t-57 282zM1455 1633q0 161 -76 294.5t-208 209.5t-291 76q-119 0 -226 -45t-183.5 -122t-121.5 -184.5t-45 -228.5q0 -163 76 -297t208.5 -210.5t291.5 -76.5t291 76.5t208 210.5t76 297zM877 1930h-120v-232h124q97 0 142.5 28.5t45.5 89.5
q0 62 -46 88t-146 26z" />
    <glyph glyph-name="macron" unicode="&#xaf;" horiz-adv-x="1415" 
d="M231 2009v209h952v-209h-952z" />
    <glyph glyph-name="degree" unicode="&#xb0;" horiz-adv-x="1282" 
d="M641 1377q-133 0 -245.5 65.5t-178 178t-65.5 245.5q0 132 65.5 244.5t178 178t245.5 65.5q132 0 245 -65.5t178.5 -178t65.5 -244.5q0 -133 -65.5 -245.5t-178.5 -178t-245 -65.5zM641 1575q122 0 206.5 84.5t84.5 206.5q0 121 -85 205.5t-206 84.5t-206 -84.5
t-85 -205.5q0 -122 84.5 -206.5t206.5 -84.5z" />
    <glyph glyph-name="plusminus" unicode="&#xb1;" horiz-adv-x="1994" 
d="M849 1356v576h296v-576h670v-276h-670v-583h-296v583h-670v276h670zM179 25v279h1636v-279h-1636z" />
    <glyph glyph-name="twosuperior" unicode="&#xb2;" horiz-adv-x="1126" 
d="M134 2510l-21 171q245 44 429 44q109 0 192.5 -16.5t149 -54t100.5 -104t35 -159.5q0 -180 -100 -299t-296 -199q-75 -30 -124.5 -63t-79.5 -76t-44.5 -88.5t-25.5 -114.5h669v-189h-927l27 143t27 119.5t31.5 103.5t38.5 85t49.5 74.5t63 61t81.5 56.5t102 49
q70 30 118.5 58t87 63.5t57 80t18.5 99.5q0 108 -73 146.5t-262 38.5q-124 0 -323 -30z" />
    <glyph glyph-name="threesuperior" unicode="&#xb3;" horiz-adv-x="1120" 
d="M493 2727q69 0 126 -5.5t115 -18.5t101 -38t78 -61t53 -90t18 -123q0 -220 -182 -316q93 -40 148.5 -115.5t55.5 -188.5q0 -119 -35.5 -202t-105.5 -130t-162 -68t-218 -21q-184 0 -404 43l25 172q240 -30 333 -30q179 0 256.5 47t77.5 179q0 91 -46.5 143.5t-129.5 62.5
q-86 11 -245 11h-58v166q176 4 302 24q79 12 119 62.5t40 129.5q0 50 -14.5 85t-37 54.5t-62.5 30t-77.5 13t-95.5 2.5q-130 0 -351 -31l-22 171q228 42 398 42z" />
    <glyph glyph-name="acute" unicode="&#xb4;" horiz-adv-x="799" 
d="M103 1893l302 501h350l-410 -501h-242z" />
    <glyph glyph-name="mu" unicode="&#xb5;" horiz-adv-x="2043" 
d="M301 -656v2437h286v-1116q0 -122 39 -216t121 -150.5t197 -56.5q113 0 200.5 53.5t142.5 150.5t83.5 228.5t28.5 290.5v816h288v-1138q0 -57 0.5 -84.5t2 -75t5.5 -72t11.5 -60.5t19 -56t27.5 -43t39 -37.5t52 -24.5v-214q-79 0 -143 20.5t-106.5 54.5t-75 83t-50.5 99.5
t-30 111.5h-2q-75 -180 -203.5 -274.5t-289.5 -94.5q-108 0 -194.5 40t-163.5 126v-798h-285z" />
    <glyph glyph-name="paragraph" unicode="&#xb6;" horiz-adv-x="2092" 
d="M1131 2113v-2626h-251v1485q-170 2 -314.5 56t-243.5 144t-155 211t-56 257q0 172 58 303.5t166.5 216t261.5 127.5t346 43h869v-2843h-250v2626h-431z" />
    <glyph glyph-name="periodcentered" unicode="&#xb7;" horiz-adv-x="809" 
d="M404 753q-107 0 -146 43.5t-39 157.5t39.5 158.5t145.5 44.5t146 -44.5t40 -158.5t-39 -157.5t-147 -43.5z" />
    <glyph glyph-name="cedilla" unicode="&#xb8;" horiz-adv-x="731" 
d="M139 -279l166 279h189l-115 -180q107 -6 183 -68t76 -164q0 -72 -30 -126.5t-81.5 -85.5t-115 -46.5t-136.5 -15.5q-143 0 -251 62l53 139q101 -49 198 -49q60 0 102.5 25.5t42.5 82.5q0 40 -29.5 70t-75 46t-90.5 23.5t-86 7.5z" />
    <glyph glyph-name="onesuperior" unicode="&#xb9;" horiz-adv-x="751" 
d="M358 1367v1123q-152 -39 -315 -61l-10 177q206 31 374 108h173v-1347h-222z" />
    <glyph glyph-name="ordmasculine" unicode="&#xba;" horiz-adv-x="1453" 
d="M726 1063q-294 0 -414.5 139.5t-120.5 476.5t120.5 476.5t414.5 139.5t415 -141t121 -475q0 -333 -121 -474.5t-415 -141.5zM726 1238q180 0 246.5 93.5t66.5 347.5t-66 347.5t-247 93.5q-92 0 -149 -19t-95 -70t-52.5 -134.5t-14.5 -217.5t14.5 -217.5t52.5 -134.5
t95 -70t149 -19z" />
    <glyph glyph-name="guillemotright" unicode="&#xbb;" horiz-adv-x="1699" 
d="M930 862l-474 -669h-302l430 669l-430 670h302zM1593 862l-473 -669h-303l431 669l-431 670h303z" />
    <glyph glyph-name="onequarter" unicode="&#xbc;" horiz-adv-x="2456" 
d="M1917 0v313h-504q-87 0 -122 32t-35 89q0 68 84 177l499 644q45 58 87.5 82.5t93.5 24.5q53 0 86 -33.5t33 -99.5v-744h175v-172h-175v-313h-222zM488 2330h173v-1349h-222v1124q-160 -40 -315 -60l-11 176q212 33 375 109zM1975 2378l-1369 -2426h-234l1368 2426h235z
M1490 485h428v563z" />
    <glyph glyph-name="onehalf" unicode="&#xbd;" horiz-adv-x="2727" 
d="M1676 1148l-21 170q237 44 429 44q109 0 192 -16.5t149.5 -53.5t101 -103t34.5 -160q0 -180 -99.5 -299t-296.5 -199q-75 -31 -124 -64t-79 -75.5t-45 -88t-25 -114.5h669v-189h-927l24 128t23.5 109.5t26.5 96t31 80.5t39 71.5t48 59.5t61 54.5t75 46.5t92 45
q143 61 211.5 128t68.5 173q0 109 -72.5 147.5t-262.5 38.5q-135 0 -323 -30zM119 2221q212 33 375 109h172v-1349h-222v1124q-157 -40 -315 -60zM1746 2378h235l-1368 -2426h-234z" />
    <glyph glyph-name="threequarters" unicode="&#xbe;" horiz-adv-x="2701" 
d="M555 2342q84 0 150.5 -7.5t132.5 -29.5t110 -58t71 -97.5t27 -143.5q0 -219 -181 -316q92 -39 147.5 -114.5t55.5 -189.5q0 -119 -35 -201.5t-105 -130t-162.5 -68t-218.5 -20.5q-188 0 -403 42l24 173q234 -31 334 -31q178 0 255.5 47t77.5 179q0 92 -46 144.5
t-129 62.5q-88 11 -218 11q-12 0 -40.5 -0.5t-44.5 -0.5v167q171 3 302 23q79 12 119 62.5t40 129.5q0 50 -14.5 85t-37 54.5t-62.5 30t-77.5 13t-96.5 2.5q-138 0 -350 -30l-23 170q219 42 398 42zM2162 0v313h-505q-86 0 -121.5 32t-35.5 89q0 69 84 177l500 644
q44 58 86.5 82.5t94.5 24.5q53 0 86 -33.5t33 -99.5v-744h175v-172h-175v-313h-222zM2219 2378l-1368 -2426h-234l1367 2426h235zM1734 485h428v563z" />
    <glyph glyph-name="questiondown" unicode="&#xbf;" horiz-adv-x="1704" 
d="M891 1080h267l6 -208q2 -40 2 -83q0 -85 -24 -144.5t-65 -91t-94 -50.5t-112 -29.5l-117.5 -22t-111.5 -35t-94 -60.5t-65 -105.5t-24 -164.5q0 -83 10.5 -142.5t37 -106.5t67.5 -76.5t106.5 -48.5t148.5 -26.5t200 -7.5q262 0 522 49l54 -255q-309 -67 -636 -67
q-102 0 -182 5t-162.5 17.5t-145 35.5t-121.5 58t-100 86t-72.5 118t-46.5 156t-15 198q0 130 25.5 229t69 158.5t100 100.5t119 62.5t125.5 36.5l120 28.5t101.5 34t71.5 58.5t29 95zM839 1582q0 114 39 157.5t146 43.5t146 -43.5t39 -157.5t-39.5 -158.5t-145.5 -44.5
t-145.5 44.5t-39.5 158.5z" />
    <glyph glyph-name="Agrave" unicode="&#xc0;" horiz-adv-x="2210" 
d="M414 0h-335l760 2131q80 223 272 223q193 0 271 -223l749 -2131h-347l-220 646h-932zM986 2574l-439 405h373l324 -405h-258zM717 898h762l-382 1124z" />
    <glyph glyph-name="Aacute" unicode="&#xc1;" horiz-adv-x="2211" 
d="M414 0h-335l760 2131q79 223 272 223q194 0 272 -223l749 -2131h-347l-220 646h-933zM978 2554l324 405h373l-438 -405h-259zM718 898h762l-382 1124z" />
    <glyph glyph-name="Acircumflex" unicode="&#xc2;" horiz-adv-x="2210" 
d="M414 0h-335l760 2131q80 223 272 223q193 0 271 -223l749 -2131h-347l-220 646h-932zM984 2959h234l370 -405h-260l-223 258l-227 -258h-256zM717 898h762l-382 1124z" />
    <glyph glyph-name="Atilde" unicode="&#xc3;" horiz-adv-x="2211" 
d="M1355 2926h178q-13 -166 -86.5 -256t-168.5 -90q-54 0 -97.5 17t-70.5 41t-50 48.5t-47.5 41.5t-50.5 17q-82 0 -106 -158h-179q14 166 87.5 256.5t168.5 90.5q54 0 97 -17t70.5 -41.5t50.5 -49t47.5 -41.5t50.5 -17q41 0 67 38t39 120zM79 0l760 2131q79 223 272 223
t271 -223l750 -2131h-347l-220 646h-933l-218 -646h-335zM1480 898l-382 1124l-380 -1124h762z" />
    <glyph glyph-name="Adieresis" unicode="&#xc4;" horiz-adv-x="2210" 
d="M414 0h-335l760 2131q80 223 272 223q193 0 271 -223l749 -2131h-347l-220 646h-932zM812 2577q-74 0 -125.5 50.5t-51.5 123.5t51.5 124t125.5 51q73 0 122 -50.5t49 -124.5t-49 -124t-122 -50zM1405 2577q-74 0 -124.5 50.5t-50.5 123.5t51 124t124 51t122.5 -50.5
t49.5 -124.5t-49.5 -124t-122.5 -50zM717 898h762l-382 1124z" />
    <glyph glyph-name="Aring" unicode="&#xc5;" horiz-adv-x="2211" 
d="M414 0h-335l760 2131q79 223 272 223q194 0 272 -223l749 -2131h-347l-220 646h-933zM1106 2522q-138 0 -236 98t-98 236q0 139 98 237t236 98q139 0 237 -98t98 -237q0 -138 -98 -236t-237 -98zM1106 2669q78 0 133 54.5t55 132.5t-55 133t-133 55t-132.5 -55
t-54.5 -133t54.5 -132.5t132.5 -54.5zM718 898h762l-382 1124z" />
    <glyph glyph-name="AE" unicode="&#xc6;" horiz-adv-x="3043" 
d="M414 0h-335l738 2058q31 87 82.5 147t120.5 91.5t141.5 44.5t162.5 13q218 0 342 -130q97 70 238.5 91t354.5 21q254 0 593 -15v-251h-603q-99 0 -165.5 -6.5t-118.5 -25t-81.5 -45.5t-48 -75.5t-24.5 -107t-6 -146.5v-348h1000v-259h-1000v-392q0 -89 6 -147t25 -106.5
t48 -75t81 -45t118.5 -25t165.5 -6.5h603v-252q-312 -14 -593 -14q-277 0 -412 31q-234 53 -317 229q-51 109 -51 271v121h-846zM1043 1851l-324 -953h760v925q0 141 -46 201t-148 60q-51 0 -89.5 -16t-66.5 -49.5t-47.5 -72t-38.5 -95.5z" />
    <glyph glyph-name="Ccedilla" unicode="&#xc7;" 
d="M1707 2297l-30 -253q-238 37 -431 37q-377 0 -537 -157q-120 -118 -153 -364q-17 -133 -17 -395q0 -324 32 -477q48 -225 195 -328q161 -111 480 -111q199 0 431 37l30 -252q-230 -52 -491 -57l-90 -141q107 -6 183 -68t76 -164q0 -72 -30 -126.5t-81.5 -85.5t-115 -46.5
t-136.5 -15.5q-143 0 -251 62l53 139q101 -49 198 -49q60 0 102.5 25.5t42.5 82.5q0 40 -29.5 70t-75 46t-90.5 23.5t-86 7.5l144 242q-165 9 -290 45.5t-216.5 105.5t-152.5 162t-97.5 227t-52 288.5t-15.5 357.5q0 184 12.5 327.5t42 270t78.5 218.5t121 165t171.5 117.5
t227.5 67.5t291 23q300 0 557 -57z" />
    <glyph glyph-name="Egrave" unicode="&#xc8;" horiz-adv-x="1826" 
d="M1634 2321v-251h-602q-99 0 -165.5 -6.5t-118.5 -25t-81.5 -45.5t-48 -75.5t-24.5 -107t-6 -146.5v-348h1000v-259h-1000v-392q0 -89 6 -147t25 -106.5t48 -75t81 -45t118.5 -25t165.5 -6.5h602v-252q-312 -14 -592 -14q-276 0 -411 30q-234 53 -317 229q-52 109 -52 272
v1279q0 83 14 152.5t37 120.5t62 91.5t78.5 67.5t98 46t108 29.5t122 16t127 7t133.5 1.5q253 0 592 -15zM1014 2536l-439 405h374l324 -405h-259z" />
    <glyph glyph-name="Eacute" unicode="&#xc9;" horiz-adv-x="1826" 
d="M1635 2321v-251h-603q-99 0 -165.5 -6.5t-118.5 -25t-81.5 -45.5t-48 -75.5t-24.5 -107t-6 -146.5v-348h1000v-259h-1000v-392q0 -89 6 -147t25 -106.5t48 -75t81 -45t118.5 -25t165.5 -6.5h603v-252q-311 -14 -593 -14q-277 0 -412 31q-234 53 -317 229q-51 109 -51 271
v1279q0 324 212 443q137 77 413 87q61 2 155 2q254 0 593 -15zM801 2536l323 405h374l-438 -405h-259z" />
    <glyph glyph-name="Ecircumflex" unicode="&#xca;" horiz-adv-x="1826" 
d="M1635 2321v-251h-603q-99 0 -165.5 -6.5t-118.5 -25t-81.5 -45.5t-48 -75.5t-24.5 -107t-6 -146.5v-348h1000v-259h-1000v-392q0 -89 6 -147t25 -106.5t48 -75t81 -45t118.5 -25t165.5 -6.5h603v-252q-311 -14 -593 -14q-277 0 -412 31q-234 53 -317 229q-51 109 -51 271
v1279q0 324 212 443q137 77 413 87q61 2 155 2q254 0 593 -15zM878 2941h235l369 -405h-260l-222 258l-227 -258h-256z" />
    <glyph glyph-name="Edieresis" unicode="&#xcb;" horiz-adv-x="1826" 
d="M1635 2321v-251h-603q-99 0 -165.5 -6.5t-118.5 -25t-81.5 -45.5t-48 -75.5t-24.5 -107t-6 -146.5v-348h1000v-259h-1000v-392q0 -89 6 -147t25 -106.5t48 -75t81 -45t118.5 -25t165.5 -6.5h603v-252q-311 -14 -593 -14q-277 0 -412 31q-234 53 -317 229q-51 109 -51 271
v1279q0 324 212 443q137 77 413 87q61 2 155 2q254 0 593 -15zM712 2561q-74 0 -125.5 50.5t-51.5 123.5t51.5 124t125.5 51q73 0 122 -50.5t49 -124.5t-49 -124t-122 -50zM1305 2561q-74 0 -125 50.5t-51 123.5q0 74 51 124.5t125 50.5q73 0 122.5 -50.5t49.5 -124.5
t-49.5 -124t-122.5 -50z" />
    <glyph glyph-name="Igrave" unicode="&#xcc;" horiz-adv-x="871" 
d="M317 2544l-439 405h374l323 -405h-258zM272 0v2330h327v-2330h-327z" />
    <glyph glyph-name="Iacute" unicode="&#xcd;" horiz-adv-x="871" 
d="M272 0v2330h327v-2330h-327zM295 2544l324 405h374l-438 -405h-260z" />
    <glyph glyph-name="Icircumflex" unicode="&#xce;" horiz-adv-x="872" 
d="M315 2933h235l369 -405h-260l-223 258l-226 -258h-257zM272 0v2330h328v-2330h-328z" />
    <glyph glyph-name="Idieresis" unicode="&#xcf;" horiz-adv-x="871" 
d="M141 2554q-74 0 -125.5 50.5t-51.5 123.5t51.5 124t125.5 51q73 0 122 -50.5t49 -124.5t-49 -124t-122 -50zM734 2554q-74 0 -124.5 50.5t-50.5 123.5q0 74 50.5 124.5t124.5 50.5q73 0 122.5 -50.5t49.5 -124.5t-49.5 -124t-122.5 -50zM272 0v2330h327v-2330h-327z" />
    <glyph glyph-name="Eth" unicode="&#xd0;" horiz-adv-x="2321" 
d="M361 1087h-196v231h196v980q338 56 725 56q144 0 262.5 -15t214 -43.5t171 -74.5t132 -102t97.5 -133t67.5 -160.5t42.5 -191.5t22.5 -219t6.5 -250t-6.5 -250t-22.5 -219t-42.5 -191.5t-67.5 -160.5t-97.5 -133t-132 -102t-171 -74.5t-214 -43.5t-262.5 -15
q-386 0 -725 58v1053zM687 1087v-819q190 -25 331 -25q425 0 597 180q118 123 147 371q13 115 13 371q0 289 -19 415q-36 239 -171 355q-174 152 -567 152q-141 0 -331 -25v-744h364v-231h-364z" />
    <glyph glyph-name="Ntilde" unicode="&#xd1;" horiz-adv-x="2342" 
d="M765 2144l1007 -1728v1914h295v-2119q0 -119 -52.5 -177t-148.5 -58q-90 0 -156.5 49.5t-132.5 162.5l-1006 1730v-1918h-295v2119q0 120 53 177.5t148 57.5q86 0 155 -50t133 -160zM1431 2924h178q-13 -166 -87 -256t-169 -90q-54 0 -97.5 17t-70.5 41t-49.5 48.5
t-47 41.5t-50.5 17q-42 0 -68 -38t-39 -120h-178q13 166 86.5 256.5t168.5 90.5q54 0 97.5 -17t70.5 -41.5t50 -49t47.5 -41.5t50.5 -17q42 0 68 38t39 120z" />
    <glyph glyph-name="Ograve" unicode="&#xd2;" horiz-adv-x="2253" 
d="M1127 -24q-178 0 -314 29t-238 92.5t-170.5 156t-111 229t-60.5 301t-18 381.5t18 381.5t60.5 301t111 229t170.5 156t238 92.5t314 29t314 -29t238 -92.5t170 -156t110.5 -229t60.5 -301t18 -381.5t-18 -381.5t-60.5 -301t-110.5 -229t-170 -156t-238 -92.5t-314 -29z
M1127 245q318 0 450 172q100 131 122 407q9 117 9 341q0 330 -26 480q-42 240 -181 343q-132 97 -374 97q-317 0 -449 -170q-99 -129 -121 -401q-10 -118 -10 -349q0 -327 25 -474q40 -241 176 -345q132 -101 379 -101zM1094 2543l-439 405h374l324 -405h-259z" />
    <glyph glyph-name="Oacute" unicode="&#xd3;" horiz-adv-x="2253" 
d="M1127 -24q-178 0 -314 29t-238 92.5t-170.5 156t-111 229t-60.5 301t-18 381.5t18 381.5t60.5 301t111 229t170.5 156t238 92.5t314 29t314 -29t238 -92.5t170 -156t110.5 -229t60.5 -301t18 -381.5t-18 -381.5t-60.5 -301t-110.5 -229t-170 -156t-238 -92.5t-314 -29z
M1127 245q318 0 450 172q100 131 122 407q9 117 9 341q0 330 -26 480q-42 240 -181 343q-132 97 -374 97q-317 0 -449 -170q-99 -129 -121 -401q-10 -118 -10 -349q0 -327 25 -474q40 -241 176 -345q132 -101 379 -101zM920 2543l324 405h374l-438 -405h-260z" />
    <glyph glyph-name="Ocircumflex" unicode="&#xd4;" horiz-adv-x="2252" 
d="M1127 -24q-179 0 -314.5 29t-237.5 92.5t-170.5 156t-111 229t-60.5 301t-18 381.5t18 381.5t60.5 301t111 229t170.5 156t237.5 92.5t314.5 29q178 0 313.5 -29t237.5 -92.5t170 -156t110.5 -229t60.5 -301t18 -381.5t-18 -381.5t-60.5 -301t-110.5 -229t-170 -156
t-237.5 -92.5t-313.5 -29zM1127 245q318 0 449 172q100 130 122 405q9 118 9 343q0 330 -26 479q-41 240 -180 343q-131 98 -374 98q-317 0 -449 -170q-99 -129 -121 -401q-10 -118 -10 -349q0 -327 25 -474q40 -241 176 -345q132 -101 379 -101zM1006 2948h234l369 -405
h-260l-222 258l-227 -258h-256z" />
    <glyph glyph-name="Otilde" unicode="&#xd5;" horiz-adv-x="2252" 
d="M1375 2899h179q-14 -166 -87.5 -256t-168.5 -90q-54 0 -97.5 17t-70.5 41.5t-50 48.5t-47.5 41t-50.5 17q-82 0 -106 -158h-179q14 166 88 256.5t168 90.5q54 0 97 -17t70.5 -41.5t50.5 -49t47.5 -41.5t50.5 -17q41 0 67 38t39 120zM1127 2354q178 0 313.5 -29
t237.5 -92.5t170 -156t110.5 -229t60.5 -301t18 -381.5t-18 -381.5t-60.5 -301t-110.5 -229t-170 -156t-237.5 -92.5t-313.5 -29q-179 0 -314.5 29t-237.5 92.5t-170.5 156t-111 229t-60.5 301t-18 381.5t18 381.5t60.5 301t111 229t170.5 156t237.5 92.5t314.5 29z
M1127 2085q-317 0 -449 -170q-99 -129 -121 -401q-10 -118 -10 -349q0 -327 25 -474q40 -241 176 -345q132 -101 379 -101q318 0 449 172q100 130 122 405q9 118 9 343q0 330 -26 479q-41 240 -180 343q-131 98 -374 98z" />
    <glyph glyph-name="Odieresis" unicode="&#xd6;" horiz-adv-x="2252" 
d="M833 2547q-74 0 -125.5 50.5t-51.5 123.5t51.5 124t125.5 51q73 0 122 -50.5t49 -124.5t-49 -124t-122 -50zM1127 -24q-179 0 -314.5 29t-237.5 92.5t-170.5 156t-111 229t-60.5 301t-18 381.5t18 381.5t60.5 301t111 229t170.5 156t237.5 92.5t314.5 29q178 0 313.5 -29
t237.5 -92.5t170 -156t110.5 -229t60.5 -301t18 -381.5t-18 -381.5t-60.5 -301t-110.5 -229t-170 -156t-237.5 -92.5t-313.5 -29zM1127 245q318 0 449 172q100 130 122 405q9 118 9 343q0 330 -26 479q-41 240 -180 343q-131 98 -374 98q-317 0 -449 -170
q-99 -129 -121 -401q-10 -118 -10 -349q0 -327 25 -474q40 -241 176 -345q132 -101 379 -101zM1425 2547q-74 0 -124.5 50.5t-50.5 123.5t51 124t124 51t123 -50.5t50 -124.5t-50 -124t-123 -50z" />
    <glyph glyph-name="multiply" unicode="&#xd7;" horiz-adv-x="1805" 
d="M1099 981l537 -537l-195 -199l-539 538l-537 -538l-196 196l538 537l-538 538l199 196l536 -537l537 537l192 -195z" />
    <glyph glyph-name="Oslash" unicode="&#xd8;" horiz-adv-x="2252" 
d="M633 65l-134 -232l-206 127l145 252q-120 138 -171.5 369t-51.5 584q0 217 18 381.5t60.5 301t110.5 229t170 156t238 92.5t314 29q304 0 493 -90l134 234l206 -128l-145 -252q120 -138 171.5 -369.5t51.5 -583.5q0 -217 -18 -381.5t-60.5 -301t-110.5 -229t-170 -156
t-238 -92.5t-314 -29q-305 0 -493 89zM1126 2085q-318 0 -449 -171q-100 -129 -122 -403q-9 -117 -9 -346q0 -236 13 -384.5t58 -257.5l853 1484q-128 78 -344 78zM1635 1808l-854 -1485q125 -78 345 -78q318 0 450 172q100 130 122 405q9 118 9 343q0 236 -13 385t-59 258z
" />
    <glyph glyph-name="Ugrave" unicode="&#xd9;" horiz-adv-x="2226" 
d="M1960 2330v-1568q0 -183 -40 -320t-110.5 -225.5t-179.5 -142.5t-234 -76t-287 -22t-287 22t-234 76t-179.5 142.5t-110.5 225.5t-40 320v1568h322v-1594q0 -255 122.5 -370.5t406.5 -115.5q285 0 407 115.5t122 370.5v1594h322zM1067 2527l-439 405h374l324 -405h-259z
" />
    <glyph glyph-name="Uacute" unicode="&#xda;" horiz-adv-x="2227" 
d="M1961 2330v-1568q0 -183 -40 -320t-110.5 -225.5t-179.5 -142.5t-234 -76t-287 -22t-287.5 22t-234 76t-179.5 142.5t-111 225.5t-40 320v1568h323v-1594q0 -255 122 -370.5t407 -115.5t407 115.5t122 370.5v1594h322zM911 2527l324 405h373l-438 -405h-259z" />
    <glyph glyph-name="Ucircumflex" unicode="&#xdb;" horiz-adv-x="2226" 
d="M1960 2330v-1568q0 -183 -40 -320t-110.5 -225.5t-179.5 -142.5t-234 -76t-287 -22t-287 22t-234 76t-179.5 142.5t-110.5 225.5t-40 320v1568h322v-1594q0 -255 122.5 -370.5t406.5 -115.5q285 0 407 115.5t122 370.5v1594h322zM1005 2932h235l369 -405h-260l-222 258
l-227 -258h-256z" />
    <glyph glyph-name="Udieresis" unicode="&#xdc;" horiz-adv-x="2226" 
d="M1960 2330v-1568q0 -183 -40 -320t-110.5 -225.5t-179.5 -142.5t-234 -76t-287 -22t-287 22t-234 76t-179.5 142.5t-110.5 225.5t-40 320v1568h322v-1594q0 -255 122.5 -370.5t406.5 -115.5q285 0 407 115.5t122 370.5v1594h322zM815 2555q-74 0 -125.5 50.5t-51.5 123.5
t51.5 124t125.5 51q73 0 122 -50.5t49 -124.5t-49 -124t-122 -50zM1408 2555q-74 0 -125 50.5t-51 123.5q0 74 51 124.5t125 50.5q73 0 122.5 -50.5t49.5 -124.5t-49.5 -124t-122.5 -50z" />
    <glyph glyph-name="Yacute" unicode="&#xdd;" horiz-adv-x="1931" 
d="M1126 903v-903h-327v903l-746 1427h352l561 -1105l573 1105h338zM785 2517l323 405h374l-438 -405h-259z" />
    <glyph glyph-name="Thorn" unicode="&#xde;" horiz-adv-x="2002" 
d="M254 0v2330h326v-424q195 18 401 18q115 0 208 -6.5t190.5 -26t171.5 -51.5t141.5 -84.5t110.5 -124.5t68.5 -173t25.5 -227q0 -124 -22.5 -224t-63 -173t-103 -127.5t-134.5 -89.5t-165.5 -56t-189 -29.5t-211.5 -8.5q-150 0 -428 15v-538h-326zM580 1639v-839
q161 -18 401 -18q118 0 205 11.5t163 41.5t123 80.5t73.5 129t26.5 186.5q0 236 -131.5 336t-447.5 100q-204 0 -413 -28z" />
    <glyph glyph-name="germandbls" unicode="&#xdf;" horiz-adv-x="2051" 
d="M552 1588v-1588h-306v1588q0 327 79 524.5t247 289t446 91.5q153 0 277 -27.5t209.5 -76t142.5 -117t83.5 -149.5t26.5 -175q0 -96 -30 -171.5t-78 -123t-106.5 -85.5t-116.5 -69t-106 -63t-78 -78t-30 -105q0 -55 24 -96.5t64.5 -69t93 -50t110.5 -44.5t116 -47.5
t110.5 -65t93 -90.5t64.5 -129.5t24 -177.5q0 -111 -29 -198t-79 -144.5t-123 -95t-155.5 -53.5t-181.5 -16q-252 0 -500 72l24 234q245 -56 389 -56q34 0 58 1t63 6t66.5 14t59.5 27t51.5 43t33 64t13.5 88q0 68 -24 120t-64 85t-92.5 59.5t-110 49l-115 47t-110 59.5
t-92.5 81.5t-64 118.5t-24 164q0 97 30 170t78 117t106 78.5t116 64.5t106 65t78 90.5t30 130.5q0 122 -105.5 198t-326.5 76q-173 0 -272.5 -60t-146.5 -202t-47 -393z" />
    <glyph glyph-name="agrave" unicode="&#xe0;" horiz-adv-x="1860" 
d="M274 1510l-26 232q390 63 673 63q123 0 221 -14t189 -51t152 -97.5t97 -158.5t36 -229v-815q0 -160 -12 -315q-285 -149 -768 -149q-358 0 -520.5 130t-162.5 413q0 239 110.5 378.5t351.5 176.5q208 31 701 49v43q0 139 -39.5 222.5t-135.5 126.5t-261 43
q-249 0 -606 -48zM456 525q0 -93 24.5 -154t79.5 -95.5t129.5 -48t186.5 -13.5q261 0 431 71q9 118 9 261v365q-140 -4 -206 -6.5t-185 -12.5t-196 -27q-102 -22 -158.5 -57t-85.5 -102.5t-29 -180.5zM770 2522l302 -501h-242l-410 501h350z" />
    <glyph glyph-name="aacute" unicode="&#xe1;" horiz-adv-x="1861" 
d="M274 1510l-26 232q390 63 673 63q123 0 221 -14t189.5 -51t152 -97.5t97 -158.5t36.5 -229v-815q0 -160 -12 -315q-285 -149 -769 -149q-358 0 -520.5 130t-162.5 413q0 239 110.5 378.5t351.5 176.5q209 31 701 49v43q0 139 -39.5 222.5t-135.5 126.5t-261 43
q-247 0 -606 -48zM456 525q0 -93 24.5 -154t79.5 -95.5t129.5 -48t186.5 -13.5q262 0 431 71q9 102 9 261v365q-140 -4 -206 -6.5t-185 -12.5t-196 -27q-102 -22 -158.5 -57t-85.5 -102.5t-29 -180.5zM1406 2519l-410 -501h-242l303 501h349z" />
    <glyph glyph-name="acircumflex" unicode="&#xe2;" horiz-adv-x="1860" 
d="M274 1510l-26 232q390 63 673 63q123 0 221 -14t189 -51t152 -97.5t97 -158.5t36 -229v-815q0 -160 -12 -315q-285 -149 -768 -149q-358 0 -520.5 130t-162.5 413q0 239 110.5 378.5t351.5 176.5q208 31 701 49v43q0 139 -39.5 222.5t-135.5 126.5t-261 43
q-249 0 -606 -48zM456 525q0 -93 24.5 -154t79.5 -95.5t129.5 -48t186.5 -13.5q261 0 431 71q9 118 9 261v365q-140 -4 -206 -6.5t-185 -12.5t-196 -27q-102 -22 -158.5 -57t-85.5 -102.5t-29 -180.5zM1381 2008h-244l-208 319l-212 -319h-239l338 501h219z" />
    <glyph glyph-name="atilde" unicode="&#xe3;" horiz-adv-x="1861" 
d="M274 1510l-26 232q390 63 673 63q123 0 221 -14t189.5 -51t152.5 -97.5t97 -158.5t36 -229v-815q0 -160 -12 -315q-285 -149 -768 -149q-359 0 -521.5 129.5t-162.5 413.5q0 239 111 378.5t351 176.5q208 31 701 49v43q0 104 -21.5 175.5t-71.5 121t-134 72.5t-209 23
q-247 0 -606 -48zM1358 2445q-14 -173 -87.5 -267.5t-168.5 -94.5q-54 0 -97 18t-70.5 43.5t-50 50.5t-47 43t-50.5 18q-42 0 -68 -39.5t-39 -125.5h-178q14 173 87.5 267t168.5 94q54 0 97 -17.5t70.5 -43t50 -51t47 -43t50.5 -17.5q42 0 68 39.5t39 125.5h178zM1316 546
v365q-140 -4 -206 -6.5t-185 -12.5t-196 -27q-76 -17 -125 -39t-83.5 -61t-49 -96.5t-14.5 -143.5q0 -93 24.5 -154t79 -95.5t129 -48t186.5 -13.5q262 0 432 71q8 105 8 261z" />
    <glyph glyph-name="adieresis" unicode="&#xe4;" horiz-adv-x="1860" 
d="M274 1510l-26 232q390 63 673 63q123 0 221 -14t189 -51t152 -97.5t97 -158.5t36 -229v-815q0 -160 -12 -315q-285 -149 -768 -149q-358 0 -520.5 130t-162.5 413q0 239 110.5 378.5t351.5 176.5q208 31 701 49v43q0 139 -39.5 222.5t-135.5 126.5t-261 43
q-249 0 -606 -48zM456 525q0 -93 24.5 -154t79.5 -95.5t129.5 -48t186.5 -13.5q261 0 431 71q9 118 9 261v365q-140 -4 -206 -6.5t-185 -12.5t-196 -27t-125.5 -39t-83.5 -61t-49.5 -96.5t-14.5 -143.5zM640 2429q73 0 122 -50.5t49 -124.5t-49 -124t-122 -50
q-74 0 -125.5 50.5t-51.5 123.5t51.5 124t125.5 51zM1233 2429q73 0 122.5 -50.5t49.5 -124.5t-49.5 -124t-122.5 -50q-74 0 -124.5 50.5t-50.5 123.5q0 74 51 124.5t124 50.5z" />
    <glyph glyph-name="aring" unicode="&#xe5;" horiz-adv-x="1860" 
d="M274 1510l-26 232q390 63 673 63q123 0 221 -14t189 -51t152 -97.5t97 -158.5t36 -229v-815q0 -160 -12 -315q-285 -149 -768 -149q-358 0 -520.5 130t-162.5 413q0 239 110.5 378.5t351.5 176.5q208 31 701 49v43q0 139 -39.5 222.5t-135.5 126.5t-261 43
q-249 0 -606 -48zM456 525q0 -93 24.5 -154t79.5 -95.5t129.5 -48t186.5 -13.5q261 0 431 71q9 118 9 261v365q-140 -4 -206 -6.5t-185 -12.5t-196 -27q-102 -22 -158.5 -57t-85.5 -102.5t-29 -180.5zM921 2644q138 0 236 -98t98 -237q0 -138 -98 -236t-236 -98
q-139 0 -237 98t-98 236q0 139 98 237t237 98zM921 2497q-78 0 -133 -55t-55 -133t55 -132.5t133 -54.5q77 0 132 54.5t55 132.5t-55 133t-132 55z" />
    <glyph glyph-name="ae" unicode="&#xe6;" horiz-adv-x="3053" 
d="M1560 146l-3 -45q-276 -125 -720 -125q-359 0 -521.5 129.5t-162.5 413.5q0 239 111 378.5t352 176.5q208 31 701 49v43q0 139 -39.5 222.5t-135.5 126.5t-261 43q-248 0 -607 -48l-26 232q390 63 673 63q208 0 355.5 -46t229.5 -160q91 105 236.5 155.5t359.5 50.5
q183 0 318.5 -39t222 -107.5t138.5 -175.5t72.5 -229t20.5 -282q0 -70 -5 -152q-149 -26 -416.5 -52t-458.5 -34l-372 -16q19 -268 140 -380t396 -112q267 0 633 48l27 -236q-123 -19 -212.5 -30.5t-237.5 -21.5t-307 -10q-329 0 -501 170zM1308 285q9 118 9 261v365
q-140 -4 -206.5 -6.5t-185.5 -12.5t-196 -27q-76 -17 -125 -39t-83.5 -61t-49 -96.5t-14.5 -143.5q0 -93 24.5 -154t79 -95.5t129 -48t187.5 -13.5q261 0 431 71zM1614 937l418 19q293 14 530 45q4 40 4 106q0 227 -107 343t-357 116q-122 0 -209.5 -28.5t-141 -78
t-84.5 -131.5t-42 -172.5t-11 -218.5z" />
    <glyph glyph-name="ccedilla" unicode="&#xe7;" horiz-adv-x="1536" 
d="M1399 1749l-25 -230q-181 33 -302 33q-78 0 -141.5 -4.5t-116 -16.5t-93 -27t-72.5 -40.5t-54.5 -53t-39 -68.5t-26 -82.5t-15 -100t-7.5 -115.5t-2 -135q0 -263 28 -378q40 -159 162 -228q125 -70 376 -70q110 0 303 39l28 -239q-207 -45 -396 -54l-91 -143
q107 -6 183 -68t76 -164q0 -72 -30 -126.5t-81.5 -85.5t-115 -46.5t-136.5 -15.5q-143 0 -251 62l53 139q101 -49 198 -49q60 0 102.5 25.5t42.5 82.5q0 40 -29.5 70t-75 46t-90.5 23.5t-86 7.5l143 242q-111 7 -201 38t-154 78t-112.5 115.5t-78 143t-47.5 169.5t-24.5 186
t-6.5 200q0 131 9.5 233.5t32.5 198.5t61.5 166t98.5 128.5t141.5 94.5t190.5 55.5t247 19.5q221 0 424 -56z" />
    <glyph glyph-name="egrave" unicode="&#xe8;" horiz-adv-x="1927" 
d="M936 -24q-173 0 -303.5 45.5t-214 124t-135 196.5t-72 250.5t-20.5 298.5q0 248 40 416.5t132.5 282t242 164.5t370.5 51q183 0 318.5 -39t222 -107.5t138.5 -175.5t72.5 -229t20.5 -282q0 -70 -5 -152q-149 -26 -416.5 -52t-458.5 -34l-372 -16q19 -268 140 -380
t396 -112q268 0 634 48l26 -236q-124 -19 -212.5 -30.5t-236.5 -21.5t-307 -10zM488 937l419 19q292 14 529 45q4 40 4 106q0 227 -107 343t-357 116q-122 0 -209.5 -28.5t-141 -78t-84.5 -131.5t-42 -172.5t-11 -218.5zM901 2522l303 -501h-242l-410 501h349z" />
    <glyph glyph-name="eacute" unicode="&#xe9;" horiz-adv-x="1928" 
d="M936 -24q-173 0 -303.5 45.5t-213.5 124t-135 196.5t-72.5 250.5t-20.5 298.5q0 248 40 416.5t132.5 282t242 164.5t371.5 51q183 0 318.5 -39t221.5 -107.5t138 -175.5t72.5 -229t20.5 -282q0 -91 -5 -152q-149 -26 -416.5 -52t-458.5 -34l-371 -16q19 -268 140 -380
t396 -112q267 0 633 48l27 -236q-125 -19 -213.5 -30.5t-236.5 -21.5t-307 -10zM489 937l418 19q294 14 529 45q4 40 4 106q0 111 -24 193.5t-77.5 143.5t-143.5 91.5t-218 30.5q-122 0 -209.5 -28.5t-141 -78t-84.5 -131.5t-42 -172.5t-11 -218.5zM1495 2514l-410 -501
h-242l302 501h350z" />
    <glyph glyph-name="ecircumflex" unicode="&#xea;" horiz-adv-x="1927" 
d="M936 -24q-173 0 -303.5 45.5t-214 124t-135 196.5t-72 250.5t-20.5 298.5q0 248 40 416.5t132.5 282t242 164.5t370.5 51q183 0 318.5 -39t222 -107.5t138.5 -175.5t72.5 -229t20.5 -282q0 -70 -5 -152q-149 -26 -416.5 -52t-458.5 -34l-372 -16q19 -268 140 -380
t396 -112q268 0 634 48l26 -236q-124 -19 -212.5 -30.5t-236.5 -21.5t-307 -10zM488 937l419 19q292 14 529 45q4 40 4 106q0 227 -107 343t-357 116q-122 0 -209.5 -28.5t-141 -78t-84.5 -131.5t-42 -172.5t-11 -218.5zM1452 2008h-243l-208 319l-212 -319h-239l338 501
h219z" />
    <glyph glyph-name="edieresis" unicode="&#xeb;" horiz-adv-x="1927" 
d="M936 -24q-173 0 -303.5 45.5t-213.5 124t-135 196.5t-72.5 250.5t-20.5 298.5q0 248 40 416.5t132.5 282t242 164.5t370.5 51q183 0 318.5 -39t222 -107.5t138.5 -175.5t72.5 -229t20.5 -282q0 -91 -5 -152q-149 -26 -416.5 -52t-458.5 -34l-371 -16q19 -268 139.5 -380
t395.5 -112q268 0 634 48l27 -236q-125 -19 -213.5 -30.5t-236.5 -21.5t-307 -10zM723 2429q73 0 122.5 -50.5t49.5 -124.5t-49.5 -124t-122.5 -50q-74 0 -125.5 50.5t-51.5 123.5t51.5 124t125.5 51zM489 937l418 19q294 14 529 45q4 40 4 106q0 227 -107 343t-357 116
q-122 0 -209 -28.5t-141 -78t-84.5 -131.5t-41.5 -172.5t-11 -218.5zM1316 2429q73 0 123 -50.5t50 -124.5t-50 -124t-123 -50q-74 0 -124.5 50.5t-50.5 123.5q0 74 50.5 124.5t124.5 50.5z" />
    <glyph glyph-name="igrave" unicode="&#xec;" horiz-adv-x="801" 
d="M274 2044l-410 501h349l302 -501h-241zM247 0v1781h308v-1781h-308z" />
    <glyph glyph-name="iacute" unicode="&#xed;" horiz-adv-x="800" 
d="M247 0v1781h307v-1781h-307zM286 2044l302 501h350l-410 -501h-242z" />
    <glyph glyph-name="icircumflex" unicode="&#xee;" horiz-adv-x="800" 
d="M287 2555h220l345 -501h-243l-208 319l-212 -319h-240zM247 0v1781h307v-1781h-307z" />
    <glyph glyph-name="idieresis" unicode="&#xef;" horiz-adv-x="800" 
d="M106 2095q-74 0 -125.5 50.5t-51.5 123.5t51.5 124t125.5 51q73 0 122 -50.5t49 -124.5t-49 -124t-122 -50zM699 2095q-74 0 -124.5 50.5t-50.5 123.5t51 124t124 51t122.5 -50.5t49.5 -124.5t-49.5 -124t-122.5 -50zM247 0v1781h307v-1781h-307z" />
    <glyph glyph-name="eth" unicode="&#xf0;" horiz-adv-x="1933" 
d="M1309 2274l285 104l94 -159l-276 -100q159 -268 239.5 -586t80.5 -648q0 -248 -41.5 -417.5t-135.5 -280.5t-242.5 -161t-367.5 -50q-220 0 -368 48t-242.5 158.5t-135.5 280.5t-41 422q0 242 41 406t135.5 271.5t243 155t367.5 47.5q211 0 346 -67q-60 160 -154 321
l-286 -104l-91 159l277 101q-89 125 -184 230l267 88q104 -102 189 -219zM1424 885q0 146 -14.5 248.5t-47.5 178t-89.5 119t-135.5 64t-192 20.5q-141 0 -229.5 -28t-146 -101.5t-80 -192t-22.5 -308.5q0 -134 10 -232t33.5 -173t58.5 -122.5t90 -77.5t123.5 -42t162.5 -12
q141 0 230.5 31t146.5 109.5t79.5 201.5t22.5 317z" />
    <glyph glyph-name="ntilde" unicode="&#xf1;" horiz-adv-x="1994" 
d="M557 1221v-1221h-306v1338q0 160 12 315q330 152 804 152q130 0 232 -18t172.5 -47.5t121.5 -78t80 -99.5t46 -123t22 -137t5 -152v-1150h-306v1107q0 72 -4.5 124t-16.5 102t-33.5 83t-55.5 62t-84 45t-116.5 25t-154.5 9q-102 0 -221 -21t-189 -54q-8 -104 -8 -261z
M1263 2455h178q-13 -173 -86.5 -267.5t-168.5 -94.5q-54 0 -97.5 18t-70.5 43.5t-50 50.5t-47.5 43t-50.5 18q-81 0 -107 -165h-178q14 173 87.5 267t168.5 94q54 0 97 -17.5t70.5 -43t50 -51t47 -43t50.5 -17.5q42 0 68 39.5t39 125.5z" />
    <glyph glyph-name="ograve" unicode="&#xf2;" horiz-adv-x="1966" 
d="M983 -24q-220 0 -368 48.5t-242.5 159.5t-135.5 282t-41 425t41 424.5t135.5 281.5t242.5 159.5t368 48.5q219 0 367.5 -50t242.5 -162t135.5 -282t41.5 -420t-41.5 -420t-135.5 -282.5t-242.5 -162.5t-367.5 -50zM983 226q141 0 230.5 31.5t146.5 110.5t79.5 203
t22.5 320t-22.5 319.5t-79 202.5t-146 110.5t-231.5 31.5q-94 0 -162.5 -12t-123.5 -42.5t-90.5 -78.5t-59 -123.5t-33.5 -174t-10 -233.5t10 -234t33.5 -174.5t59 -123.5t90.5 -78.5t123.5 -42.5t162.5 -12zM945 2021l-410 501h350l302 -501h-242z" />
    <glyph glyph-name="oacute" unicode="&#xf3;" horiz-adv-x="1966" 
d="M983 -24q-220 0 -367.5 48.5t-242.5 159.5t-136 282t-41 425t41 424.5t136 281.5t243 159.5t367 48.5t367.5 -50t243 -162t135.5 -282t41 -420t-41 -420t-135.5 -282.5t-243 -162.5t-367.5 -50zM983 226q188 0 290 61t146 202.5t44 401.5q0 156 -15 265t-47 188
t-89.5 124t-136.5 66t-192 21q-142 0 -229.5 -28.5t-145.5 -105t-80.5 -202t-22.5 -328.5t22.5 -328.5t80.5 -202.5t145.5 -105.5t229.5 -28.5zM794 2035l302 501h350l-410 -501h-242z" />
    <glyph glyph-name="ocircumflex" unicode="&#xf4;" horiz-adv-x="1966" 
d="M983 -24q-220 0 -368 48.5t-242.5 159.5t-135.5 282t-41 425t41 424.5t135.5 281.5t242.5 159.5t368 48.5q219 0 367.5 -50t242.5 -162t135.5 -282t41.5 -420t-41.5 -420t-135.5 -282.5t-242.5 -162.5t-367.5 -50zM983 226q141 0 230.5 31.5t146.5 110.5t79.5 203
t22.5 320t-22.5 319.5t-79 202.5t-146 110.5t-231.5 31.5q-94 0 -162.5 -12t-123.5 -42.5t-90.5 -78.5t-59 -123.5t-33.5 -174t-10 -233.5t10 -234t33.5 -174.5t59 -123.5t90.5 -78.5t123.5 -42.5t162.5 -12zM869 2519h219l346 -501h-244l-208 319l-212 -319h-239z" />
    <glyph glyph-name="otilde" unicode="&#xf5;" horiz-adv-x="1966" 
d="M1232 2435h178q-13 -173 -86.5 -267.5t-168.5 -94.5q-54 0 -97.5 18t-70.5 43.5t-50 50.5t-47.5 43t-50.5 18q-82 0 -106 -165h-179q14 173 87.5 267t168.5 94q54 0 97 -17.5t70.5 -43t50.5 -51t47.5 -43t50.5 -17.5q41 0 67 39.5t39 125.5zM983 1805q219 0 367.5 -50
t242.5 -162t135.5 -282t41.5 -420t-41.5 -420t-135.5 -282.5t-242.5 -162.5t-367.5 -50q-220 0 -368 48.5t-242.5 159.5t-135.5 282t-41 425t41 424.5t135.5 281.5t242.5 159.5t368 48.5zM983 1555q-94 0 -162.5 -12t-123.5 -42.5t-90.5 -78.5t-59 -123.5t-33.5 -174
t-10 -233.5t10 -234t33.5 -174.5t59 -123.5t90.5 -78.5t123.5 -42.5t162.5 -12q141 0 230.5 31.5t146.5 110.5t79.5 203t22.5 320t-22.5 319.5t-79 202.5t-146 110.5t-231.5 31.5z" />
    <glyph glyph-name="odieresis" unicode="&#xf6;" horiz-adv-x="1966" 
d="M689 2080q-74 0 -125.5 50.5t-51.5 123.5t51.5 124t125.5 51q73 0 122 -50.5t49 -124.5t-49 -124t-122 -50zM983 -24q-220 0 -367.5 48.5t-242.5 159.5t-136 282t-41 425t41 424.5t136 281.5t243 159.5t367 48.5t367.5 -50t242.5 -162t135.5 -282t41.5 -420t-41.5 -420
t-135.5 -282.5t-242.5 -162.5t-367.5 -50zM983 226q113 0 191.5 20.5t135.5 66t90 124.5t48 188.5t15 265.5q0 195 -22.5 319t-79.5 203t-146.5 110.5t-231.5 31.5q-94 0 -162.5 -12t-123.5 -42.5t-90 -78.5t-58.5 -123.5t-33.5 -174t-10 -233.5q0 -162 15 -273.5
t47.5 -189.5t90.5 -121.5t135 -62t190 -18.5zM1281 2080q-74 0 -124.5 50.5t-50.5 123.5q0 74 51 124.5t124 50.5q74 0 123.5 -50.5t49.5 -124.5t-49.5 -124t-123.5 -50z" />
    <glyph glyph-name="divide" unicode="&#xf7;" horiz-adv-x="1934" 
d="M967 85q-86 0 -147 61t-61 148t61 147.5t147 60.5q87 0 148 -60.5t61 -147.5t-61.5 -148t-147.5 -61zM967 1455q-86 0 -147 61t-61 148q0 86 61 146.5t147 60.5t147.5 -60.5t61.5 -146.5q0 -87 -61.5 -148t-147.5 -61zM149 839v279h1636v-279h-1636z" />
    <glyph glyph-name="oslash" unicode="&#xf8;" horiz-adv-x="1966" 
d="M561 46l-126 -203l-148 99l125 200q-113 105 -164.5 287.5t-51.5 461.5q0 254 41 424.5t136 281.5t243 159.5t367 48.5q258 0 421 -72l127 204l148 -98l-126 -203q113 -106 165 -288t52 -457q0 -250 -41 -420t-135.5 -282.5t-243 -162.5t-367.5 -50q-260 0 -422 70z
M983 1555q-142 0 -229.5 -28.5t-145.5 -105t-80.5 -202t-22.5 -328.5q0 -342 72 -483l683 1094q-100 53 -277 53zM1387 1371l-682 -1095q97 -50 278 -50q188 0 290 61t146 202.5t44 401.5q0 336 -76 480z" />
    <glyph glyph-name="ugrave" unicode="&#xf9;" horiz-adv-x="1986" 
d="M242 631v1150h306v-1107q0 -63 3 -109.5t12 -92.5t24.5 -78t39.5 -62t58.5 -48.5t81.5 -33t107.5 -20.5t136.5 -6q101 0 219 21t187 54q9 117 9 261v1221h305v-1338q0 -161 -12 -315q-330 -152 -800 -152q-129 0 -231 18t-172.5 47.5t-121 78t-80 99.5t-46 123t-21.5 137
t-5 152zM924 2044l-409 501h349l302 -501h-242z" />
    <glyph glyph-name="uacute" unicode="&#xfa;" horiz-adv-x="1986" 
d="M242 631v1150h306v-1107q0 -72 4.5 -124t16 -102t33 -83t56 -62t83.5 -45t116 -25t154 -9q101 0 218.5 21t187.5 54q8 104 8 261v1221h306v-1338q0 -161 -12 -315q-330 -152 -800 -152q-129 0 -231 18t-172.5 47.5t-121 78t-80 99.5t-46 123t-21.5 137t-5 152zM820 2064
l302 501h349l-410 -501h-241z" />
    <glyph glyph-name="ucircumflex" unicode="&#xfb;" horiz-adv-x="1986" 
d="M242 631v1150h306v-1107q0 -72 4.5 -124t16 -102t33 -83t56 -62t83.5 -45t116 -25t154 -9q101 0 219 21t187 54q9 117 9 261v1221h305v-1338q0 -161 -12 -315q-330 -152 -800 -152q-129 0 -231 18t-172.5 47.5t-121 78t-80 99.5t-46 123t-21.5 137t-5 152zM874 2575h219
l345 -501h-243l-208 319l-212 -319h-240z" />
    <glyph glyph-name="udieresis" unicode="&#xfc;" horiz-adv-x="1986" 
d="M242 631v1150h307v-1107q0 -72 4.5 -124t16 -102t33 -83t55.5 -62t83.5 -45t116 -25t153.5 -9q101 0 219 21t187 54q9 117 9 261v1221h305v-1338q0 -161 -12 -315q-330 -152 -800 -152q-129 0 -231 18t-172.5 47.5t-121 78t-80 99.5t-46 123t-21.5 137t-5 152zM693 2116
q-74 0 -125.5 50.5t-51.5 123.5t51.5 124t125.5 51q73 0 122 -50.5t49 -124.5t-49 -124t-122 -50zM1285 2116q-74 0 -124.5 50.5t-50.5 123.5q0 74 51 124.5t124 50.5q74 0 123.5 -50.5t49.5 -124.5t-49.5 -124t-123.5 -50z" />
    <glyph glyph-name="yacute" unicode="&#xfd;" horiz-adv-x="1753" 
d="M939 511l417 1270h310l-829 -2437h-310l273 779l-720 1658h326zM740 2024l303 501h349l-410 -501h-242z" />
    <glyph glyph-name="thorn" unicode="&#xfe;" horiz-adv-x="1924" 
d="M247 -656v2986h305v-583q234 58 444 58q275 0 438.5 -86t243.5 -286.5t80 -542.5q0 -257 -43 -431.5t-137.5 -282t-235 -154t-346.5 -46.5q-210 0 -444 58v-690h-305zM552 1500v-1219q77 -26 177 -43.5t184 -17.5q81 0 146.5 9t117 25t91.5 43.5t68.5 58.5t49 76.5
t32.5 90.5t19 107.5t9.5 121.5t2.5 138t-2.5 138t-9.5 121.5t-19 107.5t-32.5 91t-49 76.5t-68.5 58.5t-91.5 44t-117 25t-146.5 9q-84 0 -184 -17.5t-177 -43.5z" />
    <glyph glyph-name="ydieresis" unicode="&#xff;" horiz-adv-x="1753" 
d="M613 2086q-74 0 -125.5 50.5t-51.5 123.5t51.5 124t125.5 51q73 0 122 -50.5t49 -124.5t-49 -124t-122 -50zM1205 2086q-74 0 -124.5 50.5t-50.5 123.5q0 74 51 124.5t124 50.5t123 -50.5t50 -124.5t-50 -124t-123 -50zM938 511l418 1270h310l-829 -2437h-311l273 779
l-719 1658h325z" />
    <glyph glyph-name="Abreve" unicode="&#x102;" horiz-adv-x="2211" 
d="M1341 2925h186q-15 -164 -121 -266.5t-302 -102.5q-100 0 -178.5 28.5t-128.5 80t-78.5 116.5t-36.5 144h186q13 -85 73.5 -142t162.5 -57q103 0 163.5 57t73.5 142zM79 0l760 2131q79 223 272 223q194 0 272 -223l749 -2131h-347l-220 646h-933l-218 -646h-335z
M1480 898l-382 1124l-380 -1124h762z" />
    <glyph glyph-name="abreve" unicode="&#x103;" horiz-adv-x="1861" 
d="M275 1510l-26 232q390 63 673 63q123 0 221 -14t189 -51t152 -97.5t97 -158.5t36 -229v-815q0 -160 -12 -315q-285 -149 -768 -149q-358 0 -521 130t-163 413q0 239 111 378.5t352 176.5q208 31 701 49v43q0 139 -39.5 222.5t-135.5 126.5t-261 43q-249 0 -606 -48z
M457 525q0 -93 24.5 -154t79.5 -95.5t129.5 -48t186.5 -13.5q261 0 431 71q9 118 9 261v365q-140 -4 -206 -6.5t-185 -12.5t-196 -27t-125.5 -39t-83.5 -61t-49.5 -96.5t-14.5 -143.5zM1191 2464h187q-8 -90 -36.5 -165.5t-79 -134t-129 -91.5t-178.5 -33t-178.5 33
t-129 91.5t-79 134t-36.5 165.5h186q13 -98 74 -163.5t163 -65.5t162.5 65.5t73.5 163.5z" />
    <glyph glyph-name="Aogonek" unicode="&#x104;" horiz-adv-x="2210" 
d="M2131 0h-103q-189 -189 -189 -332q0 -72 41 -115.5t111 -43.5q91 0 160 46l53 -136q-55 -44 -130.5 -69.5t-145.5 -25.5q-133 0 -219 74t-86 200q0 108 66 214.5t156 187.5h-60l-220 646h-933l-218 -646h-335l760 2131q79 223 272 223t271 -223zM1479 898l-382 1124
l-380 -1124h762z" />
    <glyph glyph-name="aogonek" unicode="&#x105;" horiz-adv-x="1861" 
d="M1617 1255v-815q0 -160 -12 -315q-102 -54 -234 -90q-159 -170 -159 -300q0 -72 41 -115.5t112 -43.5q90 0 159 46l53 -136q-54 -44 -130 -69.5t-146 -25.5q-133 0 -218.5 74t-85.5 200q0 158 150 329q-145 -18 -311 -18q-358 0 -520.5 130t-162.5 413q0 239 111 378.5
t351 176.5q209 31 701 49v43q0 139 -39.5 222.5t-135.5 126.5t-261 43q-247 0 -606 -48l-26 232q390 63 673 63q123 0 221 -14t189.5 -51t152.5 -97.5t97 -158.5t36 -229zM1316 546v365q-140 -4 -206 -6.5t-185 -12.5t-196 -27q-102 -22 -158.5 -57t-85.5 -102.5t-29 -180.5
q0 -93 24.5 -154t79.5 -95.5t129.5 -48t186.5 -13.5q262 0 431 71q9 102 9 261z" />
    <glyph glyph-name="Cacute" unicode="&#x106;" 
d="M1677 286l30 -252q-262 -58 -557 -58q-127 0 -232.5 14t-193 40.5t-157 70t-123.5 98.5t-94 130t-68 160t-44.5 192.5t-24 224.5t-7.5 259q0 184 12.5 327.5t42 270t78.5 218.5t121 165t171.5 117.5t227.5 67.5t291 23q300 0 557 -57l-30 -253q-238 37 -431 37
q-377 0 -537 -157q-120 -118 -153 -364q-17 -133 -17 -395q0 -324 32 -477q48 -225 195 -328q161 -111 480 -111q199 0 431 37zM1552 2947l-438 -405h-260l324 405h374z" />
    <glyph glyph-name="cacute" unicode="&#x107;" horiz-adv-x="1536" 
d="M1374 272l28 -239q-262 -57 -506 -57q-125 0 -226.5 26t-174 71t-126.5 114t-87 145.5t-53 174.5t-27.5 193t-7.5 209q0 131 9.5 233.5t32.5 198.5t61.5 166t98.5 128.5t141.5 94.5t190.5 55.5t247 19.5q221 0 424 -56l-25 -230q-181 33 -302 33q-78 0 -141.5 -4.5
t-116 -16.5t-93 -27t-72.5 -40.5t-54.5 -53t-39 -68.5t-26 -82.5t-15 -100t-7.5 -115.5t-2 -135q0 -263 28 -378q40 -159 162 -228q125 -70 376 -70q110 0 303 39zM1303 2519l-410 -501h-242l303 501h349z" />
    <glyph glyph-name="Ccaron" unicode="&#x10c;" horiz-adv-x="1811" 
d="M1678 286l29 -252q-260 -58 -556 -58q-163 0 -291.5 23t-228 67.5t-171.5 117.5t-121 165t-78.5 219t-42 270.5t-12.5 326.5q0 142 7.5 259t24.5 224.5t44.5 193t68 160t94.5 129.5t124 98.5t157 70t192.5 40.5t232.5 14q300 0 556 -57l-29 -253q-240 37 -431 37
q-377 0 -537 -157q-120 -118 -153 -364q-17 -133 -17 -395q0 -324 32 -477q48 -225 195 -328q161 -111 480 -111q197 0 431 37zM1045 2689l227 258h256l-362 -405h-234l-370 405h260z" />
    <glyph glyph-name="ccaron" unicode="&#x10d;" horiz-adv-x="1536" 
d="M1373 272l29 -239q-262 -57 -507 -57q-125 0 -226.5 26t-173.5 71t-126 114t-87 145t-53 174.5t-27.5 193.5t-7.5 209q0 131 9.5 233.5t32.5 198.5t61.5 166t98.5 128.5t141.5 94.5t190.5 55.5t247 19.5q221 0 424 -56l-25 -230q-181 33 -303 33q-78 0 -141 -4.5
t-116 -16.5t-93 -27t-72 -40.5t-54.5 -53t-39 -68.5t-26 -82.5t-15 -100t-7.5 -115.5t-2 -135q0 -263 28 -378q40 -159 161 -228q125 -70 376 -70q112 0 303 39zM858 2204l212 318h240l-339 -501h-219l-345 501h243z" />
    <glyph glyph-name="Dcaron" unicode="&#x10e;" horiz-adv-x="2234" 
d="M931 2087q-141 0 -331 -25v-1794q190 -25 331 -25q425 0 597 180q118 123 147 371q13 115 13 371q0 289 -19 415q-36 239 -171 355q-174 152 -567 152zM274 34v2264q338 56 725 56q144 0 262.5 -15t214 -43.5t171 -74.5t132 -102t97.5 -133t67.5 -160.5t42.5 -191.5
t22.5 -219t6.5 -250t-6.5 -250t-22.5 -219t-42.5 -191.5t-67.5 -160.5t-97.5 -133t-132 -102t-171 -74.5t-214 -43.5t-262.5 -15q-386 0 -725 58zM1056 2692l227 258h256l-362 -405h-234l-369 405h260z" />
    <glyph glyph-name="dcaron" unicode="&#x10f;" horiz-adv-x="1929" 
d="M1367 1747v722h305v-2029q0 -160 -12 -315q-140 -76 -319.5 -112.5t-363.5 -36.5q-177 0 -306.5 28.5t-228.5 93t-159.5 171t-91 259.5t-30.5 363q0 258 42.5 432t137 281.5t235 154t346.5 46.5q211 0 445 -58zM1367 1500q-78 26 -177.5 43.5t-184.5 17.5q-80 0 -146 -9
t-117.5 -25t-91 -43.5t-68.5 -58.5t-49 -76.5t-32.5 -90.5t-19.5 -107.5t-9.5 -121.5t-2.5 -138q0 -94 5 -166.5t19.5 -145t38.5 -125.5t62.5 -99t91.5 -75t126 -45t165 -16q100 0 204.5 18.5t176.5 52.5q9 118 9 261v949zM2293 2469l-245 -671h-207l172 671h280z" />
    <glyph glyph-name="Dcroat" unicode="&#x110;" horiz-adv-x="2321" 
d="M361 1087h-196v231h196v980q338 56 725 56q144 0 262.5 -15t214 -43.5t171 -74.5t132 -102t97.5 -133t67.5 -160.5t42.5 -191.5t22.5 -219t6.5 -250t-6.5 -250t-22.5 -219t-42.5 -191.5t-67.5 -160.5t-97.5 -133t-132 -102t-171 -74.5t-214 -43.5t-262.5 -15
q-386 0 -725 58v1053zM687 1087v-819q190 -25 331 -25q425 0 597 180q118 123 147 371q13 115 13 371q0 289 -19 415q-36 239 -171 355q-174 152 -567 152q-141 0 -331 -25v-744h364v-231h-364z" />
    <glyph glyph-name="dcroat" unicode="&#x111;" horiz-adv-x="1930" 
d="M1013 2021v188h355v260h305v-260h237v-188h-237v-1581q0 -160 -12 -315q-141 -76 -320 -112.5t-363 -36.5q-222 0 -371.5 45t-251.5 151.5t-148 281.5t-46 437q0 257 43 431.5t137.5 282t235 154t346.5 46.5q211 0 445 -58v274h-355zM1368 1500q-79 26 -178.5 43.5
t-183.5 17.5q-81 0 -146.5 -9t-117 -25t-91.5 -43.5t-68.5 -58.5t-49 -76.5t-32.5 -90.5t-19 -107.5t-9.5 -121.5t-2.5 -138q0 -94 5 -166.5t19.5 -145t38.5 -125.5t62.5 -99t91.5 -75t126 -45t165 -16q100 0 204.5 18.5t176.5 52.5q9 118 9 261v949z" />
    <glyph glyph-name="Eogonek" unicode="&#x118;" horiz-adv-x="1826" 
d="M1635 2070h-603q-99 0 -165.5 -6.5t-118.5 -25t-81.5 -45.5t-48 -75.5t-24.5 -107t-6 -146.5v-348h1000v-259h-1000v-392q0 -89 6 -147t25 -106.5t48 -75t81 -45t118.5 -25t165.5 -6.5h603v-252q-116 -6 -202 -8q-189 -192 -189 -332q0 -72 41 -115.5t111 -43.5
q91 0 160 46l53 -136q-55 -44 -130.5 -69.5t-145.5 -25.5q-133 0 -219 74t-86 200q0 107 65 212t153 186q-146 -2 -204 -2q-277 0 -412 31q-234 53 -317 229q-51 109 -51 271v1279q0 324 212 443q137 77 413 87q61 2 155 2q254 0 593 -15v-251z" />
    <glyph glyph-name="eogonek" unicode="&#x119;" horiz-adv-x="1927" 
d="M1666 274l27 -236q-208 -33 -354 -45q-172 -184 -172 -315q0 -72 41 -115.5t111 -43.5q91 0 160 46l53 -136q-54 -44 -130 -69.5t-146 -25.5q-133 0 -218.5 74t-85.5 200q0 98 55 195.5t136 177.5q-107 -5 -207 -5q-173 0 -303.5 45.5t-214 124t-135 196.5t-72 250.5
t-20.5 298.5q0 248 40 416.5t132.5 282t242 164.5t370.5 51q183 0 318.5 -39t222 -107.5t138.5 -175.5t72.5 -229t20.5 -282q0 -70 -5 -152q-149 -26 -416.5 -52t-458.5 -34l-372 -16q19 -268 140 -380t396 -112q268 0 634 48zM976 1566q-122 0 -209.5 -28.5t-141 -78
t-84.5 -131.5t-42 -172.5t-11 -218.5l419 19q292 14 529 45q4 40 4 106q0 227 -107 343t-357 116z" />
    <glyph glyph-name="Ecaron" unicode="&#x11a;" horiz-adv-x="1826" 
d="M1635 2321v-251h-603q-99 0 -165.5 -6.5t-118.5 -25t-81.5 -45.5t-48 -75.5t-24.5 -107t-6 -146.5v-348h1000v-259h-1000v-392q0 -89 6 -147t25 -106.5t48 -75t81 -45t118.5 -25t165.5 -6.5h603v-252q-311 -14 -593 -14q-277 0 -412 31q-234 53 -317 229q-51 109 -51 271
v1279q0 324 212 443q137 77 413 87q61 2 155 2q252 0 593 -15zM498 2941h260l222 -258l227 258h256l-361 -405h-235z" />
    <glyph glyph-name="ecaron" unicode="&#x11b;" horiz-adv-x="1927" 
d="M936 -24q-173 0 -303.5 45.5t-214 124t-135 196.5t-72 250.5t-20.5 298.5q0 248 40 416.5t132.5 282t242 164.5t370.5 51q183 0 318.5 -39t222 -107.5t138.5 -175.5t72.5 -229t20.5 -282q0 -70 -5 -152q-149 -26 -416.5 -52t-458.5 -34l-372 -16q19 -268 140 -380
t396 -112q268 0 634 48l26 -236q-124 -19 -212.5 -30.5t-236.5 -21.5t-307 -10zM488 937l419 19q292 14 529 45q4 40 4 106q0 227 -107 343t-357 116q-122 0 -209.5 -28.5t-141 -78t-84.5 -131.5t-42 -172.5t-11 -218.5zM969 2194l212 318h239l-338 -501h-219l-345 501h243z
" />
    <glyph glyph-name="Gbreve" unicode="&#x11e;" horiz-adv-x="2136" 
d="M1189 992v255h735v-866q0 -231 -170 -323q-130 -70 -416 -80q-73 -2 -182 -2q-163 0 -291 23t-227.5 67.5t-171.5 117.5t-121.5 165t-79 219t-42 270.5t-12.5 326.5q0 217 17.5 379.5t59.5 300t111.5 229.5t175 157t248.5 94t333 29q397 0 703 -58l-28 -254
q-286 39 -579 39q-377 0 -536 -156q-121 -117 -153 -361q-18 -134 -18 -399q0 -321 30 -471q46 -227 192 -330q161 -115 485 -115q70 0 123.5 6.5t90.5 16.5t62.5 28.5t40 36.5t22 47t9.5 53t2 61v494h-413zM701 2920h185q14 -85 74.5 -142t162.5 -57t162.5 57t74.5 142h186
q-8 -79 -36.5 -144t-78.5 -116.5t-129 -80t-179 -28.5t-178.5 28.5t-129 79.5t-79 116.5t-35.5 144.5z" />
    <glyph glyph-name="gbreve" unicode="&#x11f;" horiz-adv-x="1945" 
d="M300 -613l26 232q358 -52 624 -52q124 0 208 23t134 72.5t71.5 121t21.5 176.5v114q-232 -58 -444 -58q-204 0 -343.5 44.5t-235.5 149t-139.5 276t-43.5 424.5q0 204 31 354t92.5 254.5t161 167.5t228.5 91t304 28q184 0 363 -36.5t320 -112.5q12 -155 12 -315v-1471
q0 -131 -36 -229t-97 -158.5t-152.5 -97.5t-189.5 -51t-221 -14q-293 0 -695 67zM996 1562q-91 0 -163 -15.5t-125 -44t-91.5 -73t-63 -96t-39.5 -121t-20.5 -141t-5.5 -161.5q0 -99 4.5 -170t18 -143.5t37.5 -121t64 -92.5t96.5 -69t135 -39.5t180.5 -14.5q84 0 183.5 17.5
t177.5 43.5v909q0 156 -8 261q-72 34 -176.5 52.5t-204.5 18.5zM1226 2464h186q-7 -90 -35.5 -165.5t-79 -134t-129.5 -91.5t-179 -33t-178.5 33t-129 91.5t-79 134t-35.5 165.5h186q13 -98 73.5 -163.5t162.5 -65.5q103 0 163.5 65.5t73.5 163.5z" />
    <glyph glyph-name="Idotaccent" unicode="&#x130;" horiz-adv-x="871" 
d="M437 2555q-76 0 -129 52.5t-53 128.5q0 77 53 129.5t129 52.5q77 0 128.5 -52.5t51.5 -129.5t-51.5 -129t-128.5 -52zM272 0v2330h327v-2330h-327z" />
    <glyph glyph-name="dotlessi" unicode="&#x131;" horiz-adv-x="800" 
d="M247 0v1781h307v-1781h-307z" />
    <glyph glyph-name="Lacute" unicode="&#x139;" horiz-adv-x="1630" 
d="M1599 260v-254q-309 -12 -552 -12q-277 0 -412 31q-234 53 -317 229q-51 109 -51 271v1805h326v-1665q0 -88 6 -146t25 -106.5t48.5 -75.5t81.5 -45.5t118.5 -25t165.5 -6.5h561zM995 2949l-438 -405h-259l324 405h373z" />
    <glyph glyph-name="lacute" unicode="&#x13a;" horiz-adv-x="787" 
d="M217 461v2008h307v-1991q0 -133 32.5 -234t104.5 -193l-264 -130q-91 103 -135.5 231.5t-44.5 308.5zM247 2630l324 405h373l-438 -405h-259z" />
    <glyph glyph-name="Lcaron" unicode="&#x13d;" horiz-adv-x="1630" 
d="M1599 260v-254q-309 -12 -552 -12q-276 0 -411 30q-234 53 -317 229q-52 109 -52 272v1805h326v-1665q0 -88 6 -146t25 -106.5t48.5 -75.5t81.5 -45.5t118.5 -25t165.5 -6.5h561zM1285 2330l-246 -671h-206l172 671h280z" />
    <glyph glyph-name="lcaron" unicode="&#x13e;" horiz-adv-x="787" 
d="M217 461v2008h307v-1991q0 -133 32.5 -234t104.5 -193l-264 -130q-91 103 -135.5 231.5t-44.5 308.5zM693 1798l172 671h280l-245 -671h-207z" />
    <glyph glyph-name="Lslash" unicode="&#x141;" horiz-adv-x="1783" 
d="M419 1176v1154h327v-925l512 358v-261l-512 -358v-479q0 -88 6 -146t24.5 -106.5t48 -75.5t81.5 -45.5t118.5 -25t165.5 -6.5h561v-254q-309 -12 -552 -12q-277 0 -412 31q-234 53 -317 229q-51 109 -51 271v390l-288 -201v261z" />
    <glyph glyph-name="lslash" unicode="&#x142;" horiz-adv-x="884" 
d="M583 1284v-806q0 -133 32.5 -234t104.5 -193l-264 -130q-91 103 -135.5 231.5t-44.5 308.5v575l-273 -220v268l273 220v1165h307v-917l285 231v-269z" />
    <glyph glyph-name="Nacute" unicode="&#x143;" horiz-adv-x="2341" 
d="M765 2144l1006 -1728v1914h295v-2119q0 -120 -52.5 -177.5t-148.5 -57.5q-90 0 -156.5 49.5t-132.5 162.5l-1006 1730v-1918h-294v2119q0 120 53 177.5t147 57.5q87 0 156 -50t133 -160zM980 2539l323 405h374l-438 -405h-259z" />
    <glyph glyph-name="nacute" unicode="&#x144;" horiz-adv-x="1994" 
d="M557 1221v-1221h-306v1338q0 160 12 315q330 152 804 152q130 0 232 -18t172.5 -47.5t121.5 -78t80 -99.5t46 -123t22 -137t5 -152v-1150h-306v1107q0 72 -4.5 124t-16.5 102t-33.5 83t-55.5 62t-84 45t-116.5 25t-154.5 9q-102 0 -221 -21t-189 -54q-8 -104 -8 -261z
M819 2026l303 501h349l-410 -501h-242z" />
    <glyph glyph-name="Ncaron" unicode="&#x147;" horiz-adv-x="2342" 
d="M765 2144l1007 -1728v1914h295v-2119q0 -119 -52.5 -177t-148.5 -58q-90 0 -156.5 49.5t-132.5 162.5l-1006 1730v-1918h-295v2119q0 120 53 177.5t148 57.5q86 0 155 -50t133 -160zM687 2934h261l222 -258l227 258h256l-362 -405h-234z" />
    <glyph glyph-name="ncaron" unicode="&#x148;" horiz-adv-x="1994" 
d="M556 1221v-1221h-305v1338q0 160 12 315q330 152 804 152q129 0 231 -18t173 -47.5t122 -78t80 -99.5t46 -123t22 -137t5 -152v-1150h-307v1107q0 85 -6 143t-23.5 112.5t-49 87.5t-83 59t-126 37t-176.5 11t-221.5 -21t-188.5 -54q-9 -117 -9 -261zM546 2519h244
l208 -318l212 318h239l-338 -501h-219z" />
    <glyph glyph-name="Ohungarumlaut" unicode="&#x150;" horiz-adv-x="2253" 
d="M1127 -24q-178 0 -314 29t-238 92.5t-170.5 156t-111 229t-60.5 301t-18 381.5t18 381.5t60.5 301t111 229t170.5 156t238 92.5t314 29t314 -29t238 -92.5t170 -156t110.5 -229t60.5 -301t18 -381.5t-18 -381.5t-60.5 -301t-110.5 -229t-170 -156t-238 -92.5t-314 -29z
M1127 245q318 0 449 172q100 130 122 405q9 118 9 343q0 330 -26 479q-41 240 -180 343q-131 98 -374 98q-317 0 -449 -170q-99 -129 -121 -401q-10 -118 -10 -349q0 -327 25 -474q40 -241 176 -345q132 -101 379 -101zM676 2551l307 404h362l-421 -404h-248zM1231 2551
l307 404h362l-421 -404h-248z" />
    <glyph glyph-name="ohungarumlaut" unicode="&#x151;" horiz-adv-x="1966" 
d="M983 -24q-220 0 -367.5 48.5t-242.5 159.5t-136 282t-41 425t41 424.5t136 281.5t243 159.5t367 48.5t367.5 -50t243 -162t135.5 -282t41 -420t-41 -420t-135.5 -282.5t-243 -162.5t-367.5 -50zM983 226q188 0 290 61t146 202.5t44 401.5q0 195 -22.5 319t-79.5 203
t-146.5 110.5t-231.5 31.5q-94 0 -162.5 -12t-123.5 -42.5t-90 -78.5t-58.5 -123.5t-33.5 -174t-10 -233.5q0 -162 15 -273.5t47.5 -189.5t90.5 -121.5t135 -62t190 -18.5zM550 2048l287 500h338l-393 -500h-232zM1069 2048l287 500h338l-393 -500h-232z" />
    <glyph glyph-name="OE" unicode="&#x152;" horiz-adv-x="3271" 
d="M3080 2070h-603q-99 0 -165.5 -6.5t-118.5 -25t-81.5 -45.5t-48 -75.5t-24.5 -107t-6 -146.5v-348h1001v-259h-1001v-392q0 -89 6 -147t25 -106.5t48 -75t81 -45t118.5 -25t165.5 -6.5h603v-252q-312 -14 -593 -14q-86 0 -144 2t-134 8.5t-130 21t-109.5 37.5t-97.5 60.5
t-72 87.5q-102 -122 -266 -178.5t-407 -56.5q-178 0 -314 29t-238 92.5t-170.5 156t-111 229t-60.5 301t-18 381.5t18 381.5t60.5 301t111 229t170.5 156t238 92.5t314 29q242 0 406.5 -57t266.5 -178q30 50 72 87t98 60.5t110 38t129 21t133.5 8.5t144.5 2q254 0 593 -15
v-251zM1127 245q318 0 450 172q100 131 122 407q9 117 9 341q0 330 -26 480q-42 240 -181 343q-132 97 -374 97q-317 0 -449 -170q-99 -129 -121 -401q-10 -118 -10 -349q0 -327 25 -474q40 -241 176 -345q132 -101 379 -101z" />
    <glyph glyph-name="oe" unicode="&#x153;" horiz-adv-x="3199" 
d="M983 1805q236 0 390 -62t242 -196q88 133 241.5 195.5t391.5 62.5q183 0 318.5 -39t221.5 -107.5t138 -175.5t72.5 -229t20.5 -282q0 -91 -5 -152q-149 -26 -416.5 -52t-457.5 -34l-372 -16q19 -268 140 -380t396 -112q267 0 633 48l27 -236q-125 -19 -213.5 -30.5
t-236.5 -21.5t-307 -10q-412 0 -586 267q-88 -139 -242.5 -203t-395.5 -64q-220 0 -368 48.5t-242.5 159.5t-135.5 282t-41 425t41 424.5t135.5 281.5t242.5 159.5t368 48.5zM983 1555q-94 0 -162.5 -12t-123.5 -42.5t-90 -78.5t-58.5 -123.5t-33.5 -174t-10 -233.5
q0 -162 15 -273.5t47.5 -189.5t90.5 -121.5t135 -62t190 -18.5q141 0 230.5 31.5t146.5 110.5t79.5 203t22.5 320t-22.5 319.5t-79 202.5t-146 110.5t-231.5 31.5zM1760 937l418 19q294 14 529 45q4 40 4 106q0 111 -24 193.5t-77.5 143.5t-143.5 91.5t-218 30.5
q-122 0 -209.5 -28.5t-141 -78t-84.5 -131.5t-42 -172.5t-11 -218.5z" />
    <glyph glyph-name="Racute" unicode="&#x154;" horiz-adv-x="2108" 
d="M598 0h-325v2296q339 58 726 58q116 0 209 -7t190.5 -26.5t171.5 -52t141 -86.5t110.5 -126.5t68.5 -175t25 -230.5q0 -162 -37 -284t-108.5 -202t-166 -128.5t-219.5 -73.5l557 -962h-380l-519 932h-16q-150 0 -428 15v-947zM598 2070v-860q161 -18 401 -18
q117 0 205.5 12.5t163.5 44t122.5 83t74 131.5t26.5 188q0 243 -131.5 345t-448.5 102q-204 0 -413 -28zM1509 2950l-437 -406h-258l323 406h372z" />
    <glyph glyph-name="racute" unicode="&#x155;" horiz-adv-x="1175" 
d="M555 0h-305v1341q0 160 12 315q141 76 320 112.5t363 36.5q93 0 166 -7l-24 -251q-60 7 -142 7q-100 0 -204.5 -18.5t-176.5 -52.5q-9 -119 -9 -261v-1222zM757 2529h349l-410 -501h-242z" />
    <glyph glyph-name="Rcaron" unicode="&#x158;" horiz-adv-x="2108" 
d="M598 0h-325v2296q339 58 726 58q116 0 209 -7t190.5 -26.5t171.5 -52t141 -86.5t110.5 -126.5t68.5 -175t25 -230.5q0 -162 -37 -284t-108.5 -202t-166 -128.5t-219.5 -73.5l557 -962h-380l-519 932h-16q-150 0 -428 15v-947zM598 2070v-860q161 -18 401 -18
q117 0 205.5 12.5t163.5 44t122.5 83t74 131.5t26.5 188q0 243 -131.5 345t-448.5 102q-204 0 -413 -28zM1028 2692l227 258h256l-362 -405h-234l-370 405h260z" />
    <glyph glyph-name="rcaron" unicode="&#x159;" horiz-adv-x="1175" 
d="M555 0h-305v1341q0 160 12 315q140 76 319.5 112.5t363.5 36.5q93 0 166 -7l-25 -251q-59 7 -141 7q-101 0 -205 -18.5t-176 -52.5q-9 -119 -9 -261v-1222zM468 2519l208 -318l212 318h239l-338 -501h-219l-345 501h243z" />
    <glyph glyph-name="Sacute" unicode="&#x15a;" horiz-adv-x="1784" 
d="M1073 2082q-67 0 -119.5 -2t-116 -10t-111 -21.5t-95 -37.5t-78 -57t-49.5 -81.5t-19 -109.5q0 -172 84 -257q66 -67 232 -121q54 -17 188 -55q127 -35 221 -73.5t176.5 -95t134 -127t81 -168.5t29.5 -221q0 -181 -55 -310.5t-164 -208t-261.5 -114.5t-358.5 -36
q-329 0 -621 60l31 262q318 -46 580 -46q96 0 169 9t140 34.5t109.5 67.5t67.5 110t25 160q0 181 -127 277q-81 62 -271 122l-77 23q-86 26 -148 47t-129.5 49t-114 57t-93 66t-76 81t-53.5 98t-34.5 120.5t-10.5 145.5q0 177 52.5 301t158.5 196.5t251 105t346 32.5
q308 0 614 -59l-29 -255q-290 42 -479 42zM1449 2957l-438 -405h-260l324 405h374z" />
    <glyph glyph-name="sacute" unicode="&#x15b;" horiz-adv-x="1599" 
d="M930 1557q-50 0 -81.5 -0.5t-83.5 -5t-85.5 -12.5t-74 -24t-64 -39t-40 -58t-16.5 -80q0 -39 10 -72t23.5 -57t41 -45.5t49.5 -35t63 -29.5t66 -24l75 -23l76 -23q224 -71 314 -119q150 -80 204 -208q37 -88 37 -214q0 -117 -34.5 -207t-94.5 -147t-148.5 -93
t-187.5 -50.5t-221 -14.5q-312 0 -590 64l30 235q261 -46 466 -46h63.5t66 2.5t71.5 6.5t66.5 12t64.5 20t53 31t45 42.5t27 57t11 73.5q0 135 -98 203q-59 40 -211 85q-10 3 -29 8l-57 17q-198 60 -272 92q-177 79 -242 213q-45 94 -45 224q0 112 31 197t85 140t134 89.5
t170 48.5t202 14q313 0 605 -64l-30 -230q-250 46 -445 46zM1322 2539l-410 -501h-242l303 501h349z" />
    <glyph glyph-name="Scedilla" unicode="&#x15e;" horiz-adv-x="1784" 
d="M1581 2295l-29 -255q-290 42 -480 42q-67 0 -119.5 -2t-116 -10t-111 -21.5t-95 -37.5t-77.5 -57t-49 -81.5t-19 -109.5q0 -172 84 -257q66 -67 232 -121q54 -17 188 -55q127 -35 221 -73.5t176.5 -95t134 -127t81 -168.5t29.5 -221q0 -299 -148.5 -456t-441.5 -197
l-99 -156q106 -6 182.5 -68t76.5 -164q0 -72 -30 -126.5t-82 -85.5t-115 -46.5t-136 -15.5q-143 0 -251 62l52 139q103 -49 198 -49q60 0 103 25.5t43 82.5q0 40 -29.5 70t-75.5 46t-91 23.5t-85 7.5l142 240q-8 0 -26 -0.5t-26 -0.5q-329 0 -621 60l31 262q318 -46 580 -46
q96 0 169 9t140 34.5t109.5 67.5t67.5 110t25 160q0 181 -127 277q-81 62 -271 122l-77 23q-86 26 -148 47t-129.5 49t-114 57t-93 66t-76 81t-53.5 98t-34.5 120.5t-10.5 145.5q0 142 34.5 249.5t99.5 181t165.5 119t224.5 65.5t284 20q308 0 614 -59z" />
    <glyph glyph-name="scedilla" unicode="&#x15f;" horiz-adv-x="1599" 
d="M964 -11l-98 -154q107 -6 183 -68t76 -164q0 -72 -30 -126.5t-81.5 -85.5t-115 -46.5t-136.5 -15.5q-143 0 -251 62l52 139q103 -49 199 -49q60 0 102.5 25.5t42.5 82.5q0 40 -29.5 70t-75 46t-90.5 23.5t-86 7.5l143 240h-11q-312 0 -589 64l30 235q259 -46 465 -46
h63.5t66 2.5t71.5 6.5t66.5 12t65 20t53.5 31t45 42.5t27 57t11 73.5q0 41 -9 75.5t-23 59.5t-40 46.5t-50 36t-63.5 29.5t-71 24.5l-81.5 24.5l-58 17q-198 60 -270 92q-177 79 -242 212q-46 94 -46 225q0 112 31 197t85 140t134 89.5t170 48.5t202 14q312 0 604 -64
l-29 -230q-250 46 -446 46q-50 0 -81 -0.5t-83 -5t-86 -12.5t-74.5 -24t-64 -39t-40 -58t-16.5 -80q0 -39 10 -72t23.5 -57t41.5 -46t49 -35t63 -29t66.5 -24t75 -23t75.5 -23q224 -72 313 -119q150 -79 204 -204q39 -90 39 -218q0 -120 -34.5 -210t-100.5 -148.5t-151 -92
t-195 -48.5z" />
    <glyph glyph-name="Scaron" unicode="&#x160;" horiz-adv-x="1783" 
d="M1072 2082q-67 0 -119.5 -2t-116 -10t-111 -21.5t-95 -37.5t-77.5 -57t-49 -81.5t-19 -109.5q0 -173 84 -258q66 -66 232 -120q54 -18 187 -55q127 -35 221 -73.5t176.5 -95t134 -127t81 -168.5t29.5 -221q0 -182 -54.5 -311t-164 -207.5t-261.5 -114.5t-359 -36
q-329 0 -621 60l32 262q318 -46 579 -46q96 0 169.5 9t140 34.5t109.5 67.5t68 110t25 160q0 181 -127 277q-81 62 -271 122l-77 23q-99 30 -168 54t-143.5 57.5t-123.5 68.5t-95 83t-72 105t-41.5 131.5t-15.5 164.5q0 142 34.5 249.5t99.5 181t165.5 119t224 65.5
t283.5 20q309 0 615 -59l-30 -255q-288 42 -479 42zM924 2699l227 258h255l-361 -405h-234l-370 405h260z" />
    <glyph glyph-name="scaron" unicode="&#x161;" horiz-adv-x="1599" 
d="M930 1557q-50 0 -81 -0.5t-83 -5t-86 -12.5t-74.5 -24t-64 -39t-40 -58t-16.5 -80q0 -39 10 -72t23.5 -57t41.5 -46t49 -35t63 -29t66.5 -24t75 -23t75.5 -23q224 -72 313 -119q150 -79 204 -204q39 -90 39 -218q0 -117 -34.5 -207t-94.5 -147t-148.5 -93t-188 -50.5
t-221.5 -14.5q-312 0 -589 64l30 235q259 -46 465 -46h63.5t66 2.5t71.5 6.5t66.5 12t64.5 20t53 31t45 42.5t27 57t11 73.5q0 135 -98 203q-59 40 -211 85q-10 3 -29 8l-57 17q-198 60 -272 92q-176 79 -241 213q-45 94 -45 224q0 139 46 236.5t132.5 151.5t194.5 77.5
t249 23.5q312 0 604 -64l-29 -230q-250 46 -446 46zM806 2204l212 318h239l-338 -501h-219l-345 501h243z" />
    <glyph glyph-name="uni0162" unicode="&#x162;" horiz-adv-x="1697" 
d="M1629 2330v-263h-617v-2067h-327v2067h-616v263h1560zM562 -825l159 624h261l-228 -624h-192z" />
    <glyph glyph-name="uni0163" unicode="&#x163;" horiz-adv-x="1206" 
d="M395 2234l306 50v-503h385v-234h-385v-1063q0 -81 15 -132.5t50 -81.5t83.5 -41t124.5 -11q52 0 115 5l24 -225q-130 -22 -228 -22q-257 0 -373.5 114.5t-116.5 360.5v1096h-314v234h314v453zM469 -838l160 624h260l-228 -624h-192z" />
    <glyph glyph-name="Tcaron" unicode="&#x164;" horiz-adv-x="1697" 
d="M1629 2330v-263h-617v-2067h-327v2067h-616v263h1560zM365 2914h260l223 -258l227 258h255l-361 -405h-235z" />
    <glyph glyph-name="tcaron" unicode="&#x165;" horiz-adv-x="1207" 
d="M395 2234l307 50v-503h384v-234h-384v-1063q0 -81 15 -132.5t49.5 -81.5t83 -41t124.5 -11q52 0 115 5l24 -225q-128 -22 -228 -22q-257 0 -373.5 114.5t-116.5 360.5v1096h-314v234h314v453zM890 1998l172 671h280l-245 -671h-207z" />
    <glyph glyph-name="Uring" unicode="&#x16e;" horiz-adv-x="2227" 
d="M1961 2330v-1568q0 -183 -40 -320t-110.5 -225.5t-179.5 -142.5t-234 -76t-287 -22t-287.5 22t-234 76t-179.5 142.5t-111 225.5t-40 320v1568h323v-1594q0 -255 122 -370.5t407 -115.5t407 115.5t122 370.5v1594h322zM1110 2466q-138 0 -236.5 98t-98.5 236
q0 139 98.5 237t236.5 98t236.5 -98t98.5 -237q0 -138 -98.5 -236t-236.5 -98zM1110 2613q78 0 133 54.5t55 132.5t-55 133t-133 55t-132.5 -55t-54.5 -133t54.5 -132.5t132.5 -54.5z" />
    <glyph glyph-name="uring" unicode="&#x16f;" horiz-adv-x="1986" 
d="M242 631v1150h307v-1107q0 -72 4.5 -124t16 -102t33 -83t55.5 -62t83.5 -45t116 -25t153.5 -9q101 0 219 21t187 54q9 117 9 261v1221h305v-1338q0 -161 -12 -315q-330 -152 -800 -152q-129 0 -231 18t-172.5 47.5t-121 78t-80 99.5t-46 123t-21.5 137t-5 152zM986 1951
q-138 0 -236 98t-98 236q0 139 98 237t236 98q139 0 237 -98t98 -237q0 -138 -98 -236t-237 -98zM986 2098q78 0 133 54.5t55 132.5t-55 133t-133 55q-77 0 -132 -55t-55 -133t55 -132.5t132 -54.5z" />
    <glyph glyph-name="Uhungarumlaut" unicode="&#x170;" horiz-adv-x="2226" 
d="M1960 2330v-1568q0 -183 -40 -320t-110.5 -225.5t-179.5 -142.5t-234 -76t-287 -22t-287 22t-234 76t-179.5 142.5t-110.5 225.5t-40 320v1568h322v-1594q0 -255 122.5 -370.5t406.5 -115.5q285 0 407 115.5t122 370.5v1594h322zM631 2555l307 404h361l-421 -404h-247z
M1185 2555l308 404h362l-421 -404h-249z" />
    <glyph glyph-name="uhungarumlaut" unicode="&#x171;" horiz-adv-x="1986" 
d="M242 631v1150h307v-1107q0 -72 4.5 -124t16 -102t33 -83t55.5 -62t83.5 -45t116 -25t153.5 -9q101 0 219 21t187 54q9 117 9 261v1221h305v-1338q0 -161 -12 -315q-330 -152 -800 -152q-129 0 -231 18t-172.5 47.5t-121 78t-80 99.5t-46 123t-21.5 137t-5 152zM555 2074
l287 500h338l-393 -500h-232zM1074 2074l287 500h338l-393 -500h-232z" />
    <glyph glyph-name="Ydieresis" unicode="&#x178;" horiz-adv-x="1930" 
d="M690 2544q-74 0 -125.5 50.5t-51.5 123.5t51.5 124t125.5 51q73 0 122 -50.5t49 -124.5t-49 -124t-122 -50zM1283 2544q-74 0 -125 50.5t-51 123.5t51 124t125 51q73 0 122.5 -50.5t49.5 -124.5t-49.5 -124t-122.5 -50zM1125 903v-903h-327v903l-745 1427h352l560 -1105
l573 1105h338z" />
    <glyph glyph-name="Zacute" unicode="&#x179;" horiz-adv-x="1836" 
d="M1641 2061l-1093 -1792h1134v-269h-1363q-93 0 -142 32.5t-49 92.5t51 144l1096 1794h-1072v267h1299q94 0 141.5 -32.5t47.5 -92.5q0 -62 -50 -144zM731 2527l324 405h374l-438 -405h-260z" />
    <glyph glyph-name="zacute" unicode="&#x17a;" horiz-adv-x="1786" 
d="M1571 1568l-986 -1317h977v-251h-1287q-61 0 -95 27t-34 73q0 53 46 115l990 1325h-961v241h1267q60 0 94.5 -27.5t34.5 -72.5q0 -51 -46 -113zM730 2044l303 501h349l-410 -501h-242z" />
    <glyph glyph-name="Zdotaccent" unicode="&#x17b;" horiz-adv-x="1836" 
d="M1641 2061l-1093 -1792h1134v-269h-1363q-93 0 -142 32.5t-49 92.5t51 144l1096 1794h-1073v267h1300q94 0 141.5 -32.5t47.5 -92.5q0 -62 -50 -144zM928 2556q-77 0 -130 52.5t-53 128.5q0 77 53 129.5t130 52.5q76 0 127.5 -52.5t51.5 -129.5t-51.5 -129t-127.5 -52z
" />
    <glyph glyph-name="zdotaccent" unicode="&#x17c;" horiz-adv-x="1786" 
d="M1572 1568l-987 -1317h978v-251h-1287q-61 0 -95 27t-34 73q0 56 45 115l991 1325h-961v241h1267q60 0 94.5 -27.5t34.5 -72.5q0 -52 -46 -113zM921 2057q-77 0 -129.5 52.5t-52.5 128.5q0 77 52.5 129.5t129.5 52.5t128.5 -52.5t51.5 -129.5t-51.5 -129t-128.5 -52z" />
    <glyph glyph-name="Zcaron" unicode="&#x17d;" horiz-adv-x="1835" 
d="M1640 2061l-1093 -1792h1135v-269h-1364q-93 0 -141.5 32.5t-48.5 92.5q0 63 50 144l1097 1794h-1073v267h1299q94 0 142 -32.5t48 -92.5q0 -61 -51 -144zM457 2932h261l222 -258l227 258h256l-362 -405h-234z" />
    <glyph glyph-name="zcaron" unicode="&#x17e;" horiz-adv-x="1785" 
d="M1571 1568l-987 -1317h978v-251h-1287q-61 0 -95 27t-34 73q0 53 46 115l990 1325h-961v241h1267q60 0 94.5 -27.5t34.5 -72.5q0 -51 -46 -113zM459 2545h244l208 -318l212 318h239l-338 -501h-219z" />
    <glyph glyph-name="florin" unicode="&#x192;" horiz-adv-x="1536" 
d="M609 1410l50 369q33 239 195 372t407 133q98 0 203 -21l-33 -243q-66 13 -146 13q-83 0 -144.5 -29t-99 -83.5t-58.5 -118t-32 -146.5l-34 -246h430l-32 -241h-431l-135 -980q-43 -315 -217 -478.5t-442 -163.5q-56 0 -105 6l33 241h39q157 0 256.5 87.5t124.5 270.5
l138 1017h-369l32 241h370z" />
    <glyph glyph-name="uni0218" unicode="&#x218;" horiz-adv-x="1784" 
d="M1073 2082q-67 0 -119.5 -2t-116 -10t-111 -21.5t-95 -37.5t-77.5 -57t-49 -81.5t-19 -109.5q0 -172 83 -257q66 -67 231 -120q54 -18 189 -56q127 -35 221 -73.5t176.5 -95t134 -127t81 -168.5t29.5 -221q0 -181 -55 -310.5t-164 -208t-261.5 -114.5t-358.5 -36
q-329 0 -621 60l32 262q317 -46 579 -46q96 0 169 9t140 34.5t109.5 67.5t67.5 110t25 160q0 181 -127 277q-81 62 -271 122l-77 23q-99 30 -168 54t-143 57.5t-123 68.5t-95 83t-72 105t-41.5 131.5t-15.5 164.5q0 142 34.5 249.5t99.5 181t165.5 119t224 65.5t283.5 20
q308 0 614 -59l-29 -255q-290 42 -479 42zM1095 -211l-229 -624h-191l159 624h261z" />
    <glyph glyph-name="uni0219" unicode="&#x219;" horiz-adv-x="1599" 
d="M930 1557q-50 0 -81 -0.5t-83 -5t-86 -12.5t-74.5 -24t-64 -39t-40 -58t-16.5 -80q0 -39 10 -72t23.5 -57t41.5 -46t49 -35t63 -29t66.5 -24t75 -23t75.5 -23q224 -72 313 -119q150 -79 204 -204q39 -90 39 -218q0 -117 -34.5 -207t-94.5 -147t-148.5 -93t-188 -50.5
t-221.5 -14.5q-311 0 -589 64l30 235q259 -46 465 -46h64t66.5 2.5t71 6.5t66.5 12t65 20t53 31t45 42.5t27 57t11 73.5q0 41 -9 75.5t-23 59.5t-40 46.5t-50 36t-63.5 29.5t-71 24.5l-81.5 24.5l-58 17q-198 60 -270 92q-177 79 -242 212q-46 94 -46 225q0 112 31 197
t85 140t134 89.5t170 48.5t202 14q313 0 605 -64l-30 -230q-250 46 -446 46zM1009 -204l-228 -624h-192l159 624h261z" />
    <glyph glyph-name="uni021A" unicode="&#x21a;" horiz-adv-x="1697" 
d="M1628 2330v-263h-617v-2067h-327v2067h-616v263h1560zM561 -825l159 624h261l-228 -624h-192z" />
    <glyph glyph-name="uni021B" unicode="&#x21b;" horiz-adv-x="1207" 
d="M395 2234l306 50v-503h385v-234h-385v-1063q0 -81 15 -132.5t50 -81.5t83.5 -41t124.5 -11q52 0 115 5l24 -225q-130 -22 -228 -22q-257 0 -373.5 114.5t-116.5 360.5v1096h-314v234h314v453zM469 -838l160 624h260l-228 -624h-192z" />
    <glyph glyph-name="circumflex" unicode="&#x2c6;" horiz-adv-x="1135" 
d="M455 2394h219l345 -501h-243l-208 319l-212 -319h-240z" />
    <glyph glyph-name="caron" unicode="&#x2c7;" horiz-adv-x="1075" 
d="M86 2394h244l208 -318l212 318h239l-338 -501h-219z" />
    <glyph glyph-name="uni02C9" unicode="&#x2c9;" horiz-adv-x="1415" 
d="M231 2009v209h952v-209h-952z" />
    <glyph glyph-name="breve" unicode="&#x2d8;" horiz-adv-x="1095" 
d="M784 2356h186q-8 -90 -36.5 -165t-78.5 -134t-129 -92t-179 -33t-178.5 33t-129 91.5t-79 134t-35.5 165.5h185q14 -98 74.5 -163.5t162.5 -65.5t162.5 65.5t74.5 163.5z" />
    <glyph glyph-name="dotaccent" unicode="&#x2d9;" horiz-adv-x="670" 
d="M337 1957q-77 0 -130 52.5t-53 128.5q0 77 53 129.5t130 52.5q76 0 127.5 -52.5t51.5 -129.5t-51.5 -129t-127.5 -52z" />
    <glyph glyph-name="ring" unicode="&#x2da;" horiz-adv-x="977" 
d="M488 1844q-138 0 -236 98t-98 236q0 139 98 237t236 98q139 0 237 -98t98 -237q0 -138 -98 -236t-237 -98zM488 1991q78 0 133 54.5t55 132.5t-55 133t-133 55q-77 0 -132 -55t-55 -133t55 -132.5t132 -54.5z" />
    <glyph glyph-name="ogonek" unicode="&#x2db;" horiz-adv-x="722" 
d="M617 -455l53 -136q-55 -44 -130.5 -69.5t-145.5 -25.5q-133 0 -219 74t-86 200q0 112 70.5 222t163.5 190h181q-199 -196 -199 -342q0 -72 41 -115.5t111 -43.5q89 0 160 46z" />
    <glyph glyph-name="tilde" unicode="&#x2dc;" horiz-adv-x="1193" 
d="M847 2309h178q-14 -174 -87.5 -268t-168.5 -94q-54 0 -97.5 18t-70.5 43.5t-49.5 50.5t-47 43t-50.5 18q-42 0 -68 -39.5t-39 -125.5h-179q14 173 88 267t168 94q54 0 97.5 -17.5t70.5 -43t50 -51t47.5 -43t50.5 -17.5q81 0 107 165z" />
    <glyph glyph-name="hungarumlaut" unicode="&#x2dd;" horiz-adv-x="1291" 
d="M103 1882l287 500h338l-393 -500h-232zM621 1882l287 500h339l-393 -500h-233z" />
    <glyph glyph-name="uni03A9" unicode="&#x3a9;" horiz-adv-x="2490" 
d="M172 0v259h451q-180 179 -291.5 430.5t-111.5 551.5q0 241 80 449.5t218.5 353.5t330 227.5t409.5 82.5q151 0 289.5 -41.5t249 -115.5t200.5 -177t150.5 -224.5t93 -259.5t32.5 -282q0 -158 -32.5 -308.5t-89.5 -275.5t-128.5 -227.5t-155.5 -183.5h451v-259h-872v198
q101 64 190 159t163.5 220.5t118.5 290t44 344.5q0 125 -28 249.5t-86.5 238.5t-140.5 201.5t-199 140t-253 52.5q-131 0 -245.5 -45t-201 -126.5t-149.5 -191.5t-95 -244.5t-32 -281.5q0 -170 44 -331.5t118 -289t164.5 -226t189.5 -160.5v-198h-876z" />
    <glyph glyph-name="uni03BC" unicode="&#x3bc;" horiz-adv-x="2043" 
d="M301 -656v2437h286v-1116q0 -122 39 -216t121 -150.5t197 -56.5q113 0 200.5 53.5t142.5 150.5t83.5 228.5t28.5 290.5v816h288v-1138q0 -57 0.5 -84.5t2 -75t5.5 -72t11.5 -60.5t19 -56t27.5 -43t39 -37.5t52 -24.5v-214q-79 0 -143 20.5t-106.5 54.5t-75 83t-50.5 99.5
t-30 111.5h-2q-75 -180 -203.5 -274.5t-289.5 -94.5q-108 0 -194.5 40t-163.5 126v-798h-285z" />
    <glyph glyph-name="pi" unicode="&#x3c0;" horiz-adv-x="2273" 
d="M2151 1518h-433q-50 -293 -50 -685q0 -306 100 -456t318 -150l-22 -251q-119 0 -216 19.5t-167.5 53.5t-123.5 86t-86.5 111.5t-54 136.5t-28.5 155t-8 172q0 385 62 808h-584q-33 -531 -85 -929t-111 -589h-323q96 319 149 665.5t94 851.5h-110q-93 0 -164 -17t-164 -62
l-74 172q165 171 509 171h1602z" />
    <glyph glyph-name="uni200A" unicode="&#x200a;" horiz-adv-x="73" 
 />
    <glyph glyph-name="uni2010" unicode="&#x2010;" horiz-adv-x="1314" 
d="M227 755v261h860v-261h-860z" />
    <glyph glyph-name="endash" unicode="&#x2013;" horiz-adv-x="2061" 
d="M227 763v245h1607v-245h-1607z" />
    <glyph glyph-name="emdash" unicode="&#x2014;" horiz-adv-x="3614" 
d="M227 763v245h3160v-245h-3160z" />
    <glyph glyph-name="quoteleft" unicode="&#x2018;" horiz-adv-x="762" 
d="M138 1675l291 794h247l-203 -794h-335z" />
    <glyph glyph-name="quoteright" unicode="&#x2019;" horiz-adv-x="762" 
d="M138 1675l203 794h335l-291 -794h-247z" />
    <glyph glyph-name="quotesinglbase" unicode="&#x201a;" horiz-adv-x="757" 
d="M86 -415l203 794h335l-291 -794h-247z" />
    <glyph glyph-name="quotedblleft" unicode="&#x201c;" horiz-adv-x="1304" 
d="M138 1675l290 794h248l-203 -794h-335zM679 1675l291 794h248l-203 -794h-336z" />
    <glyph glyph-name="quotedblright" unicode="&#x201d;" horiz-adv-x="1304" 
d="M138 1675l203 794h335l-291 -794h-247zM680 1675l203 794h335l-290 -794h-248z" />
    <glyph glyph-name="quotedblbase" unicode="&#x201e;" horiz-adv-x="1300" 
d="M86 -415l203 794h336l-291 -794h-248zM628 -415l203 794h336l-291 -794h-248z" />
    <glyph glyph-name="dagger" unicode="&#x2020;" horiz-adv-x="1811" 
d="M748 1727v649h303v-649h637v-260h-637v-1887h-303v1887h-625v260h625z" />
    <glyph glyph-name="daggerdbl" unicode="&#x2021;" horiz-adv-x="1889" 
d="M792 -420v1147h-627v257h627v558h-627v260h627v574h302v-574h629v-260h-629v-558h629v-257h-629v-1147h-302z" />
    <glyph glyph-name="bullet" unicode="&#x2022;" horiz-adv-x="1281" 
d="M641 658q-191 0 -326 135t-135 326q0 125 61.5 231t168 168t231.5 62q190 0 325 -135.5t135 -325.5q0 -191 -135 -326t-325 -135z" />
    <glyph glyph-name="ellipsis" unicode="&#x2026;" horiz-adv-x="2917" 
d="M392 -24q-108 0 -146.5 43.5t-38.5 157.5t39.5 158.5t145.5 44.5t145.5 -44.5t39.5 -158.5t-39 -157.5t-146 -43.5zM1459 -24q-108 0 -146.5 43.5t-38.5 157.5t39.5 158.5t145.5 44.5q105 0 144.5 -44.5t39.5 -158.5t-38.5 -157.5t-145.5 -43.5zM2525 -24
q-108 0 -146.5 43.5t-38.5 157.5t39.5 158.5t145.5 44.5t145.5 -44.5t39.5 -158.5t-39 -157.5t-146 -43.5z" />
    <glyph glyph-name="perthousand" unicode="&#x2030;" horiz-adv-x="3961" 
d="M652 966q-103 0 -180.5 18.5t-133 58t-91.5 93.5t-56.5 135t-29 171t-8.5 212t8.5 212t29 171t56.5 135t91.5 93.5t133 58t180.5 18.5t180.5 -18.5t133 -58t91.5 -93.5t56.5 -135t29 -171t8.5 -212t-8.5 -212t-29 -171t-56.5 -135t-91.5 -93.5t-133 -58t-180.5 -18.5z
M652 1144q39 0 71.5 5.5t58 18.5t45.5 28t35 40t25.5 48.5t17.5 59t11.5 65.5t6.5 75.5t2.5 81t0.5 88.5t-0.5 88.5t-2.5 80.5t-6.5 75t-11.5 66t-17.5 59t-25.5 48t-35 40.5t-45.5 28.5t-58 18.5t-71.5 5.5q-43 0 -78.5 -8t-62.5 -21t-47.5 -36.5t-34 -46.5t-23.5 -61
t-15 -69.5t-8 -81.5t-3.5 -88t-0.5 -98q0 -227 22 -318q33 -138 139 -175q47 -17 112 -17zM2128 -12q-103 0 -180.5 18.5t-132.5 58t-91 93.5t-56.5 135t-29 171.5t-8.5 212.5q0 121 8.5 211.5t29 171t56.5 135t91 94t132.5 58t180.5 18.5q124 0 211.5 -28.5t143.5 -80
t88.5 -139t44.5 -191t12 -249.5q0 -147 -12 -250.5t-44.5 -191t-88.5 -139.5t-143.5 -80t-211.5 -28zM2128 167q166 0 226 118q43 87 47 294q1 38 1 98t-0.5 98t-3.5 88t-8 81.5t-15 69.5t-24 61t-34.5 46.5t-47 36.5t-62 21t-79.5 8q-43 0 -78.5 -8t-62 -21t-47 -36.5
t-34.5 -46.5t-23.5 -61t-14.5 -69.5t-8 -81.5t-3.5 -88t-0.5 -98t0.5 -98t3.5 -88.5t8 -81.5t14.5 -69t23.5 -61t34.5 -47t47 -36.5t62 -20.5t78.5 -8zM3301 -12q-103 0 -180.5 18.5t-133 58t-91.5 93.5t-56.5 135t-29 171.5t-8.5 212.5q0 121 8.5 211.5t29 171t56.5 135
t91.5 94t133 58t180.5 18.5q124 0 211.5 -28.5t143.5 -80t88 -139t44 -190.5t12 -250q0 -122 -8 -212.5t-29 -171.5t-57 -135t-91 -93.5t-133 -58t-181 -18.5zM3301 167q39 0 71.5 5.5t58 18.5t45.5 28t35 40t25.5 48.5t17.5 59t11.5 65.5t6.5 75.5t2.5 81t0.5 88.5
t-0.5 88.5t-2.5 80.5t-6.5 75t-11.5 66t-17.5 59t-25.5 48t-35 40.5t-45.5 28.5t-58 18.5t-71.5 5.5q-49 0 -87.5 -8.5t-66.5 -29t-48 -43t-33 -62t-20.5 -72.5t-11 -88.5t-4.5 -97t-1 -109.5q0 -61 0.5 -98.5t3.5 -88t8 -81.5t14.5 -69t23.5 -61t34.5 -47t47 -36.5
t62 -20.5t78.5 -8zM589 -48l1367 2426h235l-1368 -2426h-234z" />
    <glyph glyph-name="guilsinglleft" unicode="&#x2039;" horiz-adv-x="1036" 
d="M452 862l430 -669h-302l-474 669l474 670h302z" />
    <glyph glyph-name="guilsinglright" unicode="&#x203a;" horiz-adv-x="1036" 
d="M930 862l-474 -669h-302l430 669l-429 670h301z" />
    <glyph glyph-name="fraction" unicode="&#x2044;" horiz-adv-x="531" 
d="M-536 -48l1368 2426h235l-1369 -2426h-234z" />
    <glyph glyph-name="uni2070" unicode="&#x2070;" horiz-adv-x="1264" 
d="M632 1350q-103 0 -180.5 18.5t-133 58t-91.5 94t-56.5 135t-29 171t-8.5 211.5q0 122 8.5 212t29 171t56.5 135.5t91.5 94t133 58t180.5 18.5t180.5 -18.5t133 -58t92 -94t57 -135t29 -171t8.5 -212.5q0 -146 -12.5 -249.5t-44.5 -191t-88 -139t-144 -80t-211 -28.5z
M632 1530q43 0 78.5 8t62.5 20.5t47.5 36t34.5 46.5t23.5 60.5t15 69t8.5 81.5t3.5 88t0.5 98q0 228 -22 319q-34 138 -142 175q-47 16 -110 16q-166 0 -225 -118q-44 -86 -47 -293q-1 -38 -1 -99q0 -60 0.5 -98t3.5 -88t8 -81.5t15 -69t23.5 -60.5t34 -46.5t47.5 -36
t62.5 -20.5t78.5 -8z" />
    <glyph glyph-name="uni2074" unicode="&#x2074;" horiz-adv-x="1197" 
d="M719 1362v313h-504q-88 0 -123 32t-35 90q0 68 84 176l500 644q45 58 87.5 83t93.5 25q53 0 86 -34t33 -100v-743h175v-173h-175v-313h-222zM720 2410l-428 -562h428v562z" />
    <glyph glyph-name="uni2075" unicode="&#x2075;" horiz-adv-x="1131" 
d="M375 2527l-22 -328q90 3 96 3q78 0 138 -4t122.5 -14.5t108 -29.5t86.5 -50.5t66.5 -74.5t40.5 -103.5t15 -137.5q0 -229 -126.5 -332t-379.5 -103q-208 0 -420 44l24 172q208 -30 339 -30q95 0 153 10.5t100.5 39.5t60 82t17.5 138q0 56 -22 97t-55.5 64t-87.5 36
t-105 17t-121 4q-132 0 -273 -8l48 696h813v-188h-616z" />
    <glyph glyph-name="uni2076" unicode="&#x2076;" horiz-adv-x="1225" 
d="M642 2211q79 0 141.5 -8t119 -26t97 -50t70 -78t44.5 -112t15 -150q0 -104 -24.5 -181t-67 -126.5t-109 -79.5t-142 -41.5t-174.5 -11.5q-117 0 -202.5 26t-140 71.5t-87 117t-45 153.5t-12.5 190q0 121 7 214.5t24 176t44.5 142.5t70 109.5t98 81.5t131.5 54t168 31.5
t209 9.5q7 0 145 -3l18 -175q-29 -1 -83.5 -2.5t-88.5 -3t-86.5 -5.5t-87 -10.5t-79.5 -19.5t-75 -30t-63 -43.5t-54 -60.5t-36.5 -80t-21.5 -102q170 22 277 22zM605 2039q-88 0 -253 -23q-3 -44 -3 -137q0 -61 4.5 -106.5t20.5 -94t43 -80t75.5 -51.5t114.5 -20
q168 0 233 58.5t65 204.5q0 76 -18.5 126t-59.5 76.5t-92.5 36.5t-129.5 10z" />
    <glyph glyph-name="uni2077" unicode="&#x2077;" horiz-adv-x="1039" 
d="M976 2534l-532 -1169h-253l561 1161h-697v187h799q69 0 105.5 -28t36.5 -77q0 -31 -20 -74z" />
    <glyph glyph-name="uni2078" unicode="&#x2078;" horiz-adv-x="1231" 
d="M615 2727q80 0 149 -10t131.5 -35t106 -62.5t69.5 -96t26 -133.5q0 -118 -39 -191.5t-149 -132.5q102 -55 155 -132t53 -199q0 -92 -26.5 -161t-70.5 -111t-110.5 -68t-136.5 -35.5t-158 -9.5q-114 0 -201.5 19t-157 62t-106 119.5t-36.5 184.5q0 122 52 197.5t156 130.5
q-100 55 -143.5 132t-43.5 195q0 93 37.5 160t105 104.5t151 55t186.5 17.5zM615 1526q63 0 110 9t87.5 31.5t62 66.5t21.5 108q0 117 -71 167t-251 66q-116 -18 -177.5 -72t-61.5 -161q0 -64 21 -107.5t61.5 -66.5t87.5 -32t110 -9zM657 2150q113 22 170 68.5t57 142.5
q0 59 -20.5 99t-60 60t-83.5 27.5t-105 7.5q-60 0 -103 -7.5t-82 -27t-59.5 -59.5t-20.5 -100q0 -99 70 -149.5t237 -61.5z" />
    <glyph glyph-name="uni2079" unicode="&#x2079;" horiz-adv-x="1224" 
d="M580 1866q-95 0 -167 11t-134.5 39.5t-102 76t-62 122t-22.5 175.5q0 129 36 217t107.5 136t161 67.5t213.5 19.5q117 0 202.5 -26t139.5 -71.5t86.5 -117t45 -153t12.5 -190.5q0 -121 -7 -214.5t-24 -176t-44.5 -142.5t-69.5 -110t-97.5 -81.5t-131.5 -53.5t-168 -31.5
t-209 -9.5q-7 0 -145 3l-18 175q29 1 83.5 2.5t88.5 3t86.5 5.5t87 10.5t79.5 19.5t75 30t63 43.5t54 60.5t36.5 80t21.5 102q-170 -22 -277 -22zM617 2038q88 0 253 23q3 44 3 137q0 61 -4.5 106.5t-20.5 94t-43 80t-75.5 51.5t-114.5 20q-168 0 -233 -58.5t-65 -204.5
q0 -76 18.5 -126t59 -76.5t92.5 -36.5t130 -10z" />
    <glyph glyph-name="uni2080" unicode="&#x2080;" horiz-adv-x="1264" 
d="M632 -398q-103 0 -180.5 18.5t-133 58t-91.5 94t-56.5 135t-29 171t-8.5 211.5q0 122 8.5 212t29 171t56.5 135.5t91.5 94t133 58t180.5 18.5t180.5 -18.5t133 -58t92 -94t57 -135t29 -171t8.5 -212.5q0 -146 -12.5 -249.5t-44.5 -191t-88 -139t-144 -80t-211 -28.5z
M632 -218q43 0 78.5 8t62.5 20.5t47.5 36t34.5 46.5t23.5 60.5t15 69t8.5 81.5t3.5 88t0.5 98q0 228 -22 319q-34 138 -142 175q-47 16 -110 16q-166 0 -225 -118q-44 -86 -47 -293q-1 -38 -1 -99q0 -60 0.5 -98t3.5 -88t8 -81.5t15 -69t23.5 -60.5t34 -46.5t47.5 -36
t62.5 -20.5t78.5 -8z" />
    <glyph glyph-name="uni2081" unicode="&#x2081;" horiz-adv-x="751" 
d="M358 -381v1123q-152 -39 -315 -61l-10 177q206 31 374 108h173v-1347h-222z" />
    <glyph glyph-name="uni2082" unicode="&#x2082;" horiz-adv-x="1126" 
d="M134 762l-21 171q245 44 429 44q109 0 192.5 -16.5t149 -54t100.5 -104t35 -159.5q0 -180 -100 -299t-296 -199q-75 -30 -124.5 -63t-79.5 -76t-44.5 -88.5t-25.5 -114.5h669v-189h-927l27 143t27 119.5t31.5 103.5t38.5 85t49.5 74.5t63 61t81.5 56.5t102 49
q70 30 118.5 58t87 63.5t57 80t18.5 99.5q0 108 -73 146.5t-262 38.5q-124 0 -323 -30z" />
    <glyph glyph-name="uni2083" unicode="&#x2083;" horiz-adv-x="1120" 
d="M493 979q69 0 126 -5.5t115 -18.5t101 -38t78 -61t53 -90t18 -123q0 -220 -182 -316q93 -40 148.5 -115.5t55.5 -188.5q0 -119 -35.5 -202t-105.5 -130t-162 -68t-218 -21q-184 0 -404 43l25 172q240 -30 333 -30q179 0 256.5 47t77.5 179q0 91 -46.5 143.5t-129.5 62.5
q-86 11 -245 11h-58v166q176 4 302 24q79 12 119 62.5t40 129.5q0 50 -14.5 85t-37 54.5t-62.5 30t-77.5 13t-95.5 2.5q-130 0 -351 -31l-22 171q228 42 398 42z" />
    <glyph glyph-name="uni2084" unicode="&#x2084;" horiz-adv-x="1197" 
d="M719 -386v313h-504q-88 0 -123 32t-35 90q0 68 84 176l500 644q45 58 87.5 83t93.5 25q53 0 86 -34t33 -100v-743h175v-173h-175v-313h-222zM720 662l-428 -562h428v562z" />
    <glyph glyph-name="uni2085" unicode="&#x2085;" horiz-adv-x="1131" 
d="M375 779l-22 -328q90 3 96 3q78 0 138 -4t122.5 -14.5t108 -29.5t86.5 -50.5t66.5 -74.5t40.5 -103.5t15 -137.5q0 -229 -126.5 -332t-379.5 -103q-208 0 -420 44l24 172q208 -30 339 -30q95 0 153 10.5t100.5 39.5t60 82t17.5 138q0 56 -22 97t-55.5 64t-87.5 36
t-105 17t-121 4q-132 0 -273 -8l48 696h813v-188h-616z" />
    <glyph glyph-name="uni2086" unicode="&#x2086;" horiz-adv-x="1225" 
d="M642 463q79 0 141.5 -8t119 -26t97 -50t70 -78t44.5 -112t15 -150q0 -104 -24.5 -181t-67 -126.5t-109 -79.5t-142 -41.5t-174.5 -11.5q-117 0 -202.5 26t-140 71.5t-87 117t-45 153.5t-12.5 190q0 121 7 214.5t24 176t44.5 142.5t70 109.5t98 81.5t131.5 54t168 31.5
t209 9.5q7 0 145 -3l18 -175q-29 -1 -83.5 -2.5t-88.5 -3t-86.5 -5.5t-87 -10.5t-79.5 -19.5t-75 -30t-63 -43.5t-54 -60.5t-36.5 -80t-21.5 -102q170 22 277 22zM605 291q-88 0 -253 -23q-3 -44 -3 -137q0 -61 4.5 -106.5t20.5 -94t43 -80t75.5 -51.5t114.5 -20
q168 0 233 58.5t65 204.5q0 76 -18.5 126t-59.5 76.5t-92.5 36.5t-129.5 10z" />
    <glyph glyph-name="uni2087" unicode="&#x2087;" horiz-adv-x="1039" 
d="M976 786l-532 -1169h-253l561 1161h-697v187h799q69 0 105.5 -28t36.5 -77q0 -31 -20 -74z" />
    <glyph glyph-name="uni2088" unicode="&#x2088;" horiz-adv-x="1231" 
d="M615 979q80 0 149 -10t131.5 -35t106 -62.5t69.5 -96t26 -133.5q0 -118 -39 -191.5t-149 -132.5q102 -55 155 -132t53 -199q0 -92 -26.5 -161t-70.5 -111t-110.5 -68t-136.5 -35.5t-158 -9.5q-114 0 -201.5 19t-157 62t-106 119.5t-36.5 184.5q0 122 52 197.5t156 130.5
q-100 55 -143.5 132t-43.5 195q0 93 37.5 160t105 104.5t151 55t186.5 17.5zM615 -222q63 0 110 9t87.5 31.5t62 66.5t21.5 108q0 117 -71 167t-251 66q-116 -18 -177.5 -72t-61.5 -161q0 -64 21 -107.5t61.5 -66.5t87.5 -32t110 -9zM657 402q113 22 170 68.5t57 142.5
q0 59 -20.5 99t-60 60t-83.5 27.5t-105 7.5q-60 0 -103 -7.5t-82 -27t-59.5 -59.5t-20.5 -100q0 -99 70 -149.5t237 -61.5z" />
    <glyph glyph-name="uni2089" unicode="&#x2089;" horiz-adv-x="1224" 
d="M580 118q-95 0 -167 11t-134.5 39.5t-102 76t-62 122t-22.5 175.5q0 129 36 217t107.5 136t161 67.5t213.5 19.5q117 0 202.5 -26t139.5 -71.5t86.5 -117t45 -153t12.5 -190.5q0 -121 -7 -214.5t-24 -176t-44.5 -142.5t-69.5 -110t-97.5 -81.5t-131.5 -53.5t-168 -31.5
t-209 -9.5q-7 0 -145 3l-18 175q29 1 83.5 2.5t88.5 3t86.5 5.5t87 10.5t79.5 19.5t75 30t63 43.5t54 60.5t36.5 80t21.5 102q-170 -22 -277 -22zM617 290q88 0 253 23q3 44 3 137q0 61 -4.5 106.5t-20.5 94t-43 80t-75.5 51.5t-114.5 20q-168 0 -233 -58.5t-65 -204.5
q0 -76 18.5 -126t59 -76.5t92.5 -36.5t130 -10z" />
    <glyph glyph-name="Euro" unicode="&#x20ac;" horiz-adv-x="1804" 
d="M1625 281l24 -244q-228 -61 -476 -61q-208 0 -351 50t-234.5 160t-137.5 268.5t-61 391.5h-255l42 194h206q-1 29 -1 90q0 78 1 116h-228l43 194h194q13 180 45.5 313t91 236t146.5 166.5t211.5 96t287.5 32.5q251 0 476 -60l-25 -246q-228 42 -384 42
q-120 0 -208.5 -26.5t-145.5 -73t-94 -121.5t-54.5 -159.5t-25.5 -199.5h754l-43 -194h-718v-206h672l-42 -194h-624q7 -121 24 -209t53.5 -166.5t94 -127t147 -76t210.5 -27.5q157 0 385 41z" />
    <glyph glyph-name="uni2113" unicode="&#x2113;" horiz-adv-x="1649" 
d="M388 914q0 551 40 826q62 416 246 571q126 106 318 106q97 0 173 -38t122.5 -105t70.5 -152.5t24 -185.5q0 -116 -39 -238t-103.5 -230t-156.5 -219t-188.5 -204t-210.5 -186q10 -135 25.5 -233.5t43.5 -184t68.5 -138t100 -81.5t138.5 -29q97 0 176.5 50t187.5 159
l115 -130q-219 -296 -545 -296q-114 0 -207.5 38t-157.5 102.5t-111.5 156.5t-74.5 191.5t-42 216.5l-224 -137l-83 166zM680 1142q226 219 339.5 409t113.5 395q0 54 -7.5 99t-25 85.5t-50.5 63.5t-79 23q-51 0 -92 -23.5t-70 -70.5t-50.5 -101.5t-34.5 -132t-21 -146
t-12 -159.5t-5.5 -156t-3 -152.5t-2.5 -133.5z" />
    <glyph glyph-name="trademark" unicode="&#x2122;" horiz-adv-x="3230" 
d="M2950 933h-222v1111h-2l-458 -1111h-148l-456 1111h-2v-1111h-223v1397h331l430 -1042l422 1042h328v-1397zM1239 2330v-192h-438v-1205h-221v1205h-439v192h1098z" />
    <glyph glyph-name="Omega" unicode="&#x2126;" horiz-adv-x="2490" 
d="M172 0v259h451q-180 179 -291.5 430.5t-111.5 551.5q0 241 80 449.5t218.5 353.5t330 227.5t409.5 82.5q151 0 289.5 -41.5t249 -115.5t200.5 -177t150.5 -224.5t93 -259.5t32.5 -282q0 -158 -32.5 -308.5t-89.5 -275.5t-128.5 -227.5t-155.5 -183.5h451v-259h-872v198
q101 64 190 159t163.5 220.5t118.5 290t44 344.5q0 125 -28 249.5t-86.5 238.5t-140.5 201.5t-199 140t-253 52.5q-131 0 -245.5 -45t-201 -126.5t-149.5 -191.5t-95 -244.5t-32 -281.5q0 -170 44 -331.5t118 -289t164.5 -226t189.5 -160.5v-198h-876z" />
    <glyph glyph-name="estimated" unicode="&#x212e;" horiz-adv-x="2743" 
d="M2229 496h206q-99 -120 -206 -212t-236 -163t-283.5 -108t-329.5 -37q-266 0 -493 84t-384 229.5t-246 348t-89 433.5q0 144 38.5 282t109.5 259.5t178.5 223.5t239.5 175t297.5 114t348.5 41q224 0 413 -54t328.5 -151.5t241 -234.5t159 -301.5t74.5 -353.5h-1898v-741
q280 -236 682 -236q534 0 849 402zM698 1809v-619h1368v619q-302 240 -686 240q-404 0 -682 -240z" />
    <glyph glyph-name="uni2190" unicode="&#x2190;" horiz-adv-x="2345" 
d="M664 839l541 -656h-316l-740 795l740 795h316l-541 -655h1532v-279h-1532z" />
    <glyph glyph-name="uni2191" unicode="&#x2191;" horiz-adv-x="1888" 
d="M1084 1487v-1532h-280v1532l-655 -540v316l795 739l795 -739v-316z" />
    <glyph glyph-name="uni2192" unicode="&#x2192;" horiz-adv-x="2345" 
d="M2196 978l-740 -795h-316l541 656h-1532v279h1532l-541 655h316z" />
    <glyph glyph-name="uni2193" unicode="&#x2193;" horiz-adv-x="1889" 
d="M1740 1011v-316l-795 -740l-796 740v316l656 -541v1532h280v-1532z" />
    <glyph glyph-name="uni21E8" unicode="&#x21e8;" horiz-adv-x="2665" 
d="M1552 525h-1363v908h1363v555l1043 -1009l-1043 -1010v556zM2364 979l-649 617v-326h-1365v-582h1365v-326z" />
    <glyph glyph-name="partialdiff" unicode="&#x2202;" horiz-adv-x="1793" 
d="M746 -24q-119 0 -219 37.5t-171 103.5t-120.5 155t-73 192t-23.5 216q0 243 86 430t254.5 294t396.5 107q135 0 247.5 -61.5t175.5 -142.5q-6 447 -132 673t-391 226q-108 0 -189 -27t-176 -85l-58 190q222 156 501 156q152 0 275.5 -54t210.5 -153t145.5 -241
t86.5 -315.5t28 -378.5q0 -390 -99.5 -687t-294 -466t-460.5 -169zM896 1284q-85 0 -157.5 -32.5t-125 -90t-90 -133.5t-56 -164.5t-18.5 -182.5q0 -127 35 -234.5t112 -179.5t184 -72q95 0 175 50.5t135 133t96 193.5t63.5 226t31.5 238q-153 248 -385 248z" />
    <glyph glyph-name="Delta" unicode="&#x2206;" horiz-adv-x="2175" 
d="M2060 200v-200h-1943v194l806 2136h348zM1720 252l-633 1720l-640 -1720h1273z" />
    <glyph glyph-name="product" unicode="&#x220f;" horiz-adv-x="2585" 
d="M2470 2400v-274h-384v-2570h-316v2570h-952v-2570h-315v2570h-388v274h2355z" />
    <glyph glyph-name="summation" unicode="&#x2211;" horiz-adv-x="2021" 
d="M134 2400h1737v-262h-1316l847 -1119l-912 -1178h1435v-285h-1831v207l940 1217l-900 1209v211z" />
    <glyph glyph-name="minus" unicode="&#x2212;" horiz-adv-x="1934" 
d="M149 839v279h1636v-279h-1636z" />
    <glyph glyph-name="uni2215" unicode="&#x2215;" horiz-adv-x="531" 
d="M-536 -48l1368 2426h235l-1369 -2426h-234z" />
    <glyph glyph-name="uni2219" unicode="&#x2219;" horiz-adv-x="809" 
d="M404 753q-107 0 -146 43.5t-39 157.5t39.5 158.5t145.5 44.5t146 -44.5t40 -158.5t-39 -157.5t-147 -43.5z" />
    <glyph glyph-name="radical" unicode="&#x221a;" horiz-adv-x="1872" 
d="M1796 2848l-694 -3040h-279l-476 1384l-228 -90l-67 214l500 197l400 -1241l579 2576h265z" />
    <glyph glyph-name="infinity" unicode="&#x221e;" horiz-adv-x="2727" 
d="M679 1536q300 0 576 -337l81.5 100t82 92.5t88.5 87.5t91 71.5t100.5 59t106.5 35.5t118 14q141 0 257.5 -56t191.5 -151t116 -217t41 -257q0 -134 -41 -256t-116 -217t-191.5 -151.5t-257.5 -56.5q-60 0 -118.5 14.5t-106.5 35.5t-101 59t-91 71.5t-88 87.5t-82 91.5
l-81 98.5q-269 -330 -576 -330q-144 0 -263 78.5t-184 205t-65 269.5q0 144 65 271.5t184 207t263 79.5zM679 689q93 0 191 65t226 224q-128 160 -226 226.5t-191 66.5q-109 0 -179.5 -79.5t-70.5 -213.5q0 -133 70.5 -211t179.5 -78zM1923 566q148 0 241 109t93 303
q0 196 -93 305t-241 109q-223 0 -503 -414q279 -412 503 -412z" />
    <glyph glyph-name="integral" unicode="&#x222b;" horiz-adv-x="1197" 
d="M1213 2433q-84 60 -180 60q-59 0 -106.5 -21.5t-79 -56t-55 -87.5t-36 -104.5t-20 -118t-9.5 -118t-2 -114.5q0 -264 30 -802.5t30 -817.5q0 -91 -10.5 -180.5t-34.5 -187.5t-67.5 -180t-103.5 -148.5t-150 -104.5t-199 -38q-76 0 -165.5 25.5t-139.5 55.5l59 230
q42 -25 102.5 -44t120.5 -19q108 0 175 76t94 206.5t27 323.5q0 254 -28.5 816.5t-28.5 815.5q0 87 6.5 165.5t24 163.5t45.5 156t73.5 136.5t105 110.5t144 71.5t186.5 26.5q64 0 138 -24t117 -52z" />
    <glyph glyph-name="approxequal" unicode="&#x2248;" horiz-adv-x="2164" 
d="M1921 842v-280q-83 -88 -210 -132.5t-256 -44.5q-87 0 -168.5 21.5t-145.5 52.5l-128 62.5t-142.5 53t-162.5 21.5q-128 0 -255 -45t-211 -133v281q84 88 210.5 132.5t255.5 44.5q74 0 144 -15.5t122.5 -39l111.5 -51l110.5 -51t119.5 -39t139 -15.5q128 0 255.5 45
t210.5 132zM1921 1539v-282q-83 -88 -210 -132.5t-256 -44.5q-87 0 -168.5 22t-145.5 53l-128 62t-142.5 53t-162.5 22q-128 0 -255 -45t-211 -133v281q84 88 210.5 132.5t255.5 44.5q74 0 144 -15.5t122.5 -39l111.5 -51l110.5 -51t119.5 -39t139 -15.5q129 0 256 45
t210 133z" />
    <glyph glyph-name="notequal" unicode="&#x2260;" horiz-adv-x="2122" 
d="M242 490v279h614l183 418h-797v279h919l233 531h225l-233 -531h493v-279h-615l-184 -418h799v-279h-921l-232 -530h-224l232 530h-492z" />
    <glyph glyph-name="lessequal" unicode="&#x2264;" horiz-adv-x="2067" 
d="M194 1077v253l1634 670v-297l-1256 -500l1256 -499v-297zM194 -43v280h1634v-280h-1634z" />
    <glyph glyph-name="greaterequal" unicode="&#x2265;" horiz-adv-x="2068" 
d="M239 704l1256 499l-1256 500v297l1634 -670v-253l-1634 -670v297zM239 -43v280h1634v-280h-1634z" />
    <glyph glyph-name="lozenge" unicode="&#x25ca;" horiz-adv-x="1819" 
d="M1681 1167l-637 -1245h-267l-638 1245l638 1241h267zM911 219l468 948l-468 951l-468 -951z" />
    <glyph glyph-name="zero.numerator" horiz-adv-x="1264" 
d="M632 965q-103 0 -180.5 18.5t-133 58t-91.5 94t-56.5 135t-29 171t-8.5 211.5q0 122 8.5 212t29 171t56.5 135.5t91.5 94t133 58t180.5 18.5t180.5 -18.5t133 -58t92 -94t57 -135t29 -171t8.5 -212.5q0 -146 -12.5 -249.5t-44.5 -191t-88 -139t-144 -80t-211 -28.5z
M632 1145q43 0 78.5 8t62.5 20.5t47.5 36t34.5 46.5t23.5 60.5t15 69t8.5 81.5t3.5 88t0.5 98q0 228 -22 319q-34 138 -142 175q-47 16 -110 16q-166 0 -225 -118q-44 -86 -47 -293q-1 -38 -1 -99q0 -60 0.5 -98t3.5 -88t8 -81.5t15 -69t23.5 -60.5t34 -46.5t47.5 -36
t62.5 -20.5t78.5 -8z" />
    <glyph glyph-name="one.numerator" horiz-adv-x="751" 
d="M358 982v1123q-152 -39 -315 -61l-10 177q206 31 374 108h173v-1347h-222z" />
    <glyph glyph-name="two.numerator" horiz-adv-x="1126" 
d="M134 2125l-21 171q245 44 429 44q109 0 192.5 -16.5t149 -54t100.5 -104t35 -159.5q0 -180 -100 -299t-296 -199q-75 -30 -124.5 -63t-79.5 -76t-44.5 -88.5t-25.5 -114.5h669v-189h-927l27 143t27 119.5t31.5 103.5t38.5 85t49.5 74.5t63 61t81.5 56.5t102 49
q70 30 118.5 58t87 63.5t57 80t18.5 99.5q0 108 -73 146.5t-262 38.5q-124 0 -323 -30z" />
    <glyph glyph-name="three.numerator" horiz-adv-x="1120" 
d="M493 2342q69 0 126 -5.5t115 -18.5t101 -38t78 -61t53 -90t18 -123q0 -220 -182 -316q93 -40 148.5 -115.5t55.5 -188.5q0 -119 -35.5 -202t-105.5 -130t-162 -68t-218 -21q-184 0 -404 43l25 172q240 -30 333 -30q179 0 256.5 47t77.5 179q0 91 -46.5 143.5t-129.5 62.5
q-86 11 -245 11h-58v166q176 4 302 24q79 12 119 62.5t40 129.5q0 50 -14.5 85t-37 54.5t-62.5 30t-77.5 13t-95.5 2.5q-130 0 -351 -31l-22 171q228 42 398 42z" />
    <glyph glyph-name="four.numerator" horiz-adv-x="1197" 
d="M719 977v313h-504q-88 0 -123 32t-35 90q0 68 84 176l500 644q45 58 87.5 83t93.5 25q53 0 86 -34t33 -100v-743h175v-173h-175v-313h-222zM720 2025l-428 -562h428v562z" />
    <glyph glyph-name="five.numerator" horiz-adv-x="1131" 
d="M375 2142l-22 -328q90 3 96 3q78 0 138 -4t122.5 -14.5t108 -29.5t86.5 -50.5t66.5 -74.5t40.5 -103.5t15 -137.5q0 -229 -126.5 -332t-379.5 -103q-208 0 -420 44l24 172q208 -30 339 -30q95 0 153 10.5t100.5 39.5t60 82t17.5 138q0 56 -22 97t-55.5 64t-87.5 36
t-105 17t-121 4q-132 0 -273 -8l48 696h813v-188h-616z" />
    <glyph glyph-name="six.numerator" horiz-adv-x="1225" 
d="M642 1826q79 0 141.5 -8t119 -26t97 -50t70 -78t44.5 -112t15 -150q0 -104 -24.5 -181t-67 -126.5t-109 -79.5t-142 -41.5t-174.5 -11.5q-117 0 -202.5 26t-140 71.5t-87 117t-45 153.5t-12.5 190q0 121 7 214.5t24 176t44.5 142.5t70 109.5t98 81.5t131.5 54t168 31.5
t209 9.5q7 0 145 -3l18 -175q-29 -1 -83.5 -2.5t-88.5 -3t-86.5 -5.5t-87 -10.5t-79.5 -19.5t-75 -30t-63 -43.5t-54 -60.5t-36.5 -80t-21.5 -102q170 22 277 22zM605 1654q-88 0 -253 -23q-3 -44 -3 -137q0 -61 4.5 -106.5t20.5 -94t43 -80t75.5 -51.5t114.5 -20
q168 0 233 58.5t65 204.5q0 76 -18.5 126t-59.5 76.5t-92.5 36.5t-129.5 10z" />
    <glyph glyph-name="seven.numerator" horiz-adv-x="1039" 
d="M976 2149l-532 -1169h-253l561 1161h-697v187h799q69 0 105.5 -28t36.5 -77q0 -31 -20 -74z" />
    <glyph glyph-name="eight.numerator" horiz-adv-x="1231" 
d="M615 2342q80 0 149 -10t131.5 -35t106 -62.5t69.5 -96t26 -133.5q0 -118 -39 -191.5t-149 -132.5q102 -55 155 -132t53 -199q0 -92 -26.5 -161t-70.5 -111t-110.5 -68t-136.5 -35.5t-158 -9.5q-114 0 -201.5 19t-157 62t-106 119.5t-36.5 184.5q0 122 52 197.5t156 130.5
q-100 55 -143.5 132t-43.5 195q0 93 37.5 160t105 104.5t151 55t186.5 17.5zM615 1141q63 0 110 9t87.5 31.5t62 66.5t21.5 108q0 117 -71 167t-251 66q-116 -18 -177.5 -72t-61.5 -161q0 -64 21 -107.5t61.5 -66.5t87.5 -32t110 -9zM657 1765q113 22 170 68.5t57 142.5
q0 59 -20.5 99t-60 60t-83.5 27.5t-105 7.5q-60 0 -103 -7.5t-82 -27t-59.5 -59.5t-20.5 -100q0 -99 70 -149.5t237 -61.5z" />
    <glyph glyph-name="nine.numerator" horiz-adv-x="1224" 
d="M580 1481q-95 0 -167 11t-134.5 39.5t-102 76t-62 122t-22.5 175.5q0 129 36 217t107.5 136t161 67.5t213.5 19.5q117 0 202.5 -26t139.5 -71.5t86.5 -117t45 -153t12.5 -190.5q0 -121 -7 -214.5t-24 -176t-44.5 -142.5t-69.5 -110t-97.5 -81.5t-131.5 -53.5t-168 -31.5
t-209 -9.5q-7 0 -145 3l-18 175q29 1 83.5 2.5t88.5 3t86.5 5.5t87 10.5t79.5 19.5t75 30t63 43.5t54 60.5t36.5 80t21.5 102q-170 -22 -277 -22zM617 1653q88 0 253 23q3 44 3 137q0 61 -4.5 106.5t-20.5 94t-43 80t-75.5 51.5t-114.5 20q-168 0 -233 -58.5t-65 -204.5
q0 -76 18.5 -126t59 -76.5t92.5 -36.5t130 -10z" />
    <glyph glyph-name="zero.denominator" horiz-adv-x="1264" 
d="M632 -12q-103 0 -180.5 18.5t-133 58t-91.5 94t-56.5 135t-29 171t-8.5 211.5q0 122 8.5 212t29 171t56.5 135.5t91.5 94t133 58t180.5 18.5t180.5 -18.5t133 -58t92 -94t57 -135t29 -171t8.5 -212.5q0 -146 -12.5 -249.5t-44.5 -191t-88 -139t-144 -80t-211 -28.5z
M632 168q43 0 78.5 8t62.5 20.5t47.5 36t34.5 46.5t23.5 60.5t15 69t8.5 81.5t3.5 88t0.5 98q0 228 -22 319q-34 138 -142 175q-47 16 -110 16q-166 0 -225 -118q-44 -86 -47 -293q-1 -38 -1 -99q0 -60 0.5 -98t3.5 -88t8 -81.5t15 -69t23.5 -60.5t34 -46.5t47.5 -36
t62.5 -20.5t78.5 -8z" />
    <glyph glyph-name="one.denominator" horiz-adv-x="751" 
d="M358 5v1123q-152 -39 -315 -61l-10 177q206 31 374 108h173v-1347h-222z" />
    <glyph glyph-name="two.denominator" horiz-adv-x="1126" 
d="M134 1148l-21 171q245 44 429 44q109 0 192.5 -16.5t149 -54t100.5 -104t35 -159.5q0 -180 -100 -299t-296 -199q-75 -30 -124.5 -63t-79.5 -76t-44.5 -88.5t-25.5 -114.5h669v-189h-927l27 143t27 119.5t31.5 103.5t38.5 85t49.5 74.5t63 61t81.5 56.5t102 49
q70 30 118.5 58t87 63.5t57 80t18.5 99.5q0 108 -73 146.5t-262 38.5q-124 0 -323 -30z" />
    <glyph glyph-name="three.denominator" horiz-adv-x="1120" 
d="M493 1365q69 0 126 -5.5t115 -18.5t101 -38t78 -61t53 -90t18 -123q0 -220 -182 -316q93 -40 148.5 -115.5t55.5 -188.5q0 -119 -35.5 -202t-105.5 -130t-162 -68t-218 -21q-184 0 -404 43l25 172q240 -30 333 -30q179 0 256.5 47t77.5 179q0 91 -46.5 143.5t-129.5 62.5
q-86 11 -245 11h-58v166q176 4 302 24q79 12 119 62.5t40 129.5q0 50 -14.5 85t-37 54.5t-62.5 30t-77.5 13t-95.5 2.5q-130 0 -351 -31l-22 171q228 42 398 42z" />
    <glyph glyph-name="four.denominator" horiz-adv-x="1197" 
d="M719 0v313h-504q-88 0 -123 32t-35 90q0 68 84 176l500 644q45 58 87.5 83t93.5 25q53 0 86 -34t33 -100v-743h175v-173h-175v-313h-222zM720 1048l-428 -562h428v562z" />
    <glyph glyph-name="five.denominator" horiz-adv-x="1131" 
d="M375 1165l-22 -328q90 3 96 3q78 0 138 -4t122.5 -14.5t108 -29.5t86.5 -50.5t66.5 -74.5t40.5 -103.5t15 -137.5q0 -229 -126.5 -332t-379.5 -103q-208 0 -420 44l24 172q208 -30 339 -30q95 0 153 10.5t100.5 39.5t60 82t17.5 138q0 56 -22 97t-55.5 64t-87.5 36
t-105 17t-121 4q-132 0 -273 -8l48 696h813v-188h-616z" />
    <glyph glyph-name="six.denominator" horiz-adv-x="1225" 
d="M642 849q79 0 141.5 -8t119 -26t97 -50t70 -78t44.5 -112t15 -150q0 -104 -24.5 -181t-67 -126.5t-109 -79.5t-142 -41.5t-174.5 -11.5q-117 0 -202.5 26t-140 71.5t-87 117t-45 153.5t-12.5 190q0 121 7 214.5t24 176t44.5 142.5t70 109.5t98 81.5t131.5 54t168 31.5
t209 9.5q7 0 145 -3l18 -175q-29 -1 -83.5 -2.5t-88.5 -3t-86.5 -5.5t-87 -10.5t-79.5 -19.5t-75 -30t-63 -43.5t-54 -60.5t-36.5 -80t-21.5 -102q170 22 277 22zM605 677q-88 0 -253 -23q-3 -44 -3 -137q0 -61 4.5 -106.5t20.5 -94t43 -80t75.5 -51.5t114.5 -20
q168 0 233 58.5t65 204.5q0 76 -18.5 126t-59.5 76.5t-92.5 36.5t-129.5 10z" />
    <glyph glyph-name="seven.denominator" horiz-adv-x="1039" 
d="M976 1172l-532 -1169h-253l561 1161h-697v187h799q69 0 105.5 -28t36.5 -77q0 -31 -20 -74z" />
    <glyph glyph-name="eight.denominator" horiz-adv-x="1231" 
d="M615 1365q80 0 149 -10t131.5 -35t106 -62.5t69.5 -96t26 -133.5q0 -118 -39 -191.5t-149 -132.5q102 -55 155 -132t53 -199q0 -92 -26.5 -161t-70.5 -111t-110.5 -68t-136.5 -35.5t-158 -9.5q-114 0 -201.5 19t-157 62t-106 119.5t-36.5 184.5q0 122 52 197.5t156 130.5
q-100 55 -143.5 132t-43.5 195q0 93 37.5 160t105 104.5t151 55t186.5 17.5zM615 164q63 0 110 9t87.5 31.5t62 66.5t21.5 108q0 117 -71 167t-251 66q-116 -18 -177.5 -72t-61.5 -161q0 -64 21 -107.5t61.5 -66.5t87.5 -32t110 -9zM657 788q113 22 170 68.5t57 142.5
q0 59 -20.5 99t-60 60t-83.5 27.5t-105 7.5q-60 0 -103 -7.5t-82 -27t-59.5 -59.5t-20.5 -100q0 -99 70 -149.5t237 -61.5z" />
    <glyph glyph-name="nine.denominator" horiz-adv-x="1224" 
d="M580 504q-95 0 -167 11t-134.5 39.5t-102 76t-62 122t-22.5 175.5q0 129 36 217t107.5 136t161 67.5t213.5 19.5q117 0 202.5 -26t139.5 -71.5t86.5 -117t45 -153t12.5 -190.5q0 -121 -7 -214.5t-24 -176t-44.5 -142.5t-69.5 -110t-97.5 -81.5t-131.5 -53.5t-168 -31.5
t-209 -9.5q-7 0 -145 3l-18 175q29 1 83.5 2.5t88.5 3t86.5 5.5t87 10.5t79.5 19.5t75 30t63 43.5t54 60.5t36.5 80t21.5 102q-170 -22 -277 -22zM617 676q88 0 253 23q3 44 3 137q0 61 -4.5 106.5t-20.5 94t-43 80t-75.5 51.5t-114.5 20q-168 0 -233 -58.5t-65 -204.5
q0 -76 18.5 -126t59 -76.5t92.5 -36.5t130 -10z" />
    <glyph glyph-name="zero.onum" horiz-adv-x="1911" 
d="M956 -24q-134 0 -239.5 20t-184.5 58t-136.5 100t-95 137t-59.5 179.5t-31 217.5t-9 260t9 260.5t31 218t59.5 180t95 137.5t136.5 100t184.5 58t239.5 20t239.5 -20t185 -58t136.5 -100t94.5 -137.5t59.5 -180t31 -218t9 -260.5t-9 -260t-31 -217.5t-59.5 -179.5
t-95 -137t-136.5 -100t-184.5 -58t-239.5 -20zM956 225q255 0 355 145q76 109 89 350q5 82 5 228q0 282 -25 405q-39 191 -165 264q-97 56 -259 56q-255 0 -355 -144q-76 -109 -89 -349q-5 -82 -5 -232q0 -282 25 -404q39 -191 167 -264q96 -55 257 -55z" />
    <glyph glyph-name="one.onum" horiz-adv-x="1132" 
d="M571 0v1585q-253 -69 -507 -103l-14 248q321 49 582 170h242v-1900h-303z" />
    <glyph glyph-name="two.onum" horiz-adv-x="1715" 
d="M203 1631l-32 234q348 57 654 57q132 0 238.5 -14t199.5 -47t155.5 -86t98 -134t35.5 -187q0 -131 -40.5 -238.5t-121.5 -192.5t-191 -151t-259 -120q-126 -46 -209 -94t-133.5 -109.5t-75.5 -127.5t-41 -163h1070v-258h-1413q68 342 122 488q73 194 204 305
q116 99 324 178q117 44 197.5 85t145 92.5t96 114t31.5 138.5q0 157 -123.5 213t-444.5 56q-216 0 -487 -39z" />
    <glyph glyph-name="three.onum" horiz-adv-x="1687" 
d="M740 1922q89 0 163.5 -5.5t152 -20.5t139 -39t116.5 -63.5t91.5 -92t57.5 -126t21 -163.5q0 -349 -297 -492q150 -56 240.5 -172.5t90.5 -300.5q0 -146 -35.5 -256t-100.5 -183t-164.5 -118.5t-218 -64.5t-270.5 -19q-289 0 -604 61l34 243q342 -45 500 -45
q116 0 198 9.5t150.5 33.5t109 65.5t62.5 105.5t22 153q0 148 -77 232.5t-216 101.5q-152 18 -375 18h-78v231q234 6 453 37q133 20 200 102t67 211q0 59 -12 104.5t-32.5 77.5t-55 54t-70 35t-88.5 20t-100 9t-114 2q-216 0 -526 -44l-31 238q319 61 597 61z" />
    <glyph glyph-name="four.onum" horiz-adv-x="1812" 
d="M1118 -172v487h-809q-124 0 -173.5 46t-49.5 129q0 104 126 267l778 1003q68 87 130.5 124.5t135.5 37.5q72 0 117 -49t45 -144v-1173h272v-241h-272v-487h-300zM1119 1507l-724 -951h724v951z" />
    <glyph glyph-name="five.onum" horiz-adv-x="1706" 
d="M535 1634l-37 -540q90 6 172 6q119 0 210.5 -5.5t186.5 -22.5t164 -45.5t131.5 -76t101 -113t61 -157.5t22.5 -209q0 -351 -191.5 -508.5t-574.5 -157.5q-312 0 -630 63l34 243q277 -45 507 -45q88 0 153 5t123.5 17.5t99 34t73 54t51.5 79t28.5 107t9.5 139.5
q0 66 -18 118.5t-48 89t-78 63.5t-98 42.5t-118.5 24.5t-129.5 12t-140 3q-215 0 -402 -11l72 1056h1223v-266h-958z" />
    <glyph glyph-name="six.onum" horiz-adv-x="1853" 
d="M972 1293q119 0 213 -11.5t180 -39.5t147 -76t106 -118.5t67.5 -170.5t22.5 -229q0 -114 -19 -207t-53.5 -162t-87.5 -121.5t-116 -87t-145 -55.5t-169.5 -30t-192.5 -9q-127 0 -229.5 20.5t-179 57t-133 94.5t-93.5 126.5t-60 159t-32 186t-9 213.5q0 148 6.5 268.5
t22.5 230.5t41.5 196t63.5 162.5t88 132.5t117 102.5t147.5 77t182.5 51.5t220 30t261 9q60 0 204 -3l26 -247l-144 -6q-280 -9 -410 -33q-288 -52 -406 -227q-84 -125 -93 -319q266 35 456 35zM914 1054q-150 0 -416 -38q-7 -89 -7 -226q0 -67 3.5 -121.5t15 -114.5
t30.5 -106t51.5 -89t76.5 -71t107 -44.5t142 -16.5q186 0 292 42.5t151 133.5t45 250q0 99 -21.5 170t-59.5 115.5t-101 70.5t-135.5 35.5t-173.5 9.5z" />
    <glyph glyph-name="seven.onum" horiz-adv-x="1568" 
d="M1476 1641l-827 -1814h-346l873 1809h-1093v264h1223q95 0 146 -40t51 -109q0 -52 -27 -110z" />
    <glyph glyph-name="eight.onum" horiz-adv-x="1862" 
d="M932 2093q121 0 225 -15.5t198.5 -53t160.5 -95t105 -146.5t39 -202q0 -185 -63.5 -299t-241.5 -206q168 -81 251.5 -199t83.5 -315q0 -140 -40 -245t-107 -169.5t-167 -103.5t-205.5 -53.5t-238.5 -14.5q-137 0 -248.5 17.5t-208.5 59.5t-162 108t-102.5 167.5
t-37.5 234.5q0 101 22 180t67 139t103.5 105t142.5 87q-165 82 -234 199.5t-69 307.5q0 114 38 202.5t103 146t159 95t198.5 53t228.5 15.5zM932 222q82 0 146 8t124.5 31.5t100.5 61.5t64 100.5t24 147.5q0 189 -115.5 270.5t-407.5 107.5q-92 -15 -161 -41.5t-123.5 -70.5
t-83 -111t-28.5 -155q0 -84 24 -146.5t63.5 -100.5t100 -61.5t125.5 -32t147 -8.5zM999 1194q87 18 150.5 42.5t116.5 63.5t80 98t27 138q0 78 -23.5 135.5t-62 92t-97.5 55t-119.5 27.5t-138.5 7t-137.5 -7t-118 -27t-96 -54.5t-61 -92t-23.5 -136.5q0 -161 114.5 -243.5
t388.5 -98.5z" />
    <glyph glyph-name="nine.onum" horiz-adv-x="1852" 
d="M875 605q-119 0 -213 11.5t-179.5 39.5t-146.5 76t-106 118.5t-67.5 170.5t-22.5 229q0 114 19 207t53.5 162t87 121.5t116 87t145.5 55.5t169 30t192 9q127 0 229.5 -20.5t179 -57t133.5 -94.5t94 -126.5t59.5 -159t32 -186t9.5 -213.5q0 -148 -6.5 -268.5t-22.5 -230.5
t-41.5 -196t-63.5 -162.5t-88 -132.5t-117 -102.5t-147.5 -77t-182.5 -51.5t-220 -30t-261 -9q-61 0 -204 3l-26 247l144 6q279 9 410 33q288 52 406 227q84 125 93 319q-268 -35 -457 -35zM933 844q151 0 417 38q6 76 6 226q0 67 -3.5 121.5t-15 114.5t-30.5 105.5
t-51.5 89t-76 71.5t-107 44.5t-142.5 16.5q-186 0 -291.5 -42.5t-150.5 -133.5t-45 -250q0 -99 21.5 -170t59 -115.5t100.5 -70.5t135.5 -35.5t173.5 -9.5z" />
    <glyph glyph-name="dollar.onum" horiz-adv-x="1543" 
d="M152 278q272 -42 519 -42q84 0 147 8t121 29.5t95 58t58.5 95t21.5 138.5q0 66 -21.5 118t-53.5 86.5t-90.5 66t-111 50.5t-136.5 44q-88 27 -149.5 48.5t-127.5 51.5t-110 61.5t-85 74.5t-64.5 94t-37.5 117t-14 147q0 139 35.5 240.5t107.5 168t172.5 103t237.5 49.5
v286h226v-279q254 -6 494 -53l-28 -242q-257 39 -431 39q-68 0 -120.5 -3t-115.5 -12t-108.5 -28t-85 -48t-60 -75.5t-20.5 -106.5q0 -41 6.5 -76t15.5 -62.5t28.5 -52t36 -41.5t48 -34.5t55 -28.5t65.5 -25t71 -22.5l80 -22.5l32 -9q94 -26 166.5 -54.5t139.5 -66
t114.5 -84.5t83 -106.5t52.5 -135.5t17 -168q0 -274 -139 -414.5t-414 -172.5v-290h-226v279q-271 3 -527 55z" />
    <glyph glyph-name="cent.onum" horiz-adv-x="1329" 
d="M1203 499l26 -228q-183 -41 -355 -50v-278h-213v282q-91 11 -165 41t-127 73t-92.5 104t-64 126.5t-39.5 148t-20.5 161t-5.5 172.5q0 121 9 214.5t30.5 180.5t59.5 150.5t94.5 114.5t136.5 82.5t184 45.5v287h213v-275q183 -4 352 -51l-23 -219q-183 29 -273 29
q-68 0 -123 -4t-100.5 -14.5t-80.5 -23.5t-63 -35t-47.5 -45.5t-33.5 -59.5t-22.5 -72t-13.5 -87t-6.5 -100.5t-1.5 -117.5q0 -237 27 -338q37 -140 153 -197q107 -53 310 -53q93 0 275 36z" />
    <glyph glyph-name="Euro.onum" horiz-adv-x="1666" 
d="M142 1131l44 194h175q13 164 43 285t83.5 215t135 151.5t194.5 87t264 29.5q235 0 442 -56l-24 -241q-215 40 -356 40q-131 0 -221 -34t-142 -104t-76.5 -158t-33.5 -215h689l-44 -194h-652v-170h615l-43 -193h-566q6 -88 17.5 -156t33.5 -130.5t57.5 -106.5t85.5 -77
t120 -49t160 -16q131 0 356 39l24 -239q-211 -57 -442 -57q-153 0 -267.5 30.5t-196 90t-135 156.5t-82.5 221.5t-40 293.5h-236l43 193h185v73q0 65 1 97h-211z" />
    <glyph glyph-name="sterling.onum" horiz-adv-x="1789" 
d="M446 929h-308v236h273q-25 186 -25 361q0 133 38.5 233.5t103 163.5t160 102t199 54t230.5 15q96 0 173.5 -15t142 -47.5t113.5 -69.5t109 -94l-158 -186q-90 76 -177.5 114t-192.5 38q-126 0 -209.5 -22t-132.5 -70.5t-69 -117t-20 -169.5q0 -113 25 -290h471v-236h-443
q10 -105 10 -196q0 -209 -112 -469h470q256 0 492 36l28 -245q-119 -24 -306.5 -39.5t-379.5 -15.5h-508q-78 0 -116.5 33.5t-38.5 88.5q0 32 27.5 93t60.5 124.5t60.5 164.5t27.5 204q0 88 -18 221z" />
    <glyph glyph-name="yen.onum" horiz-adv-x="1671" 
d="M415 2073l421 -946l433 946h304l-473 -1021h254v-207h-349l-19 -41v-142h368v-204h-368v-458h-306v458h-362v204h362v142l-19 41h-343v207h248l-467 1021h316z" />
    <glyph glyph-name="zero.tnum" horiz-adv-x="1970" 
d="M985 -24q-145 0 -259.5 24t-200.5 68.5t-148.5 118.5t-103.5 163t-65 213t-33.5 258.5t-9.5 308.5t9.5 308.5t33.5 258.5t65 213t103.5 163t148.5 118.5t200.5 68.5t259.5 24q128 0 231.5 -17.5t184.5 -54.5t143 -88.5t107 -126.5t75 -161t47.5 -199.5t25 -234
t7.5 -272.5t-7.5 -272.5t-25 -234t-47.5 -199.5t-75 -161t-107 -126.5t-143 -88.5t-184.5 -54.5t-231.5 -17.5zM985 233q275 0 389 164q88 128 107 407q7 112 7 326q0 337 -25 486q-40 236 -171 331q-112 81 -307 81q-274 0 -388 -164q-88 -128 -106 -406q-7 -112 -7 -328
q0 -336 24 -484q39 -235 169 -331q111 -82 308 -82z" />
    <glyph glyph-name="one.tnum" horiz-adv-x="1970" 
d="M996 0v1936q-257 -72 -541 -111l-14 254q336 52 615 181h254v-2260h-314z" />
    <glyph glyph-name="two.tnum" horiz-adv-x="1970" 
d="M278 1971l-30 244q379 69 699 69q142 0 256.5 -16t214.5 -55.5t167 -101t105.5 -156t38.5 -217.5q0 -153 -43 -280t-129 -227.5t-204.5 -179t-279.5 -143.5q-113 -46 -192.5 -95t-131.5 -101t-86 -122t-52 -141t-32 -175h1149v-274h-1514q69 389 124 556q74 225 208 357
q127 125 362 224q125 53 211 103t155 114t102.5 143.5t33.5 177.5q0 82 -21 140t-63.5 98t-116.5 62.5t-171 32.5t-237 10q-231 0 -523 -47z" />
    <glyph glyph-name="three.tnum" horiz-adv-x="1970" 
d="M870 2284q97 0 178.5 -6t166 -22t151 -42t126.5 -69t99.5 -99.5t62.5 -136t23 -176.5q0 -394 -343 -543q81 -27 147 -70t119.5 -105t83.5 -149.5t30 -193.5q0 -158 -39 -277.5t-109.5 -198.5t-178.5 -128.5t-237 -70.5t-294 -21q-310 0 -654 66l35 249q365 -48 542 -48
q129 0 221 10.5t168 37.5t121.5 73.5t70 118.5t24.5 172q0 168 -86.5 263.5t-244.5 113.5q-166 19 -412 19h-76v236q254 6 488 41q151 22 226 114.5t75 238.5q0 66 -13.5 118t-36 87.5t-61 61t-78 39.5t-99 22t-112 10.5t-127.5 2.5q-221 0 -570 -48l-32 244q350 66 645 66z
" />
    <glyph glyph-name="four.tnum" horiz-adv-x="1970" 
d="M1228 0v536h-899q-131 0 -183.5 48t-52.5 135q0 110 138 288l855 1103q73 94 139.5 134t144.5 40q75 0 122 -51.5t47 -151.5v-1299h299v-246h-299v-536h-311zM1229 1865l-825 -1083h825v1083z" />
    <glyph glyph-name="five.tnum" horiz-adv-x="1970" 
d="M626 1987l-42 -613q119 7 199 7q130 0 229.5 -6t203 -24.5t178.5 -49.5t143 -82.5t110 -122.5t66.5 -171.5t24.5 -226.5q0 -194 -54 -333t-161.5 -224.5t-259.5 -125t-358 -39.5q-349 0 -681 68l33 249q314 -49 551 -49q114 0 195.5 7.5t152 28t115.5 55t77 89t46 130.5
t14 179q0 74 -20 133.5t-53.5 100.5t-87 71t-109.5 47.5t-132 27.5t-144 13.5t-156 3.5q-226 0 -432 -11l78 1141h1326v-273h-1052z" />
    <glyph glyph-name="six.tnum" horiz-adv-x="1970" 
d="M1034 1405q157 0 274.5 -18.5t220 -65.5t167.5 -125t101.5 -201t36.5 -290q0 -124 -20.5 -224.5t-58 -176t-95 -132t-126.5 -94t-158 -60.5t-184 -32.5t-209 -9.5q-138 0 -249.5 22t-194.5 62t-144.5 103t-102 137.5t-65 173t-34.5 202.5t-10 232q0 203 11.5 360t40 296
t74 240t116.5 184.5t163.5 137t219 90.5t280 52.5t348.5 15.5q59 0 217 -3l26 -254q-49 -2 -150 -4q-295 -7 -436 -30q-321 -53 -457 -240q-107 -147 -113 -388q304 40 511 40zM971 1161q-168 0 -467 -43q-7 -92 -7 -256q0 -75 4 -135.5t16.5 -128t34 -118.5t57.5 -99
t85.5 -79t120.5 -49.5t159 -18.5q208 0 326 47.5t168.5 149t50.5 279.5q0 111 -24 191t-66.5 130t-112.5 79t-151 40t-194 11z" />
    <glyph glyph-name="seven.tnum" horiz-adv-x="1970" 
d="M1737 1989l-906 -1989h-361l960 1989h-1207v271h1335q101 0 154.5 -41t53.5 -113q0 -51 -29 -117z" />
    <glyph glyph-name="eight.tnum" horiz-adv-x="1970" 
d="M986 2284q132 0 244.5 -17t215 -57t174.5 -102t114.5 -158t42.5 -218q0 -103 -14.5 -177t-52 -143.5t-106 -126.5t-174.5 -109q91 -44 157 -93t118.5 -116.5t78.5 -156.5t26 -200q0 -109 -22.5 -199t-62 -155t-99 -114t-127.5 -80.5t-154 -51t-172 -27t-187 -7.5
q-150 0 -270.5 19t-226 64t-176.5 117t-111.5 182t-40.5 254q0 110 25.5 197t77 153t117.5 115t160 96q-185 90 -264.5 220.5t-79.5 338.5q0 122 41 217.5t112 157.5t172.5 102.5t215.5 57.5t248 17zM986 228q92 0 163.5 9.5t139.5 35.5t112.5 68.5t71.5 113.5t27 166
q0 213 -128.5 304t-457.5 119q-104 -15 -182.5 -44.5t-138.5 -78.5t-91 -124.5t-31 -175.5q0 -94 26.5 -164.5t71.5 -113.5t112.5 -69.5t140 -36t164.5 -9.5zM1060 1296q81 16 142 35.5t115 50t88.5 71t54.5 98t20 130.5q0 88 -26.5 153t-69.5 104t-109 62t-133.5 31
t-155.5 8q-61 0 -110.5 -3.5t-101 -14t-91.5 -27t-76 -44t-59 -64.5t-36.5 -89t-13.5 -116q0 -121 52.5 -199.5t177.5 -126t332 -59.5z" />
    <glyph glyph-name="nine.tnum" horiz-adv-x="1970" 
d="M930 855q-157 0 -274.5 18.5t-220 65.5t-167.5 125t-101.5 201t-36.5 290q0 124 20.5 224.5t58 176t95 132t126.5 94t158 60.5t184 32.5t209 9.5q138 0 249.5 -22t194.5 -62t144.5 -103t102 -137.5t65 -173t34.5 -202.5t10 -232q0 -162 -7.5 -293.5t-24.5 -251.5
t-44.5 -214t-69.5 -177.5t-96 -144.5t-127.5 -112t-161 -84t-199 -56t-240 -33t-284.5 -10q-58 0 -216 3l-26 254q48 2 150 4q295 7 435 30q321 53 457 240q108 147 114 388q-304 -40 -511 -40zM993 1099q167 0 466 43q8 92 8 256q0 75 -4 135.5t-16.5 128t-34 118.5
t-57.5 99t-85.5 79t-120.5 49.5t-159 18.5q-209 0 -326.5 -47.5t-168 -149t-50.5 -279.5q0 -111 24 -191t66.5 -130t112.5 -79t151 -40t194 -11z" />
    <glyph glyph-name="dollar.tnum" horiz-adv-x="1970" 
d="M312 288q315 -45 562 -45q94 0 164.5 9t135.5 33.5t106.5 65t65.5 106.5t24 156q0 40 -5.5 74.5t-18 63.5t-26 53.5t-37.5 46l-44 38t-54.5 33.5t-59 28t-67.5 26t-71 23.5l-77 23.5q-96 29 -163.5 52.5t-139.5 56t-119 66.5t-92 81t-70 102t-40 127t-15 160
q0 297 151.5 439.5t456.5 169.5v313h230v-307q277 -6 541 -56l-29 -248q-273 41 -465 41q-64 0 -115 -2t-112.5 -9.5t-108 -20.5t-92.5 -36.5t-75.5 -55.5t-48 -79t-18.5 -106q0 -169 83 -252q66 -65 231 -118q51 -16 175 -51q123 -34 214 -71.5t171.5 -92.5t130 -123.5
t78 -163t28.5 -214.5q0 -300 -152.5 -452.5t-455.5 -185.5v-317h-230v306q-304 3 -578 58z" />
    <glyph glyph-name="cent.tnum" horiz-adv-x="1970" 
d="M1568 530l28 -231q-204 -45 -390 -54v-306h-216v310q-100 11 -181.5 43.5t-139.5 79t-101.5 112.5t-70.5 137.5t-43.5 161.5t-22.5 176t-6 189q0 159 14 277.5t51.5 223.5t100.5 175t162.5 117t236.5 65v315h216v-303q193 -2 387 -55l-24 -223q-189 33 -293 33
q-76 0 -137.5 -4.5t-112.5 -16t-90 -26t-70 -39.5t-53 -51.5t-37.5 -67t-25 -80.5t-15 -97t-7.5 -112t-2 -131q0 -257 28 -368q39 -155 160 -221t361 -66q108 0 293 37z" />
    <glyph glyph-name="Euro.tnum" horiz-adv-x="1970" 
d="M1708 281l24 -244q-228 -61 -476 -61q-208 0 -351 50t-234.5 160t-137.5 268.5t-61 391.5h-255l42 194h206q-1 29 -1 90q0 78 1 116h-228l43 194h194q13 180 45.5 313t91 236t146.5 166.5t211.5 96t287.5 32.5q251 0 476 -60l-25 -246q-228 42 -384 42
q-120 0 -208.5 -26.5t-145.5 -73t-94 -121.5t-54.5 -159.5t-25.5 -199.5h754l-43 -194h-718v-206h672l-42 -194h-624q7 -121 24 -209t53.5 -166.5t94 -127t147 -76t210.5 -27.5q157 0 385 41z" />
    <glyph glyph-name="sterling.tnum" horiz-adv-x="1970" 
d="M503 1021h-338v241h302q-30 206 -30 407q0 144 41.5 252.5t112 176.5t174.5 110.5t216.5 59t250.5 16.5q104 0 188 -16.5t153 -51t121 -74t116 -99.5l-162 -190q-96 81 -191.5 121.5t-212.5 40.5q-142 0 -236 -24.5t-149 -79.5t-77 -131.5t-22 -190.5q0 -109 29 -327h516
v-241h-487q11 -130 11 -224q0 -238 -127 -526h530q271 0 532 38l29 -250q-126 -26 -329 -42.5t-415 -16.5h-558q-81 0 -121 34.5t-40 90.5q0 29 20 75.5t48 103.5t56.5 124t48.5 157.5t20 183.5q0 99 -20 252z" />
    <glyph glyph-name="yen.tnum" horiz-adv-x="1970" 
d="M517 2260l470 -1053l480 1053h315l-519 -1122h283v-209h-380l-24 -53v-167h404v-206h-404v-503h-318v503h-398v206h398v167l-25 53h-373v209h278l-514 1122h327z" />
    <glyph glyph-name="period.tnum" horiz-adv-x="985" 
d="M492 -24q-107 0 -146 43.5t-39 157.5t39.5 158.5t145.5 44.5t146 -44.5t40 -158.5t-39 -157.5t-147 -43.5z" />
    <glyph glyph-name="comma.tnum" horiz-adv-x="985" 
d="M185 -437l213 836h354l-307 -836h-260z" />
    <glyph glyph-name="colon.tnum" horiz-adv-x="985" 
d="M493 -24q-107 0 -146 43.5t-39 157.5t39.5 158.5t145.5 44.5t145.5 -44.5t39.5 -158.5t-39 -157.5t-146 -43.5zM493 1210q-108 0 -146.5 43t-38.5 158q0 114 39.5 158.5t145.5 44.5t145.5 -44.5t39.5 -158.5q0 -115 -38.5 -158t-146.5 -43z" />
    <glyph glyph-name="semicolon.tnum" horiz-adv-x="985" 
d="M573 1210q-108 0 -146.5 43t-38.5 158q0 114 39.5 158.5t145.5 44.5t146 -44.5t40 -158.5q0 -115 -39 -158t-147 -43zM178 -437l213 836h354l-307 -836h-260z" />
    <glyph glyph-name="zero.onum_tnum" 
d="M905 -24q-134 0 -239.5 20t-184.5 58t-136.5 100t-95 137t-59.5 179.5t-31 217.5t-9 260t9 260.5t31 218t59.5 180t95 137.5t136.5 100t184.5 58t239.5 20t239.5 -20t185 -58t136.5 -100t94.5 -137.5t59.5 -180t31 -218t9 -260.5t-9 -260t-31 -217.5t-59.5 -179.5
t-95 -137t-136.5 -100t-184.5 -58t-239.5 -20zM905 225q255 0 355 145q76 109 89 350q5 82 5 228q0 282 -25 405q-39 191 -165 264q-97 56 -259 56q-255 0 -355 -144q-76 -109 -89 -349q-5 -82 -5 -232q0 -282 25 -404q39 -191 167 -264q96 -55 257 -55z" />
    <glyph glyph-name="one.onum_tnum" 
d="M910 0v1585q-253 -69 -507 -103l-14 248q321 49 582 170h242v-1900h-303z" />
    <glyph glyph-name="two.onum_tnum" 
d="M251 1631l-32 234q348 57 654 57q132 0 238.5 -14t199.5 -47t155.5 -86t98 -134t35.5 -187q0 -131 -40.5 -238.5t-121.5 -192.5t-191 -151t-259 -120q-126 -46 -209 -94t-133.5 -109.5t-75.5 -127.5t-41 -163h1070v-258h-1413q68 342 122 488q73 194 204 305
q116 99 324 178q117 44 197.5 85t145 92.5t96 114t31.5 138.5q0 157 -123.5 213t-444.5 56q-216 0 -487 -39z" />
    <glyph glyph-name="three.onum_tnum" 
d="M802 1922q89 0 163.5 -5.5t152 -20.5t139 -39t116.5 -63.5t91.5 -92t57.5 -126t21 -163.5q0 -349 -297 -492q150 -56 240.5 -172.5t90.5 -300.5q0 -146 -35.5 -256t-100.5 -183t-164.5 -118.5t-218 -64.5t-270.5 -19q-289 0 -604 61l34 243q342 -45 500 -45
q116 0 198 9.5t150.5 33.5t109 65.5t62.5 105.5t22 153q0 148 -77 232.5t-216 101.5q-152 18 -375 18h-78v231q234 6 453 37q133 20 200 102t67 211q0 59 -12 104.5t-32.5 77.5t-55 54t-70 35t-88.5 20t-100 9t-114 2q-216 0 -526 -44l-31 238q319 61 597 61z" />
    <glyph glyph-name="four.onum_tnum" 
d="M1117 -172v487h-809q-124 0 -173.5 46t-49.5 129q0 104 126 267l778 1003q68 87 130.5 124.5t135.5 37.5q72 0 117 -49t45 -144v-1173h272v-241h-272v-487h-300zM1118 1507l-724 -951h724v951z" />
    <glyph glyph-name="five.onum_tnum" 
d="M587 1634l-37 -540q90 6 172 6q119 0 210.5 -5.5t186.5 -22.5t164 -45.5t131.5 -76t101 -113t61 -157.5t22.5 -209q0 -351 -191.5 -508.5t-574.5 -157.5q-312 0 -630 63l34 243q277 -45 507 -45q88 0 153 5t123.5 17.5t99 34t73 54t51.5 79t28.5 107t9.5 139.5
q0 66 -18 118.5t-48 89t-78 63.5t-98 42.5t-118.5 24.5t-129.5 12t-140 3q-215 0 -402 -11l72 1056h1223v-266h-958z" />
    <glyph glyph-name="six.onum_tnum" 
d="M950 1293q119 0 213 -11.5t180 -39.5t147 -76t106 -118.5t67.5 -170.5t22.5 -229q0 -114 -19 -207t-53.5 -162t-87.5 -121.5t-116 -87t-145 -55.5t-169.5 -30t-192.5 -9q-127 0 -229.5 20.5t-179 57t-133 94.5t-93.5 126.5t-60 159t-32 186t-9 213.5q0 148 6.5 268.5
t22.5 230.5t41.5 196t63.5 162.5t88 132.5t117 102.5t147.5 77t182.5 51.5t220 30t261 9q60 0 204 -3l26 -247l-144 -6q-280 -9 -410 -33q-288 -52 -406 -227q-84 -125 -93 -319q266 35 456 35zM892 1054q-150 0 -416 -38q-7 -89 -7 -226q0 -67 3.5 -121.5t15 -114.5
t30.5 -106t51.5 -89t76.5 -71t107 -44.5t142 -16.5q186 0 292 42.5t151 133.5t45 250q0 99 -21.5 170t-59.5 115.5t-101 70.5t-135.5 35.5t-173.5 9.5z" />
    <glyph glyph-name="seven.onum_tnum" 
d="M1597 1641l-827 -1814h-346l873 1809h-1093v264h1223q95 0 146 -40t51 -109q0 -52 -27 -110z" />
    <glyph glyph-name="eight.onum_tnum" 
d="M906 2093q121 0 225 -15.5t198.5 -53t160.5 -95t105 -146.5t39 -202q0 -185 -63.5 -299t-241.5 -206q168 -81 251.5 -199t83.5 -315q0 -140 -40 -245t-107 -169.5t-167 -103.5t-205.5 -53.5t-238.5 -14.5q-137 0 -248.5 17.5t-208.5 59.5t-162 108t-102.5 167.5
t-37.5 234.5q0 101 22 180t67 139t103.5 105t142.5 87q-165 82 -234 199.5t-69 307.5q0 114 38 202.5t103 146t159 95t198.5 53t228.5 15.5zM906 222q82 0 146 8t124.5 31.5t100.5 61.5t64 100.5t24 147.5q0 189 -115.5 270.5t-407.5 107.5q-92 -15 -161 -41.5t-123.5 -70.5
t-83 -111t-28.5 -155q0 -84 24 -146.5t63.5 -100.5t100 -61.5t125.5 -32t147 -8.5zM973 1194q87 18 150.5 42.5t116.5 63.5t80 98t27 138q0 78 -23.5 135.5t-62 92t-97.5 55t-119.5 27.5t-138.5 7t-137.5 -7t-118 -27t-96 -54.5t-61 -92t-23.5 -136.5q0 -161 114.5 -243.5
t388.5 -98.5z" />
    <glyph glyph-name="nine.onum_tnum" 
d="M854 605q-119 0 -213 11.5t-179.5 39.5t-146.5 76t-106 118.5t-67.5 170.5t-22.5 229q0 114 19 207t53.5 162t87 121.5t116 87t145.5 55.5t169 30t192 9q127 0 229.5 -20.5t179 -57t133.5 -94.5t94 -126.5t59.5 -159t32 -186t9.5 -213.5q0 -148 -6.5 -268.5t-22.5 -230.5
t-41.5 -196t-63.5 -162.5t-88 -132.5t-117 -102.5t-147.5 -77t-182.5 -51.5t-220 -30t-261 -9q-61 0 -204 3l-26 247l144 6q279 9 410 33q288 52 406 227q84 125 93 319q-268 -35 -457 -35zM912 844q151 0 417 38q6 76 6 226q0 67 -3.5 121.5t-15 114.5t-30.5 105.5
t-51.5 89t-76 71.5t-107 44.5t-142.5 16.5q-186 0 -291.5 -42.5t-150.5 -133.5t-45 -250q0 -99 21.5 -170t59 -115.5t100.5 -70.5t135.5 -35.5t173.5 -9.5z" />
    <glyph glyph-name="dollar.onum_tnum" 
d="M286 278q272 -42 519 -42q84 0 147 8t121 29.5t95 58t58.5 95t21.5 138.5q0 66 -21.5 118t-53.5 86.5t-90.5 66t-111 50.5t-136.5 44q-88 27 -149.5 48.5t-127.5 51.5t-110 61.5t-85 74.5t-64.5 94t-37.5 117t-14 147q0 139 35.5 240.5t107.5 168t172.5 103t237.5 49.5
v286h226v-279q254 -6 494 -53l-28 -242q-257 39 -431 39q-68 0 -120.5 -3t-115.5 -12t-108.5 -28t-85 -48t-60 -75.5t-20.5 -106.5q0 -41 6.5 -76t15.5 -62.5t28.5 -52t36 -41.5t48 -34.5t55 -28.5t65.5 -25t71 -22.5l80 -22.5l32 -9q94 -26 166.5 -54.5t139.5 -66
t114.5 -84.5t83 -106.5t52.5 -135.5t17 -168q0 -274 -139 -414.5t-414 -172.5v-290h-226v279q-271 3 -527 55z" />
    <glyph glyph-name="cent.onum_tnum" 
d="M1444 499l26 -228q-183 -41 -355 -50v-278h-213v282q-91 11 -165 41t-127 73t-92.5 104t-64 126.5t-39.5 148t-20.5 161t-5.5 172.5q0 121 9 214.5t30.5 180.5t59.5 150.5t94.5 114.5t136.5 82.5t184 45.5v287h213v-275q183 -4 352 -51l-23 -219q-183 29 -273 29
q-68 0 -123 -4t-100.5 -14.5t-80.5 -23.5t-63 -35t-47.5 -45.5t-33.5 -59.5t-22.5 -72t-13.5 -87t-6.5 -100.5t-1.5 -117.5q0 -237 27 -338q37 -140 153 -197q107 -53 310 -53q93 0 275 36z" />
    <glyph glyph-name="Euro.onum_tnum" 
d="M214 1131l44 194h175q13 164 43 285t83.5 215t135 151.5t194.5 87t264 29.5q235 0 442 -56l-24 -241q-215 40 -356 40q-131 0 -221 -34t-142 -104t-76.5 -158t-33.5 -215h689l-44 -194h-652v-170h615l-43 -193h-566q6 -88 17.5 -156t33.5 -130.5t57.5 -106.5t85.5 -77
t120 -49t160 -16q131 0 356 39l24 -239q-211 -57 -442 -57q-153 0 -267.5 30.5t-196 90t-135 156.5t-82.5 221.5t-40 293.5h-236l43 193h185v73q0 65 1 97h-211z" />
    <glyph glyph-name="sterling.onum_tnum" 
d="M457 929h-308v236h273q-25 186 -25 361q0 133 38.5 233.5t103 163.5t160 102t199 54t230.5 15q96 0 173.5 -15t142 -47.5t113.5 -69.5t109 -94l-158 -186q-90 76 -177.5 114t-192.5 38q-126 0 -209.5 -22t-132.5 -70.5t-69 -117t-20 -169.5q0 -113 25 -290h471v-236h-443
q10 -105 10 -196q0 -209 -112 -469h470q256 0 492 36l28 -245q-119 -24 -306.5 -39.5t-379.5 -15.5h-508q-78 0 -116.5 33.5t-38.5 88.5q0 32 27.5 93t60.5 124.5t60.5 164.5t27.5 204q0 88 -18 221z" />
    <glyph glyph-name="yen.onum_tnum" 
d="M485 2073l421 -946l433 946h304l-473 -1021h254v-207h-349l-19 -41v-142h368v-204h-368v-458h-306v458h-362v204h362v142l-19 41h-343v207h248l-467 1021h316z" />
    <glyph glyph-name="parenleft.case" horiz-adv-x="1013" 
d="M712 2663l176 -146q-398 -396 -398 -1357t398 -1357l-176 -145q-123 111 -217.5 249.5t-153.5 282t-96.5 310t-52.5 325t-15 335.5t15 335.5t52.5 325t96.5 310.5t153.5 282.5t217.5 249.5z" />
    <glyph glyph-name="parenright.case" horiz-adv-x="1011" 
d="M300 -342l-175 145q97 96 170 229.5t115.5 269t69 294.5t35 290.5t8.5 273.5t-8.5 273.5t-35 290.5t-69 294.5t-115.5 269t-170 229.5l175 146q123 -111 217.5 -249.5t153.5 -282.5t96.5 -310.5t52.5 -325t15 -335.5t-15 -335.5t-52.5 -325t-96.5 -310t-153.5 -282
t-217.5 -249.5z" />
    <glyph glyph-name="bracketleft.case" horiz-adv-x="1016" 
d="M561 2405v-2476h343v-240h-629v2952h631v-236h-345z" />
    <glyph glyph-name="bracketright.case" horiz-adv-x="1016" 
d="M110 2405v236h631v-2952h-629v240h342v2476h-344z" />
    <glyph glyph-name="braceleft.case" horiz-adv-x="1023" 
d="M654 561v-175q0 -78 6 -137.5t24 -118t48.5 -98.5t81.5 -69t121 -40l-25 -214q-106 13 -185.5 37t-148 70t-111.5 114.5t-67 170.5t-24 237q0 151 -6.5 256.5t-23 193t-45.5 141.5t-73 86.5t-107 43.5v215q63 10 107 43t73 86.5t45.5 141.5t23 193.5t6.5 256.5
q0 135 24 236.5t67 170t111.5 114.5t148 70t185.5 37l25 -213q-70 -11 -121 -40.5t-81.5 -69.5t-48.5 -99t-24 -118t-6 -137v-175q0 -56 -1 -96.5t-6 -99.5t-14 -102.5t-26 -95t-41 -88.5t-60.5 -70t-82.5 -53q61 -29 105 -83t67.5 -113t37.5 -137t17.5 -138t3.5 -134z" />
    <glyph glyph-name="braceright.case" horiz-adv-x="1024" 
d="M905 1274v-215q-63 -11 -106.5 -43.5t-73 -86.5t-46 -141.5t-23 -193t-6.5 -256.5q0 -135 -24 -237t-67 -170.5t-111.5 -114.5t-148 -70t-185.5 -37l-25 214q70 11 121.5 40t82 69t48 98.5t23.5 117.5t6 138v175q0 74 3.5 134t17.5 138t38 137t68 113t105 83
q-46 20 -83 53t-61 70t-41 88.5t-26 95t-14 102.5t-6 99t-1 97v175q0 78 -6 137t-23.5 118t-48 99t-82 69.5t-121.5 40.5l25 213q106 -13 185.5 -37t148 -70t111.5 -114.5t67 -170t24 -236.5q0 -375 52 -535.5t203 -185.5z" />
    <glyph glyph-name="questiondown.case" horiz-adv-x="1704" 
d="M891 1639h267l6 -208q2 -40 2 -83q0 -85 -24 -144.5t-65 -91t-94 -50.5t-112 -29.5l-117.5 -22t-111.5 -35t-94 -60.5t-65 -105.5t-24 -164.5q0 -83 10.5 -142.5t37 -106.5t67.5 -76.5t106.5 -48.5t148.5 -26.5t200 -7.5q262 0 522 49l54 -255q-309 -67 -636 -67
q-102 0 -182 5t-162.5 17.5t-145 35.5t-121.5 58t-100 86t-72.5 118t-46.5 156t-15 198q0 130 25.5 229t69 158.5t100 100.5t119 62.5t125.5 36.5l120 28.5t101.5 34t71.5 58.5t29 95zM839 2141q0 114 39 157.5t146 43.5t146 -43.5t39 -157.5t-39.5 -158.5t-145.5 -44.5
t-145.5 44.5t-39.5 158.5z" />
    <glyph glyph-name="exclamdown.case" horiz-adv-x="833" 
d="M416 1938q-106 0 -145.5 44.5t-39.5 158.5t39 157.5t146 43.5q108 0 146.5 -43.5t38.5 -157.5t-39.5 -158.5t-145.5 -44.5zM232 -12l53 1651h263l53 -1651h-369z" />
    <glyph glyph-name="at.case" horiz-adv-x="3039" 
d="M2821 1592q47 -190 47 -427q0 -313 -87.5 -541t-261 -370.5t-419.5 -210t-575 -67.5q-331 0 -577 67.5t-418.5 210t-259.5 370t-87 541.5q0 258 59.5 456.5t171.5 336.5t282 227t382.5 129t481.5 40q108 0 198.5 -16.5t171.5 -56t137.5 -101t89.5 -156t33 -216.5v-719
q0 -161 -12 -315q-124 -69 -302.5 -109t-373.5 -40q-345 0 -500.5 133t-155.5 407q0 226 113 362t347 181q148 28 584 50q0 198 -74.5 272t-272.5 74q-205 0 -363.5 -28t-290.5 -94.5t-217.5 -173.5t-132.5 -268t-47 -375q0 -211 45.5 -370.5t130 -267t213.5 -175.5t286 -97
t358 -29q202 0 359 29t286.5 97t214 175.5t130 267t45.5 370.5q0 195 -33 341zM1890 1195v350q-333 -8 -469 -44q-148 -39 -210 -109.5t-62 -220.5q0 -90 25 -151t77 -95t121 -48t169 -14q74 0 173.5 20t166.5 51q9 119 9 261z" />
    <glyph glyph-name="guilsinglleft.case" horiz-adv-x="1036" 
d="M452 1164l430 -669h-302l-474 669l474 670h302z" />
    <glyph glyph-name="guilsinglright.case" horiz-adv-x="1036" 
d="M930 1164l-474 -669h-302l430 669l-429 670h301z" />
    <glyph glyph-name="guillemotleft.case" horiz-adv-x="1701" 
d="M452 1164l430 -669h-302l-474 669l474 670h302zM1116 1164l430 -669h-303l-473 669l473 670h302z" />
    <glyph glyph-name="guillemotright.case" horiz-adv-x="1699" 
d="M930 1164l-474 -669h-302l430 669l-430 670h302zM1593 1164l-473 -669h-303l431 669l-431 670h303z" />
    <glyph glyph-name="hyphen.case" horiz-adv-x="1314" 
d="M227 1034v261h860v-261h-860z" />
    <glyph glyph-name="endash.case" horiz-adv-x="2061" 
d="M227 1042v245h1607v-245h-1607z" />
    <glyph glyph-name="emdash.case" horiz-adv-x="3614" 
d="M227 1042v245h3160v-245h-3160z" />
    <glyph glyph-name="periodcentered.case" horiz-adv-x="809" 
d="M404 963q-107 0 -146 43.5t-39 157.5t39.5 158.5t145.5 44.5t146 -44.5t40 -158.5t-39 -157.5t-147 -43.5z" />
    </font>
</defs>
</svg>
